<?xml version="1.0" encoding="UTF-8" standalone="no"?>
<!-- Created with Inkscape (http://www.inkscape.org/) -->

<svg
   width="156.49133mm"
   height="140.86874mm"
   viewBox="0 0 156.49133 140.86874"
   version="1.1"
   id="svg1"
   xml:space="preserve"
   xmlns="http://www.w3.org/2000/svg"
   xmlns:svg="http://www.w3.org/2000/svg"><defs
     id="defs1" /><path
     style="fill:#000000"
     d="m 64.813222,140.59462 c -3.274,-0.28923 -7.64023,-1.12477 -11.1125,-2.12652 -16.35758,-4.71918 -28.84991,-16.376 -34.24973,-31.95904 -2.49942,-7.212947 -3.34201,-16.204087 -2.2451,-23.956942 2.0218,-14.289799 9.5439,-28.731375 20.88442,-40.095724 6.32227,-6.335554 11.51883,-10.079314 19.59267,-14.115149 8.48515,-4.241435 16.17988,-6.581991 26.31253,-8.003658 6.00937,-0.843147 21.549688,-0.570765 24.322358,0.426308 0.29434,0.105848 -0.54444,0.257392 -1.98438,0.358521 -2.9761,0.209018 -6.24099,0.907518 -9.575058,2.04852 -2.74419,0.93913 -10.83141,4.24759 -10.70118,4.377823 0.0464,0.04638 1.50647,-0.103111 3.24463,-0.332206 2.27052,-0.299261 4.42669,-0.380369 7.65822,-0.288077 8.648318,0.246993 15.139338,1.713228 25.135408,5.677749 9.79337,3.884128 13.40621,4.836031 18.30328,4.822508 2.36512,-0.0065 3.48218,-0.130896 4.58035,-0.509944 0.79881,-0.275719 1.48874,-0.464949 1.53318,-0.42051 0.0444,0.04444 -1.02585,1.209985 -2.37842,2.590103 -5.41068,5.520877 -11.70303,8.397757 -19.49758,8.914351 -3.75534,0.248889 -8.03139,-0.02596 -11.66893,-0.750042 -1.38245,-0.275187 -2.54531,-0.47093 -2.58413,-0.434985 -0.18936,0.175316 5.98862,2.59885 8.66954,3.400944 3.9361,1.177623 6.73993,1.714002 11.12841,2.128888 l 3.55597,0.336181 -1.85208,0.55633 c -10.10981,3.036789 -19.50298,1.630185 -33.139068,-4.96249 -2.65575,-1.283985 -4.82864,-2.282735 -4.82864,-2.219445 0,0.244006 7.736108,5.854698 11.641668,8.443239 7.19892,4.771333 13.43948,7.920521 18.34264,9.256287 2.88116,0.784917 7.54349,1.256633 10.49694,1.062042 l 1.98437,-0.130743 -1.5875,0.761572 c -2.89792,1.390223 -5.62928,1.936184 -10.41313,2.081442 -4.94642,0.150195 -6.87044,-0.08533 -11.46081,-1.402929 -4.29058,-1.231556 -7.25823,-2.373904 -14.903138,-5.736725 -14.38591,-6.328034 -22.53066,-9.194131 -30.1625,-10.614035 -4.63601,-0.862532 -4.75099,-0.819517 -1.54126,0.576604 4.21965,1.835402 6.56514,3.306625 8.68867,5.450022 1.56056,1.575175 3.82718,4.65123 3.42729,4.65123 -0.0655,0 -0.68566,-0.434454 -1.37814,-0.965452 -1.75589,-1.346422 -6.09906,-3.389652 -8.93197,-4.202016 -2.90625,-0.833392 -7.0535,-1.134686 -9.3634,-0.680241 -4.83721,0.951663 -8.01752,2.713091 -11.97239,6.630964 -4.1295,4.090864 -6.80257,8.473217 -8.92781,14.636653 -3.58781,10.405031 -3.43744,20.680733 0.43644,29.823832 2.00059,4.72181 4.05857,7.79465 7.67855,11.46514 5.15715,5.2291 11.89243,8.5546 20.73693,10.23874 6.01647,1.14564 16.49358,0.96458 24.69501,-0.42675 5.63882,-0.9566 14.102168,-3.45606 19.256718,-5.68705 10.70768,-4.63448 21.28887,-12.22649 27.73978,-19.90329 0.70947,-0.8443 1.28995,-1.465417 1.28995,-1.38027 0,0.76519 -3.60829,6.66442 -6.28368,10.27326 -2.1982,2.96514 -9.37749,10.3025 -12.50173,12.77698 -9.60143,7.60457 -19.52802,12.5566 -30.956248,15.44301 -8.32435,2.10246 -16.93091,2.8198 -25.13542,2.09499 z m -36.24542,-11.039 c -5.38042,-3.38002 -10.6074,-7.90487 -14.44116,-12.50131 C 6.7894216,108.25745 1.5497916,95.739649 0.26932156,83.948318 c -0.40771,-3.754438 -0.34305,-11.069725 0.12978,-14.681252 C 2.0150516,56.924169 7.0217416,45.096196 14.936332,34.923829 c 7.78848,-10.010276 17.77076,-18.003872 29.90085,-23.943955 9.44823,-4.6267787 18.14882,-7.2956217 28.65512,-8.7897527 5.5985,-0.796178 17.25773,-0.85494 22.93863,-0.115608 9.613748,1.251166 18.136958,3.639334 25.973278,7.277607 1.77052,0.8220207 3.18464,1.5290627 3.1425,1.5712027 -0.0421,0.04214 -0.8359,-0.0426 -1.76391,-0.188306 -3.38031,-0.530752 -9.93731,-0.8702707 -13.46125,-0.697016 -4.09433,0.201298 -5.90933,0.425197 -10.715618,1.321887 -1.89177,0.352941 -5.50256,0.953352 -8.02397,1.334248 -4.8853,0.737996 -14.07001,2.954967 -18.43436,4.449616 -8.8433,3.028548 -17.52153,7.249263 -25.23134,12.271426 -19.3673,12.615851 -32.9048,31.607175 -36.17762,50.752399 -0.58293,3.410014 -0.7829,11.326884 -0.37866,14.991621 1.41685,12.844892 7.98979,25.280592 18.1277,34.296772 1.01662,0.90414 1.77863,1.64389 1.69335,1.64389 -0.0853,0 -1.26123,-0.69491 -2.61323,-1.54424 z m 38.0287,-6.25142 c -1.56581,-0.17795 -2.90371,-0.38032 -2.9731,-0.44972 -0.0694,-0.0694 0.79501,-0.33827 1.92089,-0.5975 2.54831,-0.58676 9.59986,-2.91261 13.29185,-4.38412 29.341478,-11.69464 52.028938,-29.94426 61.627528,-49.572739 3.39072,-6.933789 4.73369,-11.909167 4.96772,-18.40414 l 0.15647,-4.342431 0.51446,1.002786 c 0.95817,1.867657 2.30353,5.939635 2.9081,8.801863 0.51935,2.458812 0.60156,3.627979 0.60029,8.537504 -0.001,4.955356 -0.0825,6.080709 -0.63027,8.731249 -2.84825,13.782498 -10.59759,25.400763 -23.24144,34.844918 -11.36147,8.48631 -25.73856,14.08974 -40.552858,15.80536 -4.27278,0.49483 -14.34445,0.50944 -18.58964,0.027 z m -9.4866,-5.25313 c -1.95637,-0.73233 -3.34552,-2.04445 -4.25615,-4.02013 l -0.60823,-1.31962 V 88.634243 64.557161 l 0.57212,-1.058333 c 1.73167,-3.203267 5.59347,-4.65633 9.15842,-3.445997 2.44164,0.82896 42.568138,21.596382 44.020938,22.782987 2.42312,1.979141 3.17816,5.469025 1.78714,8.260433 -1.08624,2.179793 0.0957,1.433171 -20.745918,13.105419 -12.62747,7.07197 -22.48797,12.49606 -24.02519,13.21585 -1.96517,0.92017 -4.43058,1.18477 -5.90313,0.63355 z M 137.58966,29.837768 c -0.64341,-2.150374 -1.7139,-4.981334 -2.37887,-6.291021 -1.14562,-2.256368 -1.29228,-2.425716 -2.79653,-3.229134 -2.16653,-1.157144 -6.20574,-2.585156 -8.88954,-3.142784 -1.22263,-0.254032 -2.31846,-0.543776 -2.43519,-0.643875 -0.11672,-0.100099 0.65718,-0.39295 1.7198,-0.650779 4.63299,-1.124139 10.73791,-3.6249 11.41021,-4.673966 0.75073,-1.171464 2.50414,-5.6462667 3.3882,-8.6468997 0.82828,-2.81131895 0.89624,-2.94164295 1.10378,-2.11666595 0.42402,1.68549195 2.10305,6.18759595 3.17226,8.50599795 1.1894,2.5790067 1.81526,3.1582977 4.85709,4.4956537 1.55583,0.68403 6.04,2.179469 8.55985,2.854649 l 1.19062,0.319021 -1.05833,0.226031 c -3.5504,0.758268 -10.6443,3.288331 -11.61641,4.143035 -1.12303,0.9874 -2.8057,5.216143 -4.99576,12.554904 -0.0337,0.113083 -0.58778,-1.553792 -1.23118,-3.704167 z"
     id="path15" /></svg>
