<?xml version="1.0" encoding="UTF-8" standalone="no"?>
<!-- Created with Inkscape (http://www.inkscape.org/) -->

<svg
   width="193.52354mm"
   height="157.2205mm"
   viewBox="0 0 193.52354 157.2205"
   version="1.1"
   id="svg1"
   xml:space="preserve"
   xmlns="http://www.w3.org/2000/svg"
   xmlns:svg="http://www.w3.org/2000/svg"><defs
     id="defs1" /><path
     style="fill:#000000"
     d="m 91.738847,157.12345 c -27.245423,-1.18143 -51.203584,-8.75095 -68.736398,-21.71708 -4.31587,-3.19174 -10.346152,-8.78265 -9.791311,-9.07791 0.188837,-0.10049 2.262889,-0.38962 4.609005,-0.64251 l 4.265666,-0.45981 3.339793,2.39467 c 13.751139,9.85974 31.743463,16.49163 51.761164,19.07894 7.626508,0.98573 10.928574,1.18635 19.579161,1.18953 13.714143,0.005 23.643213,-1.21674 36.644793,-4.50913 12.39352,-3.13842 25.60169,-9.09688 34.26354,-15.45696 1.38245,-1.01508 2.77766,-2.03506 3.10046,-2.26662 0.53699,-0.38521 0.94206,-0.38382 4.7625,0.0163 2.29657,0.24055 4.3981,0.50241 4.67006,0.58191 0.41345,0.12086 0.19668,0.44706 -1.32292,1.99074 -12.45285,12.65026 -32.79073,22.34889 -55.65323,26.53963 -10.12159,1.85531 -22.1072,2.74523 -31.492283,2.33827 z m -2.39024,-24.92751 c -1.484981,-0.30823 -1.62197,-0.48085 -1.54421,-1.94593 l 0.07068,-1.33167 -1.570827,-0.7943 c -6.814642,-3.44588 -17.535166,-6.14511 -29.887275,-7.52508 -3.516097,-0.39281 -6.452282,-0.47101 -17.330207,-0.46159 -13.778296,0.0119 -17.346328,0.23162 -27.185936,1.67382 -3.0987103,0.45418 -3.2411453,0.45447 -3.2411453,0.007 0,-0.47822 8.2192113,-49.726379 9.3265923,-55.883399 l 0.610011,-3.39165 1.93095,-1.461 c 1.062023,-0.80356 1.967971,-1.42044 2.013219,-1.37085 0.04525,0.0496 -0.133312,1.45937 -0.396798,3.13286 -0.263487,1.67349 -1.14762,7.32896 -1.964741,12.56771 -0.817121,5.23875 -1.775979,11.37047 -2.130796,13.62604 -1.746489,11.102439 -3.828167,24.963049 -3.759438,25.031779 0.04248,0.0425 1.204349,-0.21287 2.58193,-0.56744 6.084074,-1.56594 12.528708,-2.10372 22.745318,-1.89798 12.413911,0.24998 22.998341,1.79879 32.940624,4.82017 6.818675,2.07214 13.84038,5.23514 18.860669,8.49599 l 2.19191,1.42373 h 3.13834 3.13834 l 2.522263,-1.58527 c 10.73039,-6.74419 23.71062,-10.75969 40.79223,-12.61929 5.33794,-0.58112 20.66877,-0.66385 25.13541,-0.13564 3.3742,0.39902 7.6459,1.21465 9.476,1.80933 0.70065,0.22767 1.32589,0.36197 1.38943,0.29843 0.0635,-0.0635 -0.23448,-2.36762 -0.66225,-5.12018 -1.62997,-10.488319 -2.65591,-17.031059 -3.19107,-20.350499 -0.30499,-1.89177 -0.77987,-4.92787 -1.05528,-6.74688 -0.27541,-1.81901 -1.16638,-7.52052 -1.97994,-12.67002 -0.81356,-5.14951 -1.43249,-9.40944 -1.3754,-9.46653 0.17382,-0.17382 3.3618,2.32457 3.73013,2.92328 0.18954,0.30808 0.61014,2.10796 0.93468,3.99973 0.32454,1.89177 1.11518,6.47568 1.75698,10.18646 2.91728,16.86709 7.52364,45.056899 7.38516,45.195379 -0.0843,0.0843 -1.25079,0.0102 -2.59228,-0.1645 -12.00379,-1.56357 -17.10895,-1.90278 -28.64608,-1.90336 -9.18953,-4.6e-4 -13.19359,0.21155 -19.98954,1.05843 -9.75302,1.21537 -20.16717,4.00719 -26.16699,7.01481 l -1.71979,0.86211 0.0902,1.33076 c 0.13747,2.02847 0.13864,2.02818 -8.292273,2.08316 -3.92906,0.0256 -7.56451,-0.0408 -8.07878,-0.1475 z m 3.18399,-12.4006 C 80.315069,107.59645 65.571464,100.17724 46.176172,96.468071 c -3.709074,-0.70933 -8.337247,-1.27213 -12.116487,-1.47341 -1.67349,-0.0891 -3.409729,-0.21745 -3.85831,-0.28517 l -0.815602,-0.12312 0.212318,-1.51767 c 1.264551,-9.03916 7.750632,-53.1858 8.454321,-57.54319 l 0.288417,-1.78594 4.143282,0.007 c 15.456119,0.0255 31.50528,4.87509 43.830779,13.24448 2.581059,1.75262 7.407667,5.65571 8.466667,6.84666 0.52333,0.58854 0.52917,0.96986 0.52917,34.56627 0,18.684139 -0.0595,33.955439 -0.1323,33.936209 -0.0728,-0.0192 -1.26338,-1.16433 -2.64583,-2.54467 z m 5.55625,-31.379039 v -33.95868 l 1.52136,-1.44499 c 12.038883,-11.43454 33.290053,-19.70373 51.125283,-19.89371 l 3.83101,-0.0408 0.83987,5.29167 c 0.46193,2.91041 1.14733,7.31573 1.52312,9.78958 0.37578,2.47385 1.10622,7.17682 1.6232,10.45104 0.51698,3.27422 1.402,8.92969 1.96672,12.56771 0.56472,3.63802 1.57214,10.12255 2.23872,14.41007 0.66658,4.28751 1.21197,8.10892 1.21197,8.49201 v 0.69652 l -3.50573,0.16524 c -4.69286,0.2212 -9.17393,0.80704 -14.61087,1.91017 -17.85032,3.621739 -32.69246,11.163269 -44.34669,22.533259 -1.685393,1.64428 -3.143903,2.9896 -3.241153,2.9896 -0.0972,0 -0.17681,-15.28141 -0.17681,-33.958679 z M 88.204388,119.83559 C 85.974175,118.32012 79.044153,114.64294 75.382,113.03182 64.146521,108.08892 52.333772,105.233 39.615934,104.3848 c -6.714519,-0.44782 -12.562439,0.0749 -18.082987,1.61639 -1.578196,0.44067 -2.919267,0.7514 -2.980158,0.69051 -0.06089,-0.0609 0.24192,-2.30183 0.672914,-4.97986 0.430995,-2.678029 0.966861,-6.119309 1.190814,-7.647269 0.223953,-1.52797 0.880825,-5.75469 1.459714,-9.39271 0.57889,-3.63802 1.591713,-10.30552 2.250716,-14.81667 0.659004,-4.51114 1.731888,-11.77396 2.384187,-16.13958 0.652299,-4.36563 1.188823,-8.08928 1.192275,-8.27478 0.0081,-0.43776 0.697534,-0.68742 3.688569,-1.33578 l 2.456704,-0.53253 -0.172204,1.23508 c -0.09471,0.6793 -0.581585,3.61634 -1.081939,6.52676 -2.384991,13.87282 -7.795767,47.1047 -7.794989,47.87524 1.9e-4,0.18854 2.422193,0.28412 7.474479,0.29496 8.158253,0.0175 10.872045,0.27807 18.021765,1.730329 11.305796,2.29644 20.811883,6.23249 30.330555,12.55852 3.438207,2.28501 9.192888,6.72949 8.713298,6.72949 -0.0681,0 -0.578953,-0.30929 -1.135259,-0.68731 z m 16.507572,0.10659 c 1.34958,-1.1496 6.09045,-4.62887 8.45814,-6.20731 11.80931,-7.87283 26.14551,-12.77814 41.275,-14.122749 1.81901,-0.16166 5.77795,-0.25561 8.79766,-0.20876 3.63805,0.0564 5.49028,-0.007 5.4901,-0.18676 -3.2e-4,-0.32756 -2.98426,-18.15861 -4.49286,-26.84787 -0.59373,-3.41974 -1.55746,-9.01567 -2.14164,-12.43541 -0.58417,-3.41974 -1.11141,-6.3963 -1.17164,-6.61459 -0.15554,-0.56371 -1.4007,-7.91034 -1.50226,-8.86354 -0.0953,-0.89457 -0.14969,-0.88544 2.33922,-0.3927 1.84076,0.36442 1.75155,0.20282 2.10884,3.82025 l 0.18174,1.84006 0.55323,-2.32009 c 0.55547,-2.3295 1.00863,-2.93739 1.16789,-1.56668 0.1998,1.71963 2.23458,15.7603 3.07826,21.24104 2.99867,19.48001 5.53775,35.590369 5.95834,37.805379 0.42373,2.23153 0.51724,2.16988 -2.04449,1.34784 -3.33941,-1.07161 -5.85127,-1.53493 -10.02336,-1.84886 -10.0675,-0.75752 -24.60685,1.41513 -36.32104,5.42755 -6.32761,2.16737 -14.19576,5.79666 -19.19248,8.85278 -1.98682,1.21519 -3.11595,1.78921 -2.51865,1.28042 z M 4.8526877,115.36384 c -0.548497,-0.99787 -1.467018,-2.99341 -2.04116,-4.43453 -5.3968711,-13.546409 -3.06667599,-25.798069 7.3591633,-38.692869 3.349582,-4.1428 4.096905,-4.66867 1.844978,-1.29827 -7.7336643,11.57481 -9.5581843,23.78011 -5.1748273,34.617499 l 0.741716,1.83382 -0.78959,4.64848 c -0.434275,2.55666 -0.82411,4.7591 -0.866302,4.89432 -0.04219,0.13522 -0.525482,-0.57059 -1.073978,-1.56845 z m 182.5604223,0.99187 c -0.0808,-0.40018 -0.44614,-2.56014 -0.81182,-4.79992 l -0.66487,-4.07231 0.92915,-2.48075 c 1.67748,-4.47872 2.06813,-6.598419 2.089,-11.335039 0.0155,-3.51326 -0.0859,-4.7005 -0.59629,-6.97984 -1.19858,-5.35321 -3.40764,-10.46869 -6.79042,-15.72443 l -1.73506,-2.69573 1.48951,1.5875 c 0.81923,0.87313 2.48082,2.91034 3.69243,4.52715 8.22489,10.97558 10.46176,21.9805 6.82007,33.553289 -0.63567,2.02008 -3.86483,9.14768 -4.14435,9.14768 -0.0717,0 -0.19653,-0.32742 -0.27735,-0.7276 z M 164.38158,42.965061 c -0.0789,-0.34459 -0.3945,-1.81716 -0.70136,-3.27237 -2.5648,-12.1632 -6.10675,-15.10305 -20.7445,-17.21814 -1.26402,-0.18265 -1.17063,-0.21272 2.09748,-0.67539 6.3134,-0.89378 11.54918,-2.86134 13.88346,-5.21726 2.73312,-2.75847 4.37633,-7.4583396 5.65696,-16.17982957 0.14188,-0.96626 0.30378,-0.34562 0.93177,3.57187997 1.14907,7.1680096 3.36136,11.7334696 6.74566,13.9208496 2.9204,1.88755 6.62355,3.08169 12.09196,3.89926 3.57982,0.53521 3.58724,0.52477 -0.78878,1.10929 -5.71277,0.76306 -10.62846,2.6858 -13.0452,5.10254 -2.30135,2.30135 -4.14653,6.67984 -5.24114,12.43686 -0.30892,1.62476 -0.60244,2.99792 -0.65227,3.05148 -0.0498,0.0536 -0.15515,-0.18458 -0.23404,-0.52917 z"
     id="path20" /></svg>
