<?xml version="1.0" encoding="UTF-8" standalone="no"?>
<!-- Created with Inkscape (http://www.inkscape.org/) -->

<svg
   width="168.35858mm"
   height="168.65149mm"
   viewBox="0 0 168.35858 168.65149"
   version="1.1"
   id="svg1"
   xml:space="preserve"
   xmlns="http://www.w3.org/2000/svg"
   xmlns:svg="http://www.w3.org/2000/svg"><defs
     id="defs1" /><path
     style="fill:#000000"
     d="m 72.976327,168.58831 c -0.50932,-0.0587 -2.23573,-0.23532 -3.83646,-0.3924 -10.25905,-1.00667 -21.48439,-4.90571 -30.64513,-10.64433 -13.75497,-8.61663 -25.0932,-22.29248 -30.4270003,-36.7002 -1.58681,-4.2863 -1.59828,-4.2208 0.46534,-2.65885 0.97176,0.73552 2.2066103,1.59461 2.7441103,1.90908 0.79747,0.46658 1.21309,1.06278 2.25903,3.24047 1.39449,2.90338 1.69924,3.20419 6.52345,6.43876 1.8189,1.21955 7.36606,4.15894 9.07447,4.80848 0.87438,0.33244 0.87781,0.24744 0.0702,-1.74016 -0.35472,-0.87296 -1.05546,-3.002 -1.55721,-4.7312 -0.65795,-2.26748 -1.04981,-3.19973 -1.40559,-3.34389 -9.16579,-3.714 -14.65842,-7.07696 -19.0436703,-11.65983 -2.43249,-2.54211 -3.72604,-4.41377 -5.13212,-7.42573 -1.32186998,-2.83158 -1.82262998,-4.78317 -2.01573998,-7.855872 -0.30193,-4.80441 0.75868,-9.07922 3.31507998,-13.36146 0.86872,-1.45521 2.07006,-3.18162 2.66964,-3.83646 1.23628,-1.35024 1.23676,-1.36321 -0.0498,1.32292 -3.74357,7.81558 -3.37742,14.78243 1.11871,21.286322 5.3355503,7.71814 17.2873103,13.55674 33.8581903,16.5402 14.48676,2.60823 35.64292,2.38657 52.2552,-0.54748 14.783373,-2.61103 26.084373,-6.16331 36.533113,-11.48355 11.23565,-5.72092 19.05006,-12.455482 21.30827,-18.363732 1.11915,-2.92806 0.97148,-7.50079 -0.34161,-10.57879 -0.70476,-1.65202 -0.017,-1.00067 1.37366,1.30098 2.67429,4.4261 3.38172,9.62325 1.8923,13.90166 -1.51505,4.352 -5.01084,9.012192 -9.83345,13.108822 -3.03713,2.57993 -8.88653,6.50314 -12.76614,8.5623 -2.47017,1.31107 -2.84427,1.59779 -2.84427,2.17989 0,2.55593 -1.38875,9.01888 -2.87599,13.38425 -0.78274,2.29751 -0.7855,2.32513 -0.21523,2.15501 1.9465,-0.58068 11.42811,-6.36926 13.70941,-8.36967 1.08457,-0.95103 3.0406,-6.03616 4.49755,-11.69235 l 0.80991,-3.14426 2.28978,-2.18775 c 1.25937,-1.20326 2.31811,-2.16111 2.35274,-2.12854 0.17449,0.16409 -1.10234,7.01159 -1.79088,9.60429 -1.91862,7.22452 -6.10917,15.94074 -10.65744,22.16719 -12.27501,16.80407 -30.32807,27.70929 -50.348553,30.41379 -2.89897,0.39161 -11.53379,0.72971 -13.33379,0.52209 z m 8.29595,-4.04088 c 2.18049,-0.16632 2.38785,-0.23347 2.99276,-0.96915 1.3105,-1.59378 7.84307,-15.74581 7.4498,-16.13908 -0.048,-0.048 -0.86069,0.0127 -1.80608,0.1347 -4.64738,0.59993 -14.76165,0.89327 -20.38028,0.59108 -3.11188,-0.16737 -5.69722,-0.26505 -5.7452,-0.21708 -0.1421,0.1421 1.49965,5.10661 2.6326,7.96077 1.15332,2.90548 3.14266,6.89603 3.94842,7.92038 0.42899,0.54538 0.78701,0.66936 2.15848,0.74751 2.9077,0.1657 6.34544,0.15425 8.7495,-0.0291 z m 16.12539,-3.0692 c 1.71731,-0.52214 3.647473,-1.19618 4.289253,-1.49785 1.3945,-0.65549 5.39053,-4.51817 7.90746,-7.64358 2.77168,-3.44174 7.66356,-11.1125 7.08679,-11.1125 -0.12127,0 -1.10456,0.30101 -2.18507,0.66891 -3.72317,1.2677 -10.27467,3.0491 -14.18442,3.85687 -2.155743,0.44538 -3.937523,0.82967 -3.959513,0.85398 -0.022,0.0243 -0.77699,2.03394 -1.67777,4.46585 -0.90078,2.43191 -2.51994,6.22302 -3.59813,8.42469 -1.0782,2.20167 -1.96036,4.03789 -1.96036,4.08049 0,0.15486 5.23687,-1.17106 8.28176,-2.09686 z m -32.35884,1.74375 c 0,-0.12503 -0.40619,-1.1073 -0.90264,-2.18281 -1.38421,-2.99878 -3.02367,-7.45419 -3.97665,-10.80698 l -0.86142,-3.03064 -4.07496,-0.70894 c -4.598,-0.79993 -8.42611,-1.69957 -13.07079,-3.07174 -1.74625,-0.5159 -3.39889,-1.001 -3.67255,-1.078 -0.56754,-0.15971 -0.25739,0.44166 2.56159,4.96685 3.25895,5.23144 8.86801,11.53881 11.18694,12.57968 2.53272,1.13683 10.62212,3.45448 12.34746,3.53759 0.25466,0.0123 0.46302,-0.08 0.46302,-0.20501 z m -24.75721,-10.00714 c -1.72504,-2.26164 -4.45511,-6.61344 -6.76007,-10.77571 -0.63732,-1.15086 -1.33735,-2.18577 -1.55563,-2.29981 -0.21829,-0.11404 -2.59954,-1.27524 -5.29167,-2.58044 -2.69214,-1.30521 -5.40081,-2.68806 -6.01927,-3.073 -0.61846,-0.38495 -1.12448,-0.62461 -1.12448,-0.53258 0,0.31938 3.93997,5.29808 5.86737,7.41425 2.34028,2.56948 5.47207,5.53349 8.15555,7.71862 2.16448,1.76253 6.87299,5.07305 7.24129,5.09131 0.12642,0.006 -0.10448,-0.42692 -0.51309,-0.96264 z m 75.160323,-0.44951 c 6.81445,-4.57936 15.4574,-13.30545 19.47565,-19.66299 l 0.53466,-0.84592 -2.19995,1.31805 c -1.20997,0.72493 -4.16447,2.31527 -6.56557,3.53409 l -4.36562,2.21604 -1.0045,2.03744 c -1.40809,2.85605 -3.88818,6.92424 -6.17534,10.12966 -1.0701,1.49973 -1.79741,2.63985 -1.61623,2.53361 0.18117,-0.10624 1.04378,-0.67323 1.9169,-1.25998 z m -26.722903,-9.26951 c 2.03729,-0.22464 3.85594,-0.41092 4.04144,-0.41394 0.4065,-0.007 0.69183,-0.71635 1.54454,-3.84195 0.75884,-2.78149 2.49183,-10.79581 2.36243,-10.9252 -0.0487,-0.0487 -1.67847,0.15155 -3.62163,0.44507 -8.30319,1.25423 -20.32356,2.14336 -28.99918,2.14503 -2.84022,5.4e-4 -3.76996,0.0823 -3.7689,0.33145 0.005,1.23162 2.13266,11.9457 2.43125,12.24429 0.69032,0.69032 19.7863,0.70151 26.01005,0.0152 z m -30.55938,-0.93218 c 0,-0.1365 -0.17417,-0.9997 -0.38706,-1.91823 -0.21288,-0.91854 -0.68877,-3.50922 -1.05753,-5.75708 -0.36876,-2.24786 -0.76013,-4.1633 -0.86971,-4.25653 -0.10958,-0.0932 -1.92564,-0.31477 -4.0357,-0.49229 -6.16199,-0.51844 -10.3562,-1.19899 -16.75104,-2.71802 -1.86428,-0.44284 -3.44355,-0.7512 -3.5095,-0.68526 -0.14477,0.14478 1.74199,5.6812 2.82474,8.28877 l 0.77669,1.8705 5.08841,1.63082 c 5.75648,1.84494 8.01053,2.43746 13.2905,3.49368 4.19704,0.83959 4.6302,0.89044 4.6302,0.54364 z m 42.345713,-1.09113 c 5.52407,-1.20487 11.99105,-3.05703 17.11878,-4.90284 2.21662,-0.79791 2.24978,-0.84831 4.05963,-6.16997 1.35313,-3.97874 2.87429,-10.87123 2.39926,-10.87123 -0.10405,0 -1.73367,0.66192 -3.62139,1.47094 -3.96587,1.69965 -12.15922,4.47417 -16.42964,5.56358 l -2.94327,0.75085 -0.5937,3.05263 c -0.32654,1.67894 -1.055893,4.93412 -1.620793,7.23374 -0.5649,2.29961 -1.02709,4.23438 -1.02709,4.29948 0,0.16082 -0.14286,0.18378 2.658213,-0.42718 z M 61.003937,115.14523 c -0.10915,-0.11158 -0.19844,-9.17225 -0.19844,-20.134822 v -19.93194 h 17.19791 17.19792 v 18.503 c 0,17.394172 -0.0277,18.511082 -0.46302,18.637812 -1.94906,0.56744 -13.40739,2.12474 -18.58698,2.52615 -4.77795,0.37028 -14.91457,0.63783 -15.14739,0.3998 z m -9.19428,-0.40729 c -7.66241,-0.67271 -14.15371,-1.79791 -19.9378,-3.45601 -3.64531,-1.04499 -7.90962,-2.61363 -9.98927,-3.67459 l -1.02917,-0.52504 V 91.078438 75.074578 l 16.93337,0.0681 c 9.31336,0.0375 16.93336,0.15739 16.93334,0.26653 -3e-5,0.10914 -5e-5,9.06859 -5e-5,19.90989 0,10.841312 -0.0893,19.695282 -0.19844,19.675492 -0.10914,-0.0198 -1.32953,-0.13527 -2.71198,-0.25664 z M 101.28674,92.805548 v -17.72708 h 17.3302 17.33021 v 11.06462 11.06461 l -4.69635,2.39803 c -5.96484,3.045742 -11.61878,5.448082 -17.66094,7.504072 -4.89773,1.66657 -10.9621,3.42284 -11.81906,3.42284 -0.46421,0 -0.48406,-0.72694 -0.48406,-17.727092 z m -87.510933,9.348022 -2.44739,-2.425952 v -33.79127 c 0,-25.91508 0.0756,-34.04363 0.32438,-34.87396 0.48606,-1.62232 1.97148,-2.96614 3.68607,-3.33469 1.04658,-0.22496 16.66751,-0.28282 60.1765,-0.22288 49.330063,0.0679 58.833233,0.13924 59.200513,0.44407 0.6581,0.5462 0.62331,4.01693 -0.0463,4.62295 -0.44588,0.40351 -3.7185,0.43788 -41.689263,0.43788 -27.89796,0 -41.37069,0.0885 -41.71719,0.27389 -0.46804,0.2505 -0.51177,0.58608 -0.51177,3.92775 0,3.20148 0.0598,3.70797 0.48303,4.09098 0.44459,0.40235 4.12229,0.44245 46.22765,0.50403 l 45.744623,0.0669 0.47539,1.28038 c 0.26146,0.7042 0.6399,2.49014 0.84096,3.96875 0.20107,1.4786 0.37782,2.43809 0.39279,2.1322 0.0449,-0.9169 1.38193,-6.00322 1.78387,-6.78601 0.21663,-0.42191 0.59307,-0.72761 0.89597,-0.72761 0.51616,0 0.52237,0.27768 0.52237,23.36054 v 23.36053 l -1.12448,1.06241 c -1.73015,1.63466 -3.55187,3.01447 -3.73634,2.83001 -0.0914,-0.0915 -0.16626,-10.20721 -0.16626,-22.47946 V 47.561818 H 79.724417 16.357897 l -0.0673,28.50885 -0.0673,28.508852 z m 8.75188,-63.069902 c 1.44804,-1.13903 1.14267,-3.42644 -0.55202,-4.13497 -1.64089,-0.68603 -3.26701,0.37912 -3.31786,2.1733 -0.0224,0.78967 0.13824,1.1294 0.82349,1.74167 1.01446,0.90642 2.07627,0.9831 3.04639,0.22 z m 8.40025,-0.23276 c 1.96196,-1.96196 -0.0825,-4.9914 -2.57563,-3.81653 -1.55677,0.73362 -1.79337,2.64659 -0.4887,3.95125 0.89929,0.8993 2.08232,0.84729 3.06433,-0.13472 z m 8.16143,0.0884 c 0.99277,-0.83537 1.11877,-2.29585 0.28906,-3.35065 -1.8171,-2.31008 -5.50014,0.52772 -3.81233,2.93742 0.86118,1.22951 2.34618,1.40368 3.52327,0.41323 z m -18.43821,20.59487 0.07,-8.13594 58.93594,-0.0667 58.935923,-0.0667 v 8.20267 8.20267 h -59.005893 -59.0059 z m 14.20503,4.73399 c 0.21364,-0.39919 0.0388,-0.75421 -0.93054,-1.88986 -0.79567,-0.93215 -1.13533,-1.54011 -1.01881,-1.82358 0.86086,-2.09427 0.62654,-3.70114 -0.73363,-5.03096 -1.69057,-1.65284 -4.00618,-1.64814 -5.89695,0.012 -2.85336,2.50528 -0.99707,7.15127 2.83225,7.08868 0.62569,-0.0102 1.37574,-0.11409 1.66678,-0.2308 0.41992,-0.16839 0.81268,0.0539 1.90239,1.07693 1.51388,1.42117 1.79057,1.52248 2.17851,0.7976 z m -7.32869,-3.46347 c -0.7414,-0.46477 -1.18144,-1.30754 -1.18144,-2.26271 0,-0.0797 0.0709,-0.49927 0.15745,-0.93225 0.17864,-0.8932 1.49442,-1.84389 2.55199,-1.84389 0.97183,0 2.2423,0.87588 2.63074,1.81367 1.00344,2.42251 -1.87644,4.6559 -4.15874,3.22518 z M 144.79934,43.421648 c -1.10773,-6.35107 -2.10285,-9.83361 -3.55383,-12.43705 -1.71864,-3.08368 -3.84587,-4.79352 -7.72498,-6.20922 -2.06428,-0.75337 -7.06979,-1.85597 -10.14109,-2.23385 l -1.5875,-0.19532 3.43397,-0.48555 c 3.7509,-0.53037 6.58497,-1.18759 8.924,-2.06949 1.92461,-0.72565 5.19982,-2.872 5.93537,-3.88966 1.82194,-2.52068 3.50828,-7.3554803 4.36807,-12.5233903 0.31531,-1.89522 0.60262,-3.41506999 0.63847,-3.3774399892 0.0358,0.0375999992 0.30741,1.4971699892 0.60348,3.2434199892 0.62335,3.67665 2.16678,8.9796403 3.12831,10.7484003 1.04291,1.91846 2.82835,3.52992 5.35939,4.83715 2.80528,1.44887 5.05868,2.08811 10.22363,2.90022 l 3.95198,0.62138 -1.5875,0.18805 c -8.13929,0.96412 -13.47435,2.85723 -16.08419,5.70735 -2.18187,2.38274 -3.86333,6.87837 -5.09663,13.62661 -0.23936,1.30969 -0.47525,2.42319 -0.52419,2.47444 -0.0489,0.0513 -0.16899,-0.36547 -0.26676,-0.92605 z"
     id="path18" /></svg>
