<?xml version="1.0" encoding="UTF-8" standalone="no"?>
<!-- Created with Inkscape (http://www.inkscape.org/) -->

<svg
   width="178.59373mm"
   height="178.77319mm"
   viewBox="0 0 178.59373 178.77319"
   version="1.1"
   id="svg1"
   xml:space="preserve"
   xmlns="http://www.w3.org/2000/svg"
   xmlns:svg="http://www.w3.org/2000/svg"><defs
     id="defs1" /><path
     style="fill:#000000"
     d="m 76.879665,178.24206 0.37866,-0.53111 1.96954,-2.8556 1.96955,-2.8556 1.88501,-3.71447 1.88501,-3.71446 1.22391,-3.70417 1.22391,-3.70417 0.55672,-2.64583 0.55672,-2.64583 0.15818,-3.90946 0.15817,-3.90946 -1.56003,0.20529 -1.56003,0.2053 h -7.40833 -7.40833 l -2.77813,-0.34147 -2.77812,-0.34147 -3.04271,-0.53052 -3.04271,-0.53052 -3.34918,-0.90537 -3.34918,-0.90537 -2.20707,-0.76608 -2.20707,-0.76607 -1.85208,-0.73576 -1.85209,-0.73577 -2.91041,-1.44874 -2.91042,-1.44874 -1.78638,-1.05717 -1.78638,-1.05716 1.43551,-1.00558 1.43551,-1.00557 1.85814,-1.21297 1.85815,-1.21297 h 0.35227 0.35228 l 1.94198,0.93068 1.94199,0.93067 3.20992,1.16277 3.20993,1.16277 3.83645,0.93667 3.83646,0.93668 2.77813,0.40183 2.77812,0.40183 4.31638,0.29517 4.31638,0.29516 4.64294,-0.29865 4.64293,-0.29865 3.07923,-0.4035 3.079215,-0.4035 3.175,-0.6351 3.175,-0.63509 1.92978,-0.49384 1.92977,-0.49384 0.10093,0.16331 0.10094,0.16331 -0.3659,1.92028 -0.36589,1.92028 -1.05874,4.15632 -1.05874,4.15632 -1.3446,3.94397 -1.3446,3.94397 -0.94071,2.27374 -0.94071,2.27373 -1.82039,3.70417 -1.820385,3.70417 -1.62231,2.51354 -1.6223,2.51354 -1.48411,1.84312 -1.48411,1.84312 1.04979,-0.63345 1.0498,-0.63345 2.26583,-1.53556 2.265825,-1.53557 2.49667,-2.08871 2.49666,-2.08871 2.52371,-2.61248 2.5237,-2.61248 1.976,-2.38125 1.97599,-2.38125 2.03367,-2.79175 2.03366,-2.79175 2.83787,-4.48429 2.83787,-4.48429 2.54525,-4.65161 2.54525,-4.65162 1.42249,-3.05686 1.4225,-3.05686 1.47769,-0.59922 1.47769,-0.59923 4.13274,-2.07608 4.13274,-2.07607 3.54018,-2.35899 3.54017,-2.35898 2.24089,-1.80827 2.24088,-1.80827 2.49219,-2.3823 2.49219,-2.3823 2.54479,-3.175 2.5448,-3.175 1.68179,-2.605012 1.6818,-2.605 1.66206,-3.48041 1.66205,-3.48042 0.84181,-2.50246 0.84181,-2.50246 0.49501,-2.39233 0.49501,-2.39233 0.31157,-2.91041 0.31158,-2.91042 -0.17149,-2.91042 -0.17149,-2.9104 -0.40737,-2.36364 -0.40738,-2.36364 -0.77107,-2.39886 -0.77107,-2.39886 -1.60617,-3.17181 -1.60618,-3.1718 0.43028,-1.98757 0.43029,-1.98757 0.51951,-1.78594 0.51952,-1.785936 0.18724,9.88e-4 0.18723,9.87e-4 1.2084,1.520371 1.20841,1.52036 1.07622,1.7312 1.07623,1.7312 1.12201,2.23157 1.12202,2.23158 0.88509,2.44511 0.88509,2.4451 0.56018,2.19108 0.56018,2.19108 0.38039,2.11666 0.38038,2.11666 0.24991,3.39416 0.2499,3.39416 -0.26286,3.485 -0.26287,3.48501 -0.27956,1.71979 -0.27955,1.71979 -0.76016,2.91042 -0.76015,2.91042 -1.04545,2.81336 -1.04544,2.81336 -1.75566,3.45269 -1.75567,3.452702 -1.32277,2.02629 -1.32278,2.02628 -1.90192,2.54153 -1.90192,2.54153 -3.18091,3.29212 -3.18091,3.29213 -2.64583,2.23181 -2.64583,2.23182 -3.84988,2.55989 -3.84987,2.5599 -5.01367,2.51354 -5.01366,2.51355 -1.5875,2.37445 -1.5875,2.37446 -2.49338,3.31409 -2.49338,3.31408 -2.51905,3.04271 -2.51905,3.0427 -4.64651,4.63021 -4.64651,4.63021 -3.57023,2.93341 -3.57023,2.93342 -2.66778,1.98058 -2.66778,1.98058 -3.285335,2.08377 -3.28534,2.08377 -3.70778,1.91929 -3.70778,1.9193 -1.0365,0.43308 -1.0365,0.43308 z m -44.89347,-49.95323 0.16407,-1.81801 0.66452,-7.27604 0.66453,-7.27604 1.04463,-11.50938 1.04462,-11.509372 0.41893,-4.63021 0.41892,-4.63021 0.78709,-8.58336 0.7871,-8.58336 0.0854,-0.0854 0.0854,-0.0854 0.71578,0.56304 0.71579,0.56304 0.087,-0.0963 0.087,-0.0963 -0.64245,-2.11667 -0.64246,-2.11667 0.17612,-2.44725 0.17612,-2.44726 2.3476,-2.23404 2.34759,-2.23405 3.24335,-2.17252 3.24334,-2.17253 3.62886,-1.7761 3.62886,-1.776101 2.85344,-0.945221 2.85343,-0.945221 2.77812,-0.568356 2.77813,-0.568356 3.70416,0.112912 3.70417,0.112913 1.78371,0.471053 1.7837,0.471053 1.78817,-1.443478 1.78817,-1.443478 3.04271,-1.982627 3.0427,-1.982627 3.439585,-1.876519 3.43958,-1.876518 4.36563,-2.038107 4.36562,-2.038107 12.81124,-5.125289 12.81125,-5.12529 0.0768,0.07677 0.0768,0.07677 0.41171,4.883165 0.41172,4.883166 0.39865,5.666926 0.39865,5.666925 0.52362,7.033072 0.52363,7.03307 0.53462,7.27604 0.53463,7.27605 0.77314,9.92186 0.77313,9.92187 0.0806,1.58534 0.0807,1.58533 -1.5875,0.20189 -1.5875,0.20188 -2.51354,0.42837 -2.51354,0.42837 -3.57188,1.00764 -3.57187,1.00764 -3.57188,1.3153 -3.57187,1.3153 -3.04271,1.31153 -3.04271,1.31154 -3.0427,1.5254 -3.04271,1.52541 -2.11667,1.211432 -2.11667,1.21142 -2.77812,1.74032 -2.77813,1.74033 -2.562625,1.91825 -2.56263,1.91825 -2.65805,2.52736 -2.65804,2.52736 -1.79606,-0.4085 -1.79606,-0.40851 -3.03669,-0.28637 -3.03669,-0.28637 -3.04345,0.29772 -3.04344,0.29771 -3.43959,0.88203 -3.43958,0.88204 -2.64583,0.95788 -2.64584,0.95789 -3.70416,1.81806 -3.70417,1.81805 -3.70417,2.29091 -3.70416,2.29091 -3.04122,2.29732 -3.04122,2.29732 -0.23,0.0982 -0.23,0.0982 z m 10.65339,-12.7728 2.90855,-1.56207 2.62592,-1.1205 2.62593,-1.12049 2.8478,-1.01858 2.8478,-1.01858 3.10533,-0.78089 3.10532,-0.78089 3.04271,-0.44555 3.04271,-0.44556 4.29116,0.12791 4.29115,0.12791 -0.12017,-2.80708 -0.12018,-2.80709 -0.1361,-10.032132 -0.1361,-10.03213 -0.1486,-0.14861 -0.1486,-0.1486 -2.0342,-0.17877 -2.03419,-0.17877 -2.73343,0.24658 -2.73342,0.24658 -2.29366,0.52858 -2.29366,0.52857 -2.51354,0.82041 -2.51354,0.82042 -2.51355,1.05703 -2.51354,1.05702 -2.11666,1.05778 -2.11667,1.05779 -2.64583,1.55513 -2.64584,1.55514 -0.65201,0.50769 -0.65201,0.50769 -0.98563,11.597762 -0.98562,11.59776 -0.016,0.59531 -0.016,0.59531 h 0.0879 0.0879 z m -0.70244,-2.49144 6.9e-4,-0.3121 0.78526,-9.39271 0.78526,-9.392712 0.7354,-0.60756 0.7354,-0.60755 5.02708,-2.5004 5.02709,-2.5004 3.68785,-1.20743 3.68786,-1.20743 2.13298,-0.53456 2.13297,-0.53456 4.00123,-0.14538 4.00123,-0.14539 0.15927,4.06929 0.15926,4.06929 0.0728,6.21771 0.0728,6.217702 -1.85209,-0.0816 -1.85208,-0.0816 -3.175,0.29767 -3.175,0.29766 -3.04271,0.65065 -3.04271,0.65065 -3.85414,1.301 -3.85415,1.301 -3.54359,1.611 -3.5436,1.611 -1.13507,0.6344 -1.13507,0.6344 z m 49.612985,-13.745262 3.43527,-2.25873 2.76875,-1.50648 2.76876,-1.50647 2.39062,-1.2019 2.39062,-1.2019 3.96875,-1.7067 3.96875,-1.70671 5.02708,-1.67111 5.02708,-1.67112 3.14679,-0.73226 3.14679,-0.73227 -0.18022,-3.59184 -0.18022,-3.59185 -0.64745,-8.20208 -0.64745,-8.20208 -1.18141,-16.66874 -1.18141,-16.668753 -0.15208,-1.83659 -0.15207,-1.836589 -0.0918,-0.09176 -0.0917,-0.09176 -7.90534,3.152601 -7.90533,3.1526 -4.10104,1.76696 -4.10105,1.76696 -4.6302,2.431419 -4.63021,2.431419 -3.836455,2.571692 -3.83646,2.571691 -0.60683,0.524083 -0.60684,0.524087 0.28012,15.0295 0.28012,15.0295 0.26057,12.48999 0.26057,12.49 v 3.066162 3.06617 l 2.05483,-1.56421 2.05483,-1.56421 z m -5.542575,-29.8937 -0.16919,-3.76896 -0.18898,-10.67383 -0.18898,-10.67382 1.71979,-1.261148 1.71979,-1.261144 3.208925,-1.880611 3.20892,-1.88061 3.17894,-1.596398 3.17895,-1.596398 h 0.26575 0.26576 l 0.15615,3.505729 0.15615,3.505729 0.26352,6.482291 0.26353,6.48229 0.1621,4.36562 0.1621,4.36563 -2.5928,1.18716 -2.5928,1.18715 -4.51031,2.65686 -4.510305,2.65686 -1.19062,0.80731 -1.19063,0.8073 -0.30329,0.17598 -0.30329,0.17597 z m 20.121015,-11.11115 -0.17588,-3.77031 -0.38538,-8.46667 -0.38537,-8.466664 -0.1272,-2.026532 -0.1272,-2.026533 0.34466,-0.286044 0.34466,-0.286045 6.32594,-2.539805 6.32593,-2.539805 2.10116,-0.770014 2.10117,-0.770013 h 0.0584 0.0584 l 0.15537,0.992188 0.15536,0.992187 0.52561,7.408333 0.52562,7.408337 0.4058,6.05817 0.40581,6.05817 -0.0716,0.0716 -0.0716,0.0716 -5.4237,1.97861 -5.4237,1.9786 -3.43958,1.34995 -3.43958,1.34995 -0.2936,5.3e-4 -0.29359,5.2e-4 z m -59.826495,26.71567 3.175,-1.74261 3.175,-1.36174 3.175,-1.36173 3.43958,-1.15032 3.43958,-1.15031 3.04271,-0.60022 3.04271,-0.60022 4.05141,-0.0146 4.05141,-0.0146 -0.14417,-2.51354 -0.14417,-2.51354 -0.16265,-13.89062 -0.16264,-13.89062 -0.2876,-0.17803 -0.28761,-0.17803 -2.23963,-0.31791 -2.23963,-0.31792 -2.01111,0.17985 -2.01111,0.17986 -2.26772,0.49245 -2.26772,0.49246 -2.62707,0.97967 -2.62707,0.97968 -2.64584,1.31113 -2.64583,1.31113 -2.91042,1.96397 -2.91041,1.96396 -0.85813,0.72824 -0.85814,0.72824 -0.66823,8.46666 -0.66824,8.46666 -0.51959,6.48229 -0.5196,6.48229 -0.15476,1.56352 -0.15475,1.56352 0.61322,-0.39818 0.61322,-0.39817 z m -19.97604,42.223832 -1.98438,-1.58517 -2.778116,-2.89121 -2.77813,-2.89121 -1.55541,-2.34748 -1.55542,-2.34747 -1.26888,-2.67468 -1.26888,-2.67469 -0.94017,-2.86347 -0.94018,-2.86347 -0.55278,-2.82507 -0.55278,-2.825072 -0.2139895,-3.57188 -0.21398,-3.57187 0.23753,-2.77813 0.2375295,-2.77812 0.25788,-1.61608 0.25789,-1.61607 0.63567,-2.48497 0.63567,-2.48496 0.5715,-1.5123 0.5715,-1.5123 0.97657,-0.1682 0.97656,-0.1682 1.65365,-0.32497 1.65365,-0.32496 v 0.37798 0.37797 l -0.36239,0.83374 -0.36239,0.83374 -0.95682,3.97113 -0.95681,3.97113 -0.31793,3.37345 -0.31792,3.37345 0.30428,3.76792 0.30429,3.76791 0.78919,3.175002 0.7892,3.175 0.70261,1.71403 0.70261,1.71402 0.80132,1.59327 0.80131,1.59327 1.617546,2.38125 1.61755,2.38125 2.74465,2.75817 2.74465,2.75817 -0.19107,2.53349 -0.19108,2.5335 -0.17046,1.16416 -0.17047,1.16416 z m 61.25103,-16.15593 0.26459,-0.27711 2.656795,-1.46233 2.65681,-1.46233 3.51089,-1.6082 3.5109,-1.60821 4.28334,-1.68759 4.28334,-1.68759 3.70417,-1.19615 3.70416,-1.196162 2.93287,-0.82195 2.93288,-0.82196 4.21087,-0.93114 4.21088,-0.93115 4.10104,-0.54242 4.10105,-0.54242 0.85989,-0.12298 0.8599,-0.12298 v -1.3621 -1.36211 l -0.26722,-3.58684 -0.26722,-3.58684 -0.66477,-9.65729 -0.66477,-9.65728 -0.51524,-7.27605 -0.51524,-7.27604 -0.81334,-11.219075 -0.81335,-11.219081 0.0778,-0.346128 0.0778,-0.346128 1.08453,0.488035 1.08454,0.488035 0.18578,2.742799 0.18578,2.742799 0.38829,3.96875 0.38828,3.96875 0.26568,2.910414 0.26568,2.91042 0.79344,8.46666 0.79343,8.46667 0.66405,7.54061 0.66405,7.54063 0.78542,8.51477 0.78543,8.51478 v 0.91862 0.91861 l -2.84427,0.16524 -2.84427,0.16524 -3.96875,0.41004 -3.96875,0.41004 -5.29167,0.882582 -5.29167,0.88259 -3.175,0.71019 -3.175,0.71019 -4.36562,1.15655 -4.36563,1.15655 -5.42395,1.83959 -5.42396,1.83959 -3.04271,1.22762 -3.042705,1.22763 -0.39687,0.15487 -0.39688,0.15488 z m -66.623956,-30.483122 -0.89341,-0.78443 -0.86104,-1.61546 -0.86103,-1.61546 0.0916,-0.0748 0.0916,-0.0748 2.51354,-0.70052 2.513536,-0.70051 3.43959,-0.76659 3.43958,-0.76659 0.92604,-0.15236 0.92604,-0.15236 -0.92604,0.81179 -0.92604,0.8118 -4.07738,3.28233 -4.07739,3.28232 h -0.21289 -0.21288 z m 2.106636,-8.69525 -0.43788,-0.48386 v -0.14652 -0.14652 l 1.91823,-0.17975 1.91823,-0.17975 0.26458,0.008 0.26458,0.008 0.0801,0.63181 0.0801,0.63182 -1.24147,0.17016 -1.24147,0.17016 h -0.58353 -0.58352 z m -12.608706,-2.07086 v -0.17347 l 0.60514,-0.81872 0.60515,-0.81872 0.44535,-0.70633 0.44534,-0.70632 -3.8947595,-2.31341 -3.89477,-2.31341 -2.38124,-1.41102 L -4.9542758e-7,59.136398 0.29749951,59.135398 l 0.29751,-0.001 5.25873999,1.29457 5.2587395,1.29456 7.27605,1.7428 7.276036,1.7428 3.50573,0.84695 3.50573,0.84693 v 0.21674 0.21673 h -0.86416 -0.86416 l -7.92898,1.32291 -7.928976,1.32292 h -2.31936 -2.31936 z m 23.944786,-5.03141 -0.52917,-0.11641 -4.36562,-1.05373 -4.36563,-1.05374 -1.77754,-0.52765 -1.777546,-0.52766 0.851496,-1.12251 0.85151,-1.12251 0.39801,-0.60783 0.39801,-0.60783 4.89365,2.9426 4.89366,2.94259 0.66146,0.51036 0.66146,0.51035 -0.13229,-0.0248 -0.1323,-0.0248 z m -0.66146,-6.8701 -2.24896,-1.98134 -4.70637,-3.75361 -4.70638,-3.75361 -1.600776,-0.56569 -1.60077,-0.5657 -0.20532,-0.22805 -0.20531,-0.22806 -0.3327,-1.32292 -0.33271,-1.32291 -0.13586,-3.241147 -0.13587,-3.241145 0.23416,0.0042 0.23416,0.0042 1.14464,2.067046 1.14464,2.067045 1.23661,1.604331 1.236606,1.60433 4.89479,5.26781 4.89479,5.26781 1.94627,2.16906 1.94626,2.16906 -0.22647,-0.0197 -0.22647,-0.0197 z m -17.961256,0.59798 -0.59099,-0.62909 -0.79648,-1.9506 -0.79647,-1.9506 -0.26265,-2.33174 -0.26265,-2.33175 0.094,-0.282 0.094,-0.28201 0.98948,1.68771 0.98949,1.68771 1.97135,1.28598 1.97135,1.28597 0.26178,0.94811 0.26179,0.9481 -0.10801,0.10801 -0.10801,0.10801 -0.60515,-0.42386 -0.60515,-0.42387 h -0.29553 -0.29553 l -0.29065,0.6379 -0.29064,0.63789 -0.17815,0.94961 -0.17815,0.9496 h -0.18901 -0.18902 z m 17.227916,-9.39596 -0.60106,-0.69058 -0.9656,-1.14086 -0.9656,-1.14087 2.88957,-2.91666 2.88957,-2.91667 2.24896,-1.918125 2.24896,-1.918124 2.61436,-1.934442 2.61437,-1.934441 3.47105,-2.10463 3.47105,-2.10463 2.51354,-1.263826 2.51354,-1.263827 2.6183,-1.112892 2.6183,-1.112891 3.59941,-1.266794 3.59941,-1.266794 3.71123,-0.954384 3.71124,-0.954385 3.16793,-0.545672 3.16793,-0.545671 3.57188,-0.383143 3.571865,-0.383142 5.42396,0.0024 5.42396,0.0024 3.77157,0.383727 3.77157,0.383727 2.44319,0.423901 2.4432,0.4239 0.11318,0.113187 0.11319,0.113186 -0.11024,0.08202 -0.11025,0.08202 -3.30729,0.608116 -3.30729,0.608117 -1.05833,0.69113 -1.05834,0.69113 -8.73125,0.01679 -8.731245,0.01679 -3.0427,0.461965 -3.04271,0.461964 -2.11667,0.410886 -2.11666,0.410885 -3.04271,0.763457 -3.04271,0.763457 -3.43958,1.16175 -3.43959,1.161751 -2.38125,0.98785 -2.38125,0.98785 -2.83347,1.447734 -2.83348,1.447733 -3.47172,2.231388 -3.47172,2.231389 -2.95522,2.308071 -2.95522,2.308072 -4.10104,4.13765 -4.10104,4.13766 z m 122.315395,-5.24607 -0.46192,-2.323674 -0.74732,-3.073523 -0.74733,-3.073523 -0.81482,-2.112918 -0.81483,-2.112917 -0.79735,-1.203773 -0.79734,-1.203773 -1.38286,-1.044069 -1.38286,-1.044068 -0.88477,-0.457532 -0.88477,-0.457531 -2.36033,-0.91156 -2.36032,-0.911559 -3.14525,-0.787772 -3.14525,-0.787773 -0.88414,-0.01791 -0.88415,-0.01791 0.52917,-0.209104 0.52917,-0.209103 3.03934,-0.731382 3.03935,-0.731382 2.95223,-0.994399 2.95224,-0.9944 1.35473,-0.737335 1.35472,-0.737335 1.02529,-0.877606 1.02529,-0.877606 1.1931,-2.319246 1.19311,-2.319245 0.83331,-2.6458336 0.83331,-2.645833 0.61703,-2.645833 0.61703,-2.6458329709809 0.14476,0.3968750009809 0.14477,0.396875 0.93459,3.49935497 0.93459,3.499355 1.06434,2.7183526 1.06433,2.718353 0.94966,1.407324 0.94965,1.407325 1.59343,1.029882 1.59343,1.029881 2.68672,1.043605 2.68673,1.043605 3.57187,0.85954 3.57188,0.85954 0.39687,0.122732 0.39688,0.122732 -2.51355,0.592833 -2.51354,0.592833 -2.11666,0.598658 -2.11667,0.598659 -1.92815,0.742246 -1.92816,0.742246 -1.15749,0.678334 -1.15749,0.678333 -0.81915,0.689271 -0.81915,0.68927 -0.93335,1.592518 -0.93335,1.592518 -1.02441,2.970902 -1.02441,2.970902 -0.85088,4.076321 -0.85088,4.076315 -0.0641,0.0747 -0.064,0.0747 z m -4.62606,-1.783682 -0.61124,-0.650632 -2.21004,-1.53218 -2.21004,-1.53218 -0.003,-0.198437 -0.003,-0.198438 0.8599,-0.0023 0.85989,-0.0023 1.35651,-0.162991 1.35651,-0.162991 0.58221,1.818937 0.58222,1.818936 0.23032,0.727604 0.23033,0.727604 h -0.2047 -0.2047 z m -15.41047,-22.677579 -0.0912,-0.881162 0.35591,-0.750272 0.35591,-0.750272 0.19292,-1.630978 0.19291,-1.630978 0.1805,1.455209 0.1805,1.455208 0.17141,1.653646 0.17141,1.653645 h -0.40941 -0.40941 l -0.40016,0.153558 -0.40017,0.153558 z"
     id="path14" /></svg>
