<?xml version="1.0" encoding="UTF-8" standalone="no"?>
<!-- Created with Inkscape (http://www.inkscape.org/) -->

<svg
   width="174.77444mm"
   height="155.63126mm"
   viewBox="0 0 174.77444 155.63126"
   version="1.1"
   id="svg1"
   xml:space="preserve"
   xmlns="http://www.w3.org/2000/svg"
   xmlns:svg="http://www.w3.org/2000/svg"><defs
     id="defs1" /><path
     style="fill:#000000"
     d="m 70.376204,155.2687 c -5.39469,-0.47591 -7.70948,-0.82005 -12.69063,-1.88671 -22.14909,-4.74301 -40.06491,-15.80002 -49.92474,-30.8118 -3.00123,-4.56944 -5.55504,-10.27702 -6.6161,-14.78657 -1.59038005,-6.75911 -1.52135005,-14.04153 0.19287,-20.348245 0.65068,-2.393914 2.89436,-8.226759 3.16453,-8.226759 0.10769,0 -0.0822,0.956059 -0.42187,2.124575 -1.2426,4.274092 -1.53387,9.958596 -0.74624,14.563696 2.70006,15.786513 13.91349,29.257603 31.78557,38.185093 22.24075,11.10974 50.25829,11.05756 74.811546,-0.13933 11.54548,-5.26503 22.89527,-13.39089 29.08858,-20.82594 l 1.55509,-1.86688 0.95018,1.06144 c 0.84179,0.94037 1.12016,1.07851 2.44055,1.21113 2.33241,0.23426 3.86394,-0.28126 7.04111,-2.3701 3.60929,-2.37293 9.82727,-8.47826 11.9905,-11.773269 0.78964,-1.202782 1.46854,-2.088395 1.50866,-1.968029 0.14025,0.420735 -1.4697,6.294288 -2.44427,8.917408 -1.86777,5.02724 -5.43386,11.21444 -9.37756,16.27017 -10.21892,13.10041 -26.05505,23.47679 -43.8109,28.7064 -12.398456,3.65171 -26.073356,5.05971 -38.496876,3.96372 z m -13.49374,-18.6738 c -13.12944,-3.47603 -24.04451,-10.23472 -31.71695,-19.63938 -8.67888,-10.63831 -13.05585,-22.942311 -13.05144,-36.688571 0.002,-7.041162 0.94165,-12.931811 3.06762,-19.236035 3.24109,-9.610946 7.54455,-16.821528 14.62404,-24.50301 19.02697,-20.644903 49.71922,-28.1545335 77.425066,-18.943973 13.13936,4.36806 24.88931,12.109032 33.4165,22.015089 9.47857,11.011283 15.39636,24.261146 16.49746,36.937615 0.12979,1.494242 0.27551,2.755456 0.32382,2.802698 0.0483,0.04724 2.58814,0.342641 5.64408,0.656442 3.05594,0.313801 6.15156,0.653454 6.87916,0.754785 l 1.32292,0.184238 -12.40795,12.498367 c -6.82437,6.874105 -12.48394,12.498365 -12.57681,12.498365 -0.0929,0 -0.39367,-0.38695 -0.66845,-0.85989 -0.79172,-1.36269 -7.43461,-12.041731 -12.8787,-20.703649 l -4.98878,-7.9375 0.88792,-0.07994 c 0.48836,-0.04397 3.55073,0.220726 6.80527,0.58821 3.25453,0.367483 6.00907,0.576413 6.1212,0.464288 0.55666,-0.55666 -0.92223,-8.474656 -2.47957,-13.27568 -4.06905,-12.544166 -12.41278,-23.293522 -24.17038,-31.139078 -7.17534,-4.787932 -15.709646,-8.05847 -24.870826,-9.53108 -4.51447,-0.72567 -14.70778,-0.65167 -19.31458,0.14022 -13.77124,2.36722 -25.7636,8.710434 -35.16909,18.602252 -8.17795,8.600813 -13.59242,19.437976 -15.38395,30.791227 -0.58222,3.689663 -0.77718,10.714505 -0.40345,14.537069 1.05341,10.774316 5.39861,21.366111 12.42469,30.286171 3.4605,4.39333 10.24276,10.32467 15.39477,13.46331 2.46384,1.50098 7.57638,4.02987 9.97401,4.93357 2.88204,1.0863 2.56244,1.25491 -0.7276,0.38387 z m 25.11506,-6.83051 -0.7734,-0.7734 v -5.06058 c 0,-6.46458 0.16969,-6.88638 2.77045,-6.88638 1.8019,0 2.3231,0.5996 2.55763,2.94236 0.26532,2.65031 0.25474,6.98707 -0.0205,8.41291 -0.28522,1.47742 -1.07921,2.1247 -2.61594,2.1326 -0.91704,0.005 -1.29872,-0.148 -1.91823,-0.76751 z m -27.16559,-8.21954 c -1.28325,-0.78242 -1.14747,-1.55251 0.79375,-4.5019 1.34615,-2.04526 1.78905,-2.52804 2.3818,-2.59623 0.90443,-0.10405 2.31456,0.85032 2.31456,1.56649 0,0.52496 -3.01068,5.49435 -3.54747,5.85542 -0.47822,0.32167 -1.03669,0.22859 -1.94264,-0.32378 z m 52.323946,-0.20134 c -1.51694,-1.94723 -2.94638,-4.57612 -2.86532,-5.26962 0.16831,-1.43994 2.8422,-2.19737 3.32408,-0.94161 0.0958,0.24955 0.74551,1.37501 1.44388,2.50102 1.48543,2.39501 1.57925,3.12308 0.50132,3.89063 -1.03897,0.73982 -1.72732,0.68816 -2.40396,-0.18042 z m 15.44333,-15.18164 c -3.17556,-2.06756 -4.06884,-2.84127 -4.06884,-3.52418 0,-0.84084 0.97825,-1.99782 1.68919,-1.99782 0.71847,0 6.178,3.343 6.52822,3.99739 0.33868,0.63284 -0.0685,1.61873 -0.95729,2.31786 -0.3943,0.31015 -0.80463,0.56391 -0.91186,0.56391 -0.10722,0 -1.13296,-0.61072 -2.27942,-1.35716 z m -84.346356,0.27853 c -0.37674,-0.44773 -0.68498,-1.04149 -0.68498,-1.31947 0,-0.61207 5.63588,-4.48106 6.52747,-4.48106 0.7639,0 1.72131,1.24157 1.62106,2.1022 -0.0608,0.52231 -0.70279,1.11188 -2.82461,2.59415 -1.51023,1.05503 -3.01769,1.91823 -3.34991,1.91823 -0.3497,0 -0.89248,-0.34277 -1.28903,-0.81405 z m 41.98579,-21.567794 c -0.67971,-0.250504 -1.57694,-0.922649 -2.28938,-1.715054 l -1.1716,-1.303103 -11.07208,-0.02804 c -6.08965,-0.01542 -12.28319,-0.104717 -13.76344,-0.198437 -2.35448,-0.149072 -2.77673,-0.250689 -3.37344,-0.811834 -0.74472,-0.700343 -0.93242,-2.232869 -0.3962,-3.234818 0.66262,-1.238106 1.20298,-1.28291 15.51448,-1.286399 l 13.4361,-0.0033 0.58011,-0.895871 c 0.90076,-1.39104 3.05325,-2.326002 5.17767,-2.248985 l 1.7055,0.06183 4.99961,-4.887672 c 6.01507,-5.880399 12.972676,-12.425707 15.789826,-14.854133 1.98058,-1.707286 2.11231,-1.774867 3.45961,-1.774867 1.11468,0 1.51188,0.121541 1.94551,0.595312 0.80064,0.874743 0.95365,1.651003 0.49881,2.53056 -0.2193,0.424088 -5.36054,5.665008 -11.424966,11.646489 l -11.02624,10.87542 -0.0448,1.794338 c -0.0654,2.618796 -1.08038,4.34758 -3.18615,5.427114 -1.37742,0.706138 -3.89146,0.852237 -5.35889,0.311422 z m -51.54633,-3.667588 c -0.52831,-0.528306 -0.64944,-0.914487 -0.64944,-2.070546 0,-1.18507 0.1133,-1.527656 0.68211,-2.062548 0.66699,-0.627211 0.79715,-0.643259 5.87056,-0.723781 2.85365,-0.04529 5.46044,-0.01409 5.79286,0.06935 1.14804,0.28814 1.67739,1.170146 1.67739,2.794894 0,1.216938 -0.11272,1.597387 -0.61237,2.066776 -0.58994,0.554226 -0.82286,0.575287 -6.36202,0.575287 h -5.74966 z M 119.44438,58.450852 c -1.03389,-1.033891 -0.88253,-2.108175 0.42142,-2.991103 0.58896,-0.3988 1.97095,-1.354139 3.07108,-2.122976 2.17028,-1.516718 2.60853,-1.566819 3.52409,-0.402877 0.98659,1.254256 0.74551,1.738495 -1.77904,3.573344 -4.07313,2.960361 -4.18083,3.000328 -5.23755,1.943612 z M 40.875164,56.645325 c -2.6025,-1.71815 -2.91915,-2.011368 -2.99299,-2.771535 -0.0609,-0.626616 0.0925,-1.02516 0.58328,-1.515973 0.36623,-0.366226 0.84314,-0.665866 1.05981,-0.665866 0.21666,0 1.68059,0.863203 3.25317,1.918229 3.00939,2.018965 3.38499,2.540741 2.72145,3.780574 -0.24516,0.458081 -1.2818,1.193567 -1.6606,1.178182 -0.0295,-0.0012 -1.36339,-0.866824 -2.96412,-1.923611 z M 150.73623,45.606535 c -0.0829,-0.363803 -0.33537,-1.857873 -0.56103,-3.320157 -0.90457,-5.86187 -3.14378,-11.364488 -5.46758,-13.436006 -2.93417,-2.615621 -7.15833,-4.310991 -13.02963,-5.229431 -5.16051,-0.80726 -5.44317,-0.90298 -3.35804,-1.13709 8.79219,-0.98718 15.07789,-3.36662 17.58838,-6.65805 1.62763,-2.13393 3.30581,-6.8601505 4.24877,-11.9657305 0.35884,-1.94288 0.66215,-3.67340993 0.67403,-3.84562993 0.0119,-0.17221 0.31133,1.21593993 0.66544,3.08477993 0.76796,4.05297 2.64211,9.7296905 3.81635,11.5596005 2.53882,3.95639 7.7907,6.42606 16.06171,7.55291 1.9247,0.26222 3.45396,0.52227 3.39835,0.57788 -0.0556,0.0556 -1.74943,0.34174 -3.76405,0.63583 -4.23744,0.61858 -9.11071,2.01341 -11.20356,3.20669 -0.80037,0.45634 -2.03,1.403502 -2.73253,2.104798 -2.3168,2.312755 -4.59569,8.175329 -5.69733,14.656748 -0.32647,1.92078 -0.53855,2.654881 -0.63928,2.212858 z M 57.514434,44.874879 c -0.54574,-0.360755 -3.54239,-5.268593 -3.54239,-5.801638 0,-0.6159 0.63771,-1.257384 1.62203,-1.631621 1.00672,-0.382754 1.50531,0.07291 3.26847,2.98713 1.69012,2.793486 1.75453,3.410205 0.43738,4.188263 -0.83896,0.495585 -1.32063,0.56515 -1.78549,0.257866 z m 48.004106,-0.334995 c -1.5411,-0.81402 -1.5067,-1.233889 0.33966,-4.146511 0.90373,-1.425626 1.77319,-2.67952 1.93214,-2.786432 1.09786,-0.738466 3.27783,0.545799 2.91985,1.720145 -0.29208,0.958165 -3.07274,5.226581 -3.58262,5.499462 -0.57348,0.306917 -0.44036,0.330633 -1.60903,-0.286664 z M 82.788694,41.827808 c -0.91428,-0.701966 -1.0354,-1.436058 -1.0354,-6.27544 0,-6.013055 0.23776,-6.589679 2.724,-6.606168 0.99177,-0.0066 1.40677,0.129554 1.9007,0.623482 0.87097,0.870968 0.99173,1.80847 0.88872,6.899402 l -0.0895,4.421622 -0.74236,0.638123 c -0.5613,0.482486 -1.04529,0.63607 -1.98438,0.629708 -0.68311,-0.0046 -1.43093,-0.153456 -1.66182,-0.330729 z"
     id="path19" /></svg>
