<?xml version="1.0" encoding="UTF-8" standalone="no"?>
<!-- Created with Inkscape (http://www.inkscape.org/) -->

<svg
   width="93.546303mm"
   height="103.13977mm"
   viewBox="0 0 93.546303 103.13977"
   version="1.1"
   id="svg1"
   xml:space="preserve"
   xmlns="http://www.w3.org/2000/svg"
   xmlns:svg="http://www.w3.org/2000/svg"><defs
     id="defs1" /><g
     id="layer1"
     transform="translate(161.4031,99.983706)"><path
       style="fill:#000000"
       d="m -154.15117,2.6666165 c -2.87332,-0.9193 -5.02766,-2.87422003 -6.43104,-5.83572 l -0.82091,-1.73232 v -28.7209805 -28.72097 l 0.97659,-1.97069 c 0.5507,-1.11126 1.47378,-2.44437 2.11667,-3.05685 1.5145,-1.44288 35.93804,-29.568305 37.72185,-30.820279 1.84872,-1.297534 4.26167,-1.942067 6.60059,-1.763116 3.60545,0.275856 3.20119,-0.0088 23.256436,16.374015 10.17084,8.30838 18.99138,15.58683 19.60119,16.17435 1.34322,1.2941 2.56683,3.53762 2.96353,5.43369 0.41518,1.98441 0.41132,54.7689805 -0.004,56.7270805 -0.82406,3.88378 -3.57093,6.86605 -7.35731,7.9878 -1.29243,0.38289 -5.24717,0.42431 -39.290616,0.41151 -35.61356,-0.0134 -37.94108,-0.0422 -39.33284,-0.48752 z m 79.016016,-4.66462 c 0.80271,-0.49629 1.59957,-1.29317 2.09587,-2.09592 l 0.80074,-1.29517 v -28.1988705 -28.19887 l -0.65805,-1.14942 c -0.5131,-0.89624 -4.76092,-4.50965 -19.28425,-16.40417 -10.244406,-8.39011 -19.175626,-15.5211 -19.847156,-15.84665 -1.65249,-0.80112 -3.77578,-0.80192 -5.3433,-0.002 -0.64312,0.32819 -9.56546,7.46195 -19.8274,15.8528 -14.54714,11.89473 -18.80272,15.50875 -19.31458,16.40278 l -0.65651,1.14668 -0.0709,27.60291 c -0.0464,18.07016 0.0218,27.9473805 0.19766,28.6003705 0.42687,1.58528 1.65594,3.04782 3.21359,3.82403 l 1.4044,0.69984 37.99739,-0.0688 37.997398,-0.0688 z"
       id="path1" /></g></svg>
