<?xml version="1.0" encoding="UTF-8" standalone="no"?>
<!-- Created with Inkscape (http://www.inkscape.org/) -->

<svg
   width="170.23164mm"
   height="179.61055mm"
   viewBox="0 0 170.23164 179.61055"
   version="1.1"
   id="svg1"
   xml:space="preserve"
   xmlns="http://www.w3.org/2000/svg"
   xmlns:svg="http://www.w3.org/2000/svg"><defs
     id="defs1" /><path
     style="fill:#000000"
     d="m 68.990386,178.19155 c 2.44066,-3.7572 4.47897,-8.84407 5.55175,-13.85511 0.61525,-2.87391 0.93525,-8.9773 0.57348,-10.93799 l -0.21969,-1.19063 -1.71343,-0.0677 c -2.7925,-0.11041 -8.84845,-0.83235 -12.95822,-1.54477 -13.36082,-2.31607 -24.94145,-7.26629 -35.32539,-15.10004 l -2.74765,-2.07286 0.97871,-0.18319 c 0.53829,-0.10075 1.97472,-0.19005 3.19208,-0.19844 2.18578,-0.0151 2.23531,-6.7e-4 3.97218,1.154 2.39201,1.59021 6.47131,3.61283 10.48319,5.19784 12.33162,4.87197 26.86648,6.53926 40.55193,4.65169 1.34857,-0.186 2.49086,-0.29925 2.53843,-0.25168 0.35907,0.35906 -1.6155,10.42931 -2.8607,14.58949 -1.5386,5.14045 -3.87859,10.49913 -6.19192,14.17977 -0.8754,1.39281 -1.51014,2.53218 -1.41052,2.53192 0.40547,-0.001 4.52528,-3.28497 6.9721,-5.55748 2.5598,-2.37746 7.44403,-7.85705 9.06145,-10.16602 5.19256,-7.41267 7.99977,-12.03049 11.048214,-18.17411 0.74248,-1.49636 1.18935,-2.08729 1.73416,-2.29324 0.40367,-0.1526 2.22223,-0.84006 4.04124,-1.5277 15.93387,-6.02348 31.42249,-17.30529 39.20834,-28.5591 6.97494,-10.081725 9.33146,-18.922455 7.48209,-28.069875 -0.4136,-2.04576 -0.4081,-2.31494 0.12411,-6.06889 0.3063,-2.16049 0.59699,-3.96826 0.64598,-4.01725 0.14829,-0.14829 0.56757,0.48894 1.69246,2.57226 4.52981,8.38937 5.76233,18.6653 3.35162,27.943645 -0.6274,2.4147 -2.27012,6.81379 -3.3332,8.92604 -1.10675,2.19901 -4.21687,6.97236 -5.96799,9.15954 -2.0167,2.5189 -6.73444,7.34316 -9.33675,9.54758 -7.29833,6.1824 -15.97225,11.34016 -26.0316,15.47912 l -3.40973,1.40294 -2.38243,3.07112 c -9.377984,12.08885 -22.219244,22.45361 -36.108044,29.1444 -4.62791,2.22945 -4.45982,2.21452 -3.20625,0.28476 z m -9.94538,-38.07017 c -0.0651,-0.19193 -0.21627,-3.86131 -0.33598,-8.15418 l -0.21764,-7.80521 2.78468,-3.26499 2.78467,-3.26499 0.16718,3.52957 c 0.0919,1.94127 0.18124,5.10716 0.19844,7.03531 0.0172,1.92815 0.11079,3.50573 0.20799,3.50573 0.1544,0 3.43379,-0.89279 12.39097,-3.37334 1.30969,-0.3627 3.39328,-0.92951 4.63021,-1.25958 1.23692,-0.33007 4.21349,-1.14896 6.61458,-1.81976 4.81696,-1.34572 7.32112,-2.03257 16.139584,-4.4268 3.27422,-0.88895 6.03004,-1.692 6.12403,-1.78455 0.094,-0.0925 0.36533,-7.60967 0.60295,-16.70472 0.62662,-23.984515 1.67373,-61.292915 2.31118,-82.347645 0.17506,-5.7823 0.24728,-10.5842797 0.16049,-10.6710697 -0.0868,-0.0868 -5.49597,1.4169697 -12.02041,3.3416797 -6.524444,1.92471 -12.576994,3.70821 -13.450114,3.96334 -0.87313,0.25513 -3.79016,1.12245 -6.48229,1.92737 -2.69214,0.80492 -8.16721,2.43254 -12.16684,3.61692 -3.99963,1.18439 -7.32317,2.20455 -7.38565,2.26703 -0.13509,0.13509 0.37408,25.3911 0.89844,44.56487 0.20496,7.49432 0.45401,17.79323 0.55345,22.88646 l 0.18081,9.260415 -0.76354,0.31274 c -0.41995,0.17201 -1.75171,0.85098 -2.95947,1.50883 -1.41279,0.76952 -2.22895,1.0826 -2.28851,0.87788 -0.0509,-0.17501 -0.22879,-6.211795 -0.39526,-13.415075 -0.16648,-7.20328 -0.46924,-19.88344 -0.67281,-28.17812 -0.98621,-40.18398 -1.02405,-42.75078 -0.6356,-43.11286 0.202,-0.18828 2.09368,-0.84205 4.20373,-1.45283 2.11005,-0.61077 4.13411,-1.21837 4.49792,-1.35021 0.3638,-0.13183 1.73302,-0.54897 3.0427,-0.92695 7.87695,-2.27337 10.81417,-3.13818 12.7,-3.73929 1.16417,-0.37108 2.47386,-0.76942 2.91042,-0.8852 1.11783,-0.29645 23.918904,-7.0884797 27.913544,-8.3149397 6.56381,-2.01527 8.51675,-2.56521 8.64699,-2.43497 0.14566,0.14566 -0.23446,14.8906897 -0.71381,27.6891197 -0.25741,6.87278 -0.83317,28.47289 -1.31177,49.2125 -0.67488,29.245025 -1.08869,44.956045 -1.21653,46.187445 l -0.13917,1.34056 -3.75734,1.10118 c -4.23803,1.24205 -21.276034,6.06519 -27.305244,7.72959 -2.18282,0.60258 -6.70719,1.84765 -10.05417,2.76683 -3.34698,0.91917 -7.33557,2.03613 -8.86354,2.48213 -1.52797,0.44599 -3.61156,1.00023 -4.63021,1.23163 -1.01865,0.2314 -2.06103,0.48292 -2.31641,0.55893 -0.25538,0.076 -0.51757,-0.0188 -0.58265,-0.21078 z m -19.06136,-4.26849 c -2.48324,-1.0615 -7.8052,-3.80294 -7.8052,-4.0206 0,-0.0984 5.12936,-3.68009 12.43541,-8.68341 4.35708,-2.9838 14.75066,-10.35568 20.18679,-14.31793 2.00768,-1.46334 4.22796,-3.07734 4.93395,-3.58666 0.706,-0.50933 1.68112,-1.22209 2.16693,-1.58393 l 0.88331,-0.65788 -0.65537,0.92246 c -2.37999,3.34999 -7.1652,8.84648 -17.84858,20.50164 -3.63915,3.97017 -6.67059,7.39168 -8.96655,10.12031 -1.13262,1.34607 -2.20006,2.44506 -2.37208,2.4422 -0.17203,-0.003 -1.5034,-0.51415 -2.95861,-1.1362 z m 14.55209,-6.79611 c 0.22575,-0.43656 0.46999,-0.79375 0.54275,-0.79375 0.0728,0 -0.0524,0.35719 -0.27817,0.79375 -0.22575,0.43657 -0.46999,0.79375 -0.54276,0.79375 -0.0728,0 0.0524,-0.35718 0.27818,-0.79375 z m -38.33717,-0.0795 c -0.42335,-0.30956 -0.19568,-0.47764 2.13054,-1.57296 1.4325,-0.67451 3.97376,-1.96055 5.64725,-2.85788 1.67349,-0.89733 4.88818,-2.61617 7.14375,-3.81965 2.25558,-1.20348 5.52979,-2.95972 7.27604,-3.90275 1.74625,-0.94303 5.13954,-2.70594 7.54063,-3.91758 6.30573,-3.182 17.42716,-9.16854 20.76979,-11.18015 2.41517,-1.45346 5.93841,-4.105115 7.7954,-5.866955 2.12853,-2.01946 2.27843,-1.91927 0.58225,0.38912 -2.62612,3.574 -5.97998,6.487145 -11.94952,10.379335 -5.34896,3.48755 -6.72325,4.22697 -20.7698,11.175 -14.96374,7.40172 -17.3222,8.50459 -21.43124,10.02173 -4.22032,1.55822 -4.1905,1.55096 -4.73509,1.15274 z m 51.19583,-4.61682 c 0.0167,-1.96663 0.10421,-2.86583 0.23821,-2.4474 0.31479,0.98292 0.31479,5.55625 0,5.55625 -0.16287,0 -0.25444,-1.19509 -0.23821,-3.10885 z M 7.7235564,122.64067 c -2.38291,-2.42501 -4.31386,-5.14558 -5.0513,-7.11693 -0.1356,-0.36249 0.47692,-0.63954 3.62515,-1.6397 8.0572096,-2.5597 20.8136496,-6.04039 34.6122896,-9.44423 4.72942,-1.16666 9.69127,-2.40317 11.02632,-2.74781 l 2.42738,-0.62662 0.18451,1.96908 c 0.10149,1.08298 0.12797,2.02562 0.0589,2.09474 -0.38938,0.38938 -30.56972,14.6672 -31.00341,14.6672 -0.0646,0 -1.04894,0.43121 -2.18735,0.95824 -5.27583,2.44247 -10.31648,4.59801 -10.75227,4.59801 -0.1514,0 -1.4744696,-1.22039 -2.9401696,-2.71198 z M 87.079616,94.065665 c 0.1066,-15.60711 0.2368,-28.45018 0.28935,-28.54015 0.0525,-0.09 0.84235,-0.24481 1.75512,-0.34408 1.71382,-0.18638 13.825724,-2.21195 17.491694,-2.92527 1.14059,-0.22194 2.26047,-0.40352 2.48862,-0.40352 0.36808,0 0.39545,0.55909 0.24292,4.96094 -0.15845,4.57257 -1.12857,39.568915 -1.29393,46.677625 -0.0395,1.69814 -0.15578,3.17117 -0.2584,3.27339 -0.20832,0.20751 -2.12666,0.76449 -7.22176,2.0968 -1.891774,0.49467 -5.641474,1.50273 -8.332684,2.24012 -2.69121,0.73739 -4.99697,1.34071 -5.12392,1.34071 -0.13113,0 -0.14711,-12.25507 -0.037,-28.376565 z m -19.97618,23.540645 c 0,-1.6241 0.11581,-2.35915 0.4481,-2.84427 0.80825,-1.17999 3.25607,-3.99716 3.25607,-3.74737 0,0.13431 -0.53578,1.37526 -1.19062,2.75764 -0.65485,1.38239 -1.19063,2.72181 -1.19063,2.97648 0,0.65878 -0.87824,3.04761 -1.12043,3.04761 -0.11137,0 -0.20249,-0.98554 -0.20249,-2.19009 z m 72.338094,-7.20262 c 0.088,-0.58208 1.23245,-9.7499 2.54319,-20.372925 3.78895,-30.70795 4.77545,-38.00612 5.45403,-40.34895 0.23182,-0.80037 0.7562,-2.74575 1.16529,-4.32307 0.40909,-1.57732 0.81816,-2.94222 0.90905,-3.03311 0.0909,-0.0909 0.84426,0.0685 1.67416,0.35432 1.41605,0.48759 1.50489,0.56841 1.4437,1.31332 -0.0616,0.75012 -2.26898,18.71481 -5.49815,44.74683 -0.79646,6.42065 -1.44811,12.069725 -1.44811,12.553485 0,0.48377 -0.27847,1.30269 -0.61883,1.81984 -0.34035,0.51714 -1.11699,1.72666 -1.72585,2.68781 -0.60887,0.96115 -1.77111,2.62802 -2.58277,3.70416 l -1.47573,1.95662 z M 0.31910639,109.30976 c -0.5568,-1.451 -0.35475,-5.45618 0.37163,-7.36672 l 0.22972,-0.60421 3.65660001,0.63375 c 6.1284796,1.06217 10.4013896,1.94592 13.2783396,2.74631 2.6628,0.74081 3.15392,0.93625 2.92392,1.16353 -0.19554,0.19323 -10.8144396,2.23183 -15.6467196,3.00384 -3.57783,0.5716 -4.71816001,0.67193 -4.81349001,0.4235 z M 21.991986,102.43625 c -6.26526,-2.29664 -16.5388696,-6.626675 -16.5346896,-6.968895 9.8e-4,-0.0797 0.80708,-0.58344 1.79135,-1.1194 l 1.78959,-0.97449 2.5764196,1.21487 c 1.41704,0.66817 2.62516,1.16613 2.68473,1.10656 0.0596,-0.0596 0.009,-0.64398 -0.11172,-1.29871 -0.36848,-1.99366 -0.6145,-6.08537 -0.36575,-6.08281 0.12792,0.001 0.85409,0.92406 1.61373,2.05052 0.75963,1.12647 1.89097,2.70297 2.51408,3.50333 0.62311,0.80037 2.31329,3.00302 3.75596,4.89479 1.44267,1.891775 2.92322,3.767015 3.29011,4.167195 0.36688,0.40018 0.55549,0.71485 0.41913,0.69925 -0.13637,-0.0156 -1.67669,-0.55208 -3.42294,-1.19221 z m 8.22319,0.36261 c -0.0747,-0.47401 -0.38536,-3.004965 -0.69026,-5.624345 -0.3049,-2.61937 -0.78211,-6.36984 -1.06046,-8.33437 -1.75432,-12.38131 -4.98682,-37.60143 -5.68527,-44.35662 -0.10581,-1.0234 -0.056,-1.12356 0.7403,-1.48816 3.18435,-1.45801 25.78009,-8.3948 27.34502,-8.3948 0.23459,0 0.35278,0.76063 0.41251,2.65495 l 0.0837,2.65495 -1.85209,0.54136 c -7.63322,2.23115 -16.60469,5.03448 -19.18229,5.99392 -1.94562,0.72421 -1.98598,0.75788 -2.06657,1.72415 -0.0452,0.54204 0.16163,2.56248 0.45964,4.48987 0.88345,5.7137 5.96169,45.88706 6.15922,48.724825 l 0.072,1.03507 -1.58456,0.4439 c -3.19127,0.89399 -2.99917,0.89793 -3.15095,-0.0647 z m 7.65546,-1.61576 c -0.0505,-0.16742 -0.16297,-0.84019 -0.24993,-1.495035 -0.11118,-0.83727 -0.0797,-1.07284 0.10618,-0.79375 0.14536,0.21828 0.26611,0.65773 0.26834,0.97657 0.002,0.318835 0.0933,0.634125 0.20249,0.700635 0.10914,0.0665 1.0914,-0.0424 2.18281,-0.24202 3.01554,-0.551565 4.52127,-0.707835 3.70417,-0.384445 -1.60688,0.635955 -6.12419,1.535955 -6.21406,1.238045 z m 28.73518,-5.497535 0.0315,-3.80271 0.35298,1.71979 c 0.49494,2.41139 0.48552,5.13738 -0.0192,5.55625 -0.34987,0.29037 -0.39314,-0.12095 -0.36533,-3.47333 z m -41.49317,1.5551 c -0.13828,-0.1819 -0.57737,-0.90101 -0.97575,-1.59801 -0.39838,-0.69701 -1.07988,-1.67223 -1.51443,-2.16716 -0.74171,-0.84476 -2.74211,-4.59629 -2.55214,-4.78626 0.0478,-0.0479 0.6784,0.88699 1.40121,2.07744 0.72281,1.19044 1.68612,2.70753 2.14069,3.3713 1.24675,1.82054 2.50728,4.42715 1.50042,3.10269 z M 136.15969,80.237085 c -5.49977,-1.18457 -9.28345,-2.16206 -9.60202,-2.48063 -0.35934,-0.35934 0.6339,-21.15354 1.17671,-24.63506 0.14747,-0.94588 0.42567,-3.32713 0.61822,-5.29166 0.19256,-1.96454 0.36105,-3.61653 0.37443,-3.6711 0.105,-0.42817 15.89933,4.58414 15.89933,5.04564 0,0.36854 -1.0262,9.11537 -1.31321,11.19316 -0.47122,3.41142 -1.05366,7.89418 -1.73603,13.36146 -0.84027,6.7323 -0.9466,7.4141 -1.15177,7.38492 -0.0905,-0.0129 -2.01009,-0.42091 -4.26566,-0.90673 z M 34.580206,78.338005 c -0.39327,-3.25817 -1.91923,-14.67526 -3.05208,-22.83536 -0.63402,-4.56696 -0.7852,-6.29843 -0.56946,-6.52175 0.27845,-0.28822 6.52706,-2.41944 9.22433,-3.14615 1.51823,-0.40905 1.26685,-1.23827 2.16889,7.15436 0.75164,6.99333 0.8,7.96098 0.40989,8.20208 -0.14552,0.0899 -0.25077,0.36486 -0.23389,0.61093 0.0277,0.40336 0.0426,0.40182 0.15169,-0.0156 0.18201,-0.6965 0.52639,-0.55715 0.69399,0.28081 0.0818,0.40911 0.40241,2.90915 0.71242,5.55564 l 0.56365,4.8118 -1.85914,3.51875 -1.85914,3.51874 -2.72281,0.62009 c -1.49755,0.34105 -2.85609,0.66966 -3.01898,0.73025 -0.1936,0.072 -0.40463,-0.78844 -0.60936,-2.48458 z m 89.042654,-1.2015 -1.02745,-0.27186 0.16759,-4.13256 c 0.0922,-2.27291 0.28805,-9.31178 0.43527,-15.64194 0.14723,-6.33015 0.33379,-12.23955 0.41458,-13.13198 l 0.1469,-1.62261 1.7682,0.52684 c 0.97251,0.28977 1.79482,0.55046 1.82735,0.57933 0.21495,0.19074 -1.01377,19.7551 -1.66309,26.48071 -0.21074,2.18281 -0.45918,4.77242 -0.55208,5.75469 -0.0929,0.98227 -0.24113,1.77363 -0.32937,1.75859 -0.0882,-0.015 -0.6228,-0.14968 -1.1879,-0.29921 z M 65.562936,56.106555 c -0.71395,-28.28022 -0.71953,-29.34866 -0.1547,-29.64608 0.27752,-0.14613 3.89786,-1.28237 8.0452,-2.52498 11.32174,-3.39216 14.07839,-4.18432 14.18615,-4.07656 0.10359,0.10359 -0.42098,45.25007 -0.527,45.35609 -0.0699,0.0699 -18.16292,3.11374 -20.0245,3.36877 l -1.20598,0.16521 z m 88.331344,10.90547 c -0.0113,-1.04262 0.80786,-5.49054 0.97953,-5.31887 0.19999,0.19999 -0.43322,5.19239 -0.72106,5.68498 -0.19691,0.33697 -0.2517,0.25935 -0.25847,-0.36611 z M 50.644146,46.771395 c -0.34292,-2.17851 -0.41266,-3.71087 -0.17556,-3.85741 0.40188,-0.24837 0.5209,0.51385 0.44054,2.8212 -0.0685,1.96636 -0.0995,2.08757 -0.26498,1.03621 z m 87.103044,-2.68039 c -3.8563,-1.27835 -8.58903,-2.81368 -10.51719,-3.41183 l -3.50572,-1.08755 v -2.62782 c 0,-1.4453 0.0732,-2.62782 0.1627,-2.62782 0.57558,0 12.92997,3.57672 17.48782,5.0629 l 2.43698,0.79463 0.65061,2.16446 c 1.21101,4.02877 1.23361,4.15443 0.73795,4.10308 -0.24293,-0.0252 -3.59685,-1.09169 -7.45315,-2.37005 z m 9.13258,-2.38814 c -0.61904,-4.74909 -2.20576,-9.90697 -3.84588,-12.50164 -2.45252,-3.87992 -8.05129,-6.24169 -17.06066,-7.19682 l -1.85208,-0.19635 1.5875,-0.21961 c 6.14921,-0.85066 10.00944,-1.90375 13.09687,-3.57289 2.08307,-1.12616 2.44379,-1.43202 3.68722,-3.12645 1.78805,-2.43658 3.15507,-6.1681297 4.00314,-10.9273397 0.82813,-4.64727 0.83005,-4.65227 1.08956,-2.83099 0.94496,6.63196 3.08553,12.4623297 5.47676,14.9173097 2.47638,2.5424 9.16877,4.91177 15.55908,5.5085 0.92418,0.0863 1.64817,0.188 1.60885,0.226 -0.0393,0.038 -1.26211,0.20697 -2.71732,0.3755 -6.87591,0.79629 -12.99976,3.18804 -15.02015,5.86631 -1.88847,2.50341 -3.50551,6.71048 -4.45986,11.60325 -0.32642,1.67349 -0.67792,3.14312 -0.78111,3.26584 -0.1032,0.12272 -0.27056,-0.41306 -0.37192,-1.19062 z m -44.9844,-1.14918 c 0.64059,-1.94026 3.9198,-12.30265 4.46555,-14.11125 l 0.66537,-2.205 -1.03519,0.88208 c -0.56936,0.48515 -3.32822,3.08475 -6.130804,5.77688 -2.80259,2.69214 -4.89246,4.59714 -4.64416,4.23334 0.2483,-0.36381 2.1659,-3.22131 4.26132,-6.35 2.095434,-3.1287 4.307074,-6.37315 4.914784,-7.2099 l 1.10491,-1.52135 -1.13904,0.009 c -0.62647,0.005 -1.91295,0.17952 -2.85883,0.38758 -2.782814,0.61211 -2.688044,0.45402 0.70363,-1.17372 l 3.21717,-1.54399 0.75064,-1.59772 c 0.7442,-1.58402 0.7654,-1.60213 2.47137,-2.11097 l 1.72073,-0.51324 0.0668,3.46982 c 0.0367,1.9084 -0.0228,5.37482 -0.1323,7.70315 l -0.19911,4.23334 -0.97948,0.0192 -0.97949,0.0191 -2.7651,5.5371 c -1.52081,3.0454 -2.965,5.77521 -3.2093,6.06625 l -0.4442,0.52917 z m 21.82531,-24.14322 c -0.002,-1.27331 0.14685,-4.87495 0.33073,-8.0036497 l 0.33432,-5.68854 0.16602,2.77812 c 0.0913,1.52797 0.18061,5.1296097 0.19844,8.0036497 0.0314,5.05994 0.0156,5.22552 -0.49675,5.22552 -0.48857,0 -0.52944,-0.17759 -0.53276,-2.3151 z"
     id="path16" /></svg>
