<?xml version="1.0" encoding="UTF-8" standalone="no"?>
<!-- Created with Inkscape (http://www.inkscape.org/) -->

<svg
   width="160.93083mm"
   height="162.8315mm"
   viewBox="0 0 160.93083 162.8315"
   version="1.1"
   id="svg1"
   xml:space="preserve"
   xmlns="http://www.w3.org/2000/svg"
   xmlns:svg="http://www.w3.org/2000/svg"><defs
     id="defs1" /><g
     id="layer1"
     transform="translate(-307.62847,64.006111)"><path
       style="fill:#000000"
       d="m 376.04944,96.590593 c 3.73379,-3.692016 6.60475,-8.196542 8.10335,-12.714159 0.81597,-2.459786 1.72984,-6.462115 1.52281,-6.669151 -0.0647,-0.06467 -1.52744,0.02579 -3.25061,0.20103 -4.09532,0.416475 -12.61974,0.42593 -16.62677,0.01844 -11.88068,-1.208188 -22.51326,-4.108457 -31.62451,-8.626276 -11.44774,-5.676368 -19.87744,-13.904882 -21.31679,-20.808044 -0.21631,-1.037443 -0.33183,-1.947727 -0.2567,-2.022852 0.0751,-0.07513 0.1858,0.02928 0.24595,0.232005 0.76741,2.586577 2.1315,4.931865 4.13859,7.115474 1.0725,1.16682 1.09079,1.174755 0.91475,0.396874 -0.0988,-0.436562 -0.22943,-3.584074 -0.2903,-6.99447 l -0.11067,-6.200721 -1.39364,-1.472195 c -0.76649,-0.809708 -2.07249,-2.328147 -2.90221,-3.374309 -0.82972,-1.046162 -1.72757,-2.058193 -1.99523,-2.248958 -0.43407,-0.309368 -1.28539,-2.853294 -2.85548,-8.532847 -1.39515,-5.046704 -0.7523,-10.196095 1.75291,-14.041229 0.92133,-1.4141083 2.89879,-3.6216379 2.6051,-2.9081848 -0.0599,0.1455208 -0.42327,0.9425473 -0.80748,1.7711699 -1.22401,2.6398209 -1.61509,4.8453309 -1.47844,8.3377959 0.1051,2.686155 0.23506,3.406695 0.93424,5.179709 2.75106,6.976224 8.25051,12.11039 17.16094,16.021057 10.40349,4.565952 23.14155,6.953036 42.57064,7.977646 11.87422,0.626196 18.65438,0.13542 28.77344,-2.082742 1.2733,-0.279117 2.3151,-0.457369 2.3151,-0.396116 0,0.462374 -4.40017,6.891656 -6.15278,8.990112 l -1.56833,1.8778 -4.14309,0.171839 c -2.2787,0.09451 -6.67317,0.172236 -9.76549,0.17272 l -5.62239,8.82e-4 v 6.879166 6.879166 h 0.6479 c 2.0464,0 14.24335,-1.947362 18.30596,-2.922726 2.59427,-0.622839 2.74197,-0.628698 2.74197,-0.108761 0,1.044161 -2.6136,8.05417 -4.33577,11.629066 -2.80976,5.832562 -5.39151,9.58038 -9.53777,13.845621 l -2.39833,2.467159 1.32291,-0.607261 c 5.54874,-2.547052 10.57471,-6.189535 15.34583,-11.121632 5.00275,-5.171532 8.06006,-9.667668 11.12215,-16.356466 l 1.63518,-3.571874 1.42655,-0.464139 c 15.62579,-5.083992 20.90845,-7.117755 29.74245,-11.450499 7.64562,-3.749895 15.32408,-8.838807 19.50842,-12.929251 0.98276,-0.960704 1.8369,-1.746735 1.89809,-1.746735 0.22482,0 -1.98294,3.794217 -3.20098,5.501149 -4.06304,5.693838 -11.02263,11.870262 -19.00477,16.866162 -5.69904,3.566938 -15.84235,8.383058 -21.43125,10.175723 -1.85129,0.593809 -1.85293,0.595197 -3.82194,3.241416 -2.6385,3.545959 -8.12307,9.179984 -11.74803,12.068156 -7.67998,6.11899 -16.62151,10.823916 -25.93623,13.647334 -1.70875,0.517948 -3.17714,0.941723 -3.26309,0.941723 -0.0859,0 0.86079,-1.005659 2.10384,-2.234798 z m -6.28247,-22.636034 v -0.926041 l -2.57968,-0.07573 -2.57969,-0.07573 V 73.6684 c 0,0.86064 0.26196,0.965896 2.91041,1.169418 2.17614,0.167227 2.24896,0.138627 2.24896,-0.883265 z m 9.19385,0.620839 c 0.10937,-0.0676 0.19886,-0.533288 0.19886,-1.034872 v -0.911971 l -2.3151,0.155976 c -1.27331,0.08579 -2.46394,0.201807 -2.64584,0.257823 -0.18579,0.05722 -0.33073,0.52625 -0.33073,1.07032 v 0.968473 l 2.44698,-0.191423 c 1.34583,-0.105283 2.53646,-0.24673 2.64583,-0.314326 z m 5.82126,-0.742235 c 0.63102,-0.132924 0.7276,-0.280012 0.7276,-1.108085 v -0.954817 l -1.09924,0.175776 c -0.60459,0.09668 -1.1999,0.237983 -1.32292,0.314014 -0.24853,0.153602 -0.30788,1.522108 -0.0761,1.753926 0.14476,0.144764 0.30053,0.128857 1.77062,-0.180814 z m -23.87865,-0.49066 c 0,-0.579349 -0.13433,-0.625299 -2.51385,-0.859895 -2.452,-0.241743 -2.51384,-0.234248 -2.51354,0.304648 2.6e-4,0.464955 0.24134,0.595106 1.52166,0.821482 0.83675,0.147947 1.96784,0.286281 2.51354,0.307408 0.87166,0.03375 0.99219,-0.03594 0.99219,-0.573643 z m -8.20208,-1.339973 c 0,-0.254292 -0.66011,-0.461465 -2.18281,-0.685069 -1.20055,-0.176296 -2.42094,-0.384236 -2.71198,-0.462089 -0.29251,-0.07825 -0.43189,-0.03943 -0.31165,0.08678 0.28364,0.297755 3.84149,1.383118 4.61113,1.406679 0.33812,0.01035 0.59531,-0.139265 0.59531,-0.346306 z m 15.94114,-1.659986 1.78594,-0.168671 v -6.973198 -6.973198 l -0.7276,-0.0041 c -2.10112,-0.01182 -9.18443,-0.595219 -12.89844,-1.062346 -4.20758,-0.529207 -13.03894,-2.163025 -14.31562,-2.648418 -0.36728,-0.139641 -0.71957,-0.253893 -0.78285,-0.253893 -0.0633,0 -0.11507,3.382464 -0.11507,7.516587 V 67.2919 l 3.37344,0.810312 c 4.42422,1.062713 7.15194,1.519421 11.17864,1.871663 5.53007,0.483752 9.91412,0.613036 12.50156,0.368669 z m -31.28851,-11.932255 -0.002,-7.342187 -2.84273,-1.041178 c -3.25192,-1.191046 -9.47642,-4.27242 -11.88117,-5.881638 l -1.63009,-1.090838 -0.19281,2.816202 c -0.10604,1.548911 -0.12054,4.423431 -0.0322,6.387821 l 0.16059,3.571618 0.86856,0.73837 c 3.03317,2.578516 7.08632,5.323076 10.26127,6.948335 0.79423,0.406565 5.03469,2.216874 5.22552,2.230841 0.0364,0.0027 0.0654,-3.299143 0.0646,-7.337346 z m 30.90547,-7.143749 0.08,-1.389063 h -1.03224 c -0.56773,0 -1.94318,-0.077 -3.05654,-0.171115 l -2.02429,-0.171116 v 1.336664 1.336663 l 1.91823,0.260167 c 1.05502,0.143092 2.39448,0.243674 2.97656,0.223515 l 1.05833,-0.03665 z m 11.52476,1.353099 1.22755,-0.168255 v -1.154662 -1.154661 h -3.175 -3.175 v 0.904402 c 0,1.625687 0.14011,1.741431 2.10805,1.741431 0.98277,0 2.33925,-0.07572 3.0144,-0.168255 z m -23.37869,-2.201006 c 0,-1.307457 -0.003,-1.311389 -0.99219,-1.485321 -0.54571,-0.09592 -1.79462,-0.320835 -2.77537,-0.49982 -0.98074,-0.178985 -1.84395,-0.264653 -1.91822,-0.190373 -0.0743,0.07428 -0.13506,0.642549 -0.13506,1.262822 v 1.12777 l 1.50439,0.31231 c 1.22803,0.254937 2.93765,0.56731 4.11801,0.75242 0.10914,0.01712 0.19844,-0.558798 0.19844,-1.279808 z M 345.5576,48.432467 c 0,-1.141658 -0.0326,-1.188925 -0.99219,-1.439189 -2.49083,-0.649606 -4.25692,-1.08455 -4.40381,-1.08455 -0.0881,0 -0.16025,0.529697 -0.16025,1.177104 v 1.177105 l 1.38906,0.411389 c 4.1311,1.223478 4.16719,1.221383 4.16719,-0.241859 z m -10.31875,-2.762144 v -1.000926 l -2.51632,-0.9367 c -2.49935,-0.930386 -2.51728,-0.932855 -2.65947,-0.366304 -0.31089,1.238698 0.21863,1.798949 2.54949,2.697431 1.22253,0.471249 2.31357,0.800703 2.42454,0.73212 0.11097,-0.06858 0.20176,-0.575113 0.20176,-1.125621 z m -8.99897,-3.664199 c -0.003,-0.940513 -0.0891,-1.040417 -1.65365,-1.918229 -0.90778,-0.509323 -1.79933,-0.964538 -1.98123,-1.011588 -0.46226,-0.119566 -0.43327,1.655449 0.0334,2.042713 0.47901,0.397547 3.15166,1.86835 3.40622,1.874498 0.10914,0.0026 0.19702,-0.441691 0.1953,-0.987394 z m -6.83635,-4.325098 c 0.0699,-0.563809 -0.20577,-0.929212 -1.53654,-2.036697 l -1.62174,-1.349619 -0.1421,0.71378 c -0.11936,0.599562 0.0967,0.956826 1.35012,2.232647 0.82072,0.835378 1.57611,1.43069 1.67864,1.322917 0.10254,-0.107773 0.22476,-0.505136 0.27162,-0.883028 z m -6.68498,-7.595125 c -1.67229,-2.200009 -1.98972,-2.52074 -1.49185,-1.507381 0.21448,0.436563 0.46282,1.098629 0.55186,1.471258 0.089,0.37263 0.54069,1.200418 1.00366,1.839529 0.80384,1.109669 0.8517,1.135137 1.0625,0.56529 0.18045,-0.487785 -0.0252,-0.920243 -1.12617,-2.368696 z m 97.1328,22.779933 c 0,-0.133792 0.35432,-1.291478 0.78738,-2.572636 0.43305,-1.281157 1.09796,-3.714507 1.47756,-5.407445 0.37961,-1.692937 0.7099,-3.083025 0.73398,-3.089085 1.32341,-0.333037 4.68476,-1.534577 6.79066,-2.427369 6.96503,-2.952819 11.34767,-6.195527 13.34231,-9.871961 0.60926,-1.122969 0.79963,-1.860139 0.89188,-3.453629 0.13628,-2.35422 -0.14698,-3.405587 -1.43199,-5.315111 -0.50052,-0.743771 -0.85726,-1.405089 -0.79275,-1.469597 0.0645,-0.06451 0.81182,0.577948 1.66069,1.427678 4.24302,4.247315 4.95074,10.448814 1.86517,16.343919 -3.11484,5.95105 -12.35499,12.160878 -22.64667,15.219659 -1.07358,0.319081 -2.11538,0.642852 -2.3151,0.719491 -0.19972,0.07664 -0.36312,0.02988 -0.36312,-0.103914 z m 28.31041,-12.663042 c 0,-0.08233 0.11364,-0.362029 0.25254,-0.621559 0.20305,-0.379406 0.73803,-0.506 2.73007,-0.646027 6.84251,-0.480981 12.05271,-3.502584 16.48538,-9.560527 l 0.77263,-1.055923 -1.14554,0.923632 c -3.16494,2.551825 -5.92734,4.10048 -8.92002,5.000725 -1.99324,0.599601 -6.1124,1.099418 -7.40682,0.898742 l -0.80364,-0.12459 0.38852,-2.006657 c 0.31586,-1.631364 0.33307,-2.446005 0.092,-4.3558 -0.27106,-2.147444 -0.25335,-2.422313 0.2063,-3.201348 2.57752,-4.368572 0.67927,-10.380327 -3.92006,-12.41483 -0.96262,-0.42581 -1.57323,-0.505362 -3.0751,-0.400634 -1.03069,0.07187 -2.04821,0.175549 -2.26116,0.230393 -0.30045,0.07738 -0.47515,-0.458191 -0.77985,-2.390787 l -0.39266,-2.4905029 0.64756,-0.4077175 c 1.31635,-0.8288157 2.83153,-2.6363536 3.25724,-3.885754 0.54277,-1.5929296 0.55679,-4.36789003 0.031,-6.1383396 -0.55987,-1.8852703 -2.15537,-3.8107867 -3.86258,-4.6615275 -0.76757,-0.3824957 -1.59408,-0.6954468 -1.8367,-0.6954468 -0.36547,0 -0.51732,-0.5785089 -0.88546,-3.3734377 -0.24438,-1.85539 -0.80008,-5.689 -1.23489,-8.519133 -0.43481,-2.830132 -0.73109,-5.300679 -0.6584,-5.490104 0.2551,-0.664775 0.6292,-0.332143 1.1005,0.978509 0.26165,0.727604 0.55241,1.322917 0.64614,1.322917 0.0937,0 0.38886,-0.721416 0.65582,-1.603146 0.26697,-0.88173 0.67277,-1.699281 0.90179,-1.816781 1.05856,-0.543106 4.98887,-0.883069 8.32463,-0.72006 1.90787,0.09323 3.82603,0.234814 4.2626,0.314626 0.74777,0.136708 0.73356,0.11201 -0.24537,-0.42641 -2.18945,-1.204218 -5.89176,-2.213564 -9.2285,-2.515931 -1.11953,-0.10145 -2.03551,-0.231386 -2.03551,-0.288749 0,-0.05736 0.17252,-0.51719 0.38338,-1.021839 l 0.38337,-0.917543 h 2.36009 c 8.326,0 16.44043,3.647212 23.16816,10.413457 5.49111,5.522537 9.51613,13.1980642 11.27632,21.50341973 0.7194,3.39447557 0.99407,10.39853627 0.54705,13.94995227 -0.91181,7.244025 -3.95715,13.858121 -8.58899,18.654232 -3.84838,3.984862 -8.28432,6.389319 -13.52209,7.329513 -2.03789,0.365808 -8.06979,0.538462 -8.06979,0.230986 z m 17.64371,-14.683208 c 2.71057,-1.021922 4.45047,-5.059178 3.77815,-8.766781 -0.91578,-5.05024 -5.10556,-8.0376712 -8.87287,-6.3266 -3.41117,1.549319 -4.61013,6.751867 -2.52985,10.977528 1.68923,3.431304 4.87659,5.151885 7.62457,4.115853 z M 444.07009,8.0612781 c 1.75142,-1.3776673 1.54273,-5.8592644 -0.37453,-8.04289847 -0.96772,-1.10217203 -2.03223,-1.38794543 -3.10455,-0.8334282 -2.12003,1.09630879 -1.7977,6.12939517 0.54804,8.55763227 0.97454,1.0088168 1.92264,1.1119038 2.93104,0.3186944 z M 457.39297,5.146064 c 3.9334,-1.4861395 4.80171,-8.5195734 1.57419,-12.7511335 -1.30713,-1.7137569 -2.80943,-2.6443245 -4.4946,-2.7840715 -2.74946,-0.228007 -4.49993,0.9806019 -5.49297,3.7926249 -1.05635,2.9912731 -0.23578,7.04154481 1.9236,9.494729 1.88116,2.1371065 4.43849,3.0228834 6.48978,2.2478511 z m -14.5422,-14.1513086 c 2.32814,-1.1601594 3.55711,-3.3106054 3.57555,-6.2564624 0.0357,-5.69513 -6.04111,-9.840768 -10.83781,-7.393675 -4.15701,2.12075 -4.67795,8.36373 -1.0034,12.024992 1.65667,1.6506906 3.10196,2.2914716 5.17835,2.2958667 1.33321,0.00282 2.04678,-0.1521995 3.08731,-0.6707213 z M 362.49621,37.111332 c -0.13638,-0.327422 -0.49002,-2.202656 -0.78588,-4.167187 -1.03543,-6.875437 -2.56094,-15.86515 -2.71907,-16.023286 -0.16701,-0.167009 -2.05754,0.117895 -15.23792,2.296366 -6.28913,1.039475 -8.10374,1.258017 -8.40052,1.011712 -0.42692,-0.354306 -0.51733,-2.24904 -0.11907,-2.495179 0.14271,-0.0882 2.49419,-0.509181 5.22552,-0.93551 2.73132,-0.426328 8.00213,-1.25533 11.71291,-1.842227 3.71078,-0.586896 9.90203,-1.546478 13.75833,-2.132404 7.32301,-1.112657 14.42036,-2.240116 36.8759,-5.8579687 13.038,-2.1005767 13.4717,-2.1529835 13.82448,-1.6705275 0.53908,0.737242 0.44283,1.4395755 -0.23111,1.6863999 -0.32742,0.1199149 -5.86382,1.0979878 -12.30312,2.1734954 -11.05021,1.8456339 -11.70781,1.9863469 -11.70781,2.5052289 0,0.302369 0.40876,3.220646 0.90836,6.48506 0.49961,3.264414 0.99223,6.688237 1.09472,7.608495 0.17026,1.528633 0.23465,1.661637 0.74528,1.539415 0.30741,-0.07358 3.71408,-0.74373 7.57039,-1.489223 3.8563,-0.745492 8.77867,-1.70612 10.93859,-2.134727 4.9202,-0.976347 5.13783,-0.978395 5.49273,-0.05168 0.17025,0.444549 0.18557,0.876676 0.0394,1.110799 -0.26353,0.422073 0.44181,0.264111 -24.40821,5.466287 -9.3861,1.964911 -18.7325,3.922186 -20.76979,4.349497 -5.12033,1.073963 -5.54408,1.040528 -5.84441,-0.461134 -0.28544,-1.427179 0.30971,-1.722218 5.4592,-2.706347 2.5402,-0.485461 6.6426,-1.274449 9.11646,-1.753307 2.47385,-0.478858 5.59924,-1.071045 6.94531,-1.315971 2.90634,-0.528829 2.72894,0.09029 1.77973,-6.211178 -0.36169,-2.401094 -0.85858,-5.757052 -1.1042,-7.457685 -0.44523,-3.08261 -0.44867,-3.091689 -1.1233,-2.97059 -3.15207,0.565799 -24.2724,4.089341 -25.37164,4.232794 -0.77637,0.101318 -1.46959,0.335354 -1.54047,0.52008 -0.1,0.260581 1.34549,9.831584 2.96187,19.611488 0.10981,0.66437 0.0145,0.926208 -0.45744,1.256771 -0.89435,0.626425 -2.0263,0.539891 -2.32521,-0.177755 z m -33.57429,-1.97219 c -0.63665,-0.224983 -1.60563,-0.85714 -2.15328,-1.404795 -1.2851,-1.285093 -1.10265,-0.467583 -5.16581,-23.147493 -1.62583,-9.0750971 -1.94367,-10.77309583 -2.03339,-10.86281269 -0.0487,-0.0487423 -0.22881,-0.001982 -0.40015,0.10391187 -0.23765,0.1468782 -0.22136,0.96441383 0.0687,3.44760082 0.20913,1.7902867 0.44553,5.060688 0.52535,7.267558 0.0798,2.206871 0.20221,4.63757 0.272,5.401555 0.46034,5.039532 -2.58257,-5.017216 -4.6351,-15.31891852 C 314.06912,-6.0551451 313.49758,-10.208863 313.5967,-12.481585 l 0.0786,-1.802393 0.98445,1.96076 c 0.54144,1.078417 1.46983,3.4172765 2.06308,5.1974645 0.95807,2.874912 1.13789,3.2212111 1.60871,3.0980881 0.41043,-0.1073305 0.49914,-0.2950823 0.393,-0.83184 -0.0754,-0.3812725 -0.26791,-1.4671289 -0.42781,-2.4130142 -0.15989,-0.9458854 -0.813,-3.8033854 -1.45135,-6.3499994 -2.37827,-9.487843 -2.43617,-10.044752 -1.19176,-11.462058 0.66755,-0.760296 1.44442,-1.120869 5.09323,-2.363935 4.89685,-1.668245 15.44535,-5.13505 28.77949,-9.458489 9.55237,-3.097246 12.79188,-4.152418 33.99896,-11.074155 19.79142,-6.459685 27.01917,-8.768444 27.45028,-8.768444 0.53134,0 4.26301,5.803359 3.83138,5.958427 -0.17898,0.0643 -1.0932,0.292728 -2.0316,0.507616 -1.88297,0.431188 -2.14083,0.342245 -2.66307,-0.918566 -0.21329,-0.514925 -0.51474,-0.784978 -0.87624,-0.784978 -0.3031,0 -2.87826,0.764359 -5.72259,1.698574 -2.84432,0.934216 -6.42165,2.079591 -7.94962,2.545278 -4.44807,1.355662 -4.21254,1.194479 -3.00853,2.05885 0.56328,0.404385 3.38492,2.334771 6.27029,4.289747 l 5.24615,3.554503 3.47402,-1.186497 c 4.09744,-1.399417 6.68196,-2.636616 6.6447,-3.180794 -0.0146,-0.212824 -0.11009,-0.649134 -0.21225,-0.969577 l -0.18574,-0.582624 1.66745,0.538088 c 3.03487,0.979357 3.11765,1.031742 3.81981,2.417404 0.367,0.724233 0.56863,1.397214 0.44808,1.495513 -0.12056,0.0983 -1.29076,0.509488 -2.60044,0.913754 -6.5431,2.019685 -75.97165,25.125503 -76.2,25.359357 -0.46282,0.473973 1.32588,0.237653 45.50833,-6.012501 14.84313,-2.099744 28.45084,-4.019931 30.23936,-4.267083 3.00949,-0.415876 3.31911,-0.417296 4.15424,-0.01905 0.4963,0.236672 1.07781,0.70291 1.29222,1.036083 0.24564,0.381678 0.74273,3.444188 1.34375,8.278685 1.02757,8.2655813 2.0047,15.6582195 3.47966,26.32604 1.871,13.532147 1.9732,14.515599 1.64425,15.821973 -0.20759,0.824408 -0.68947,1.603272 -1.53411,2.479575 -0.67731,0.70269 -1.34639,1.277618 -1.48684,1.277618 -0.14046,0 -0.5855,-2.470547 -0.98897,-5.490104 -1.40734,-10.532492 -2.31781,-17.447306 -3.24838,-24.6707996 -0.51542,-4.0009454 -0.95769,-7.2936558 -0.98282,-7.3171342 -0.0251,-0.023478 -5.87976,0.88687 -13.01028,2.0229966 -11.41376,1.8185881 -18.66417,2.96374681 -42.86249,6.7698741 -3.20146,0.5035537 -12.01209,1.8746335 -19.57917,3.0468438 -7.56708,1.1722104 -14.26864,2.2265852 -14.89235,2.3430552 -1.36501,0.2548994 -2.05208,0.8273865 -2.45378,2.0445711 -0.31937,0.967675 -0.2424,1.524486 2.50772,18.141843 1.27687,7.71543 1.36095,7.244496 -1.13581,6.362184 z m 4.20026,-31.4912135 c 1.38245,-0.3575642 3.61714,-0.9204785 4.96598,-1.2509206 3.9185,-0.9599625 4.16498,-1.44215522 2.95424,-5.7794454 -1.98248,-7.1019745 -1.46719,-6.1105282 -5.35061,-10.2949975 -7.18154,-7.738274 -7.96918,-8.552495 -8.61823,-8.909018 -0.84342,-0.463295 -3.88119,-0.246618 -5.0554,0.36059 -1.43271,0.740884 -1.45024,1.220486 -0.25498,6.972904 1.17627,5.6610129 1.99676,7.7189825 3.58169,8.9836265 l 0.84657,0.6754972 -0.52206,0.7061238 c -0.28713,0.3883681 -0.63637,1.2148949 -0.77609,1.8367263 -0.21987,0.9785929 -0.14198,1.4555897 0.57932,3.54776288 0.85744,2.48704282 1.74682,3.77323172 2.72508,3.94090782 0.82979,0.1422278 2.12306,-0.065177 4.92449,-0.789757 z m 21.16116,-2.74375554 c 3.70776,-0.5696774 6.92244,-1.09437196 7.14375,-1.16598791 0.22131,-0.0716159 0.94266,-1.17230635 1.60299,-2.44597865 0.66034,-1.2736723 2.12927,-4.0719396 3.26429,-6.2183718 1.35447,-2.5614206 1.93536,-3.9026036 1.69029,-3.9026036 -0.20537,0 -1.43618,0.174411 -2.73513,0.38758 -1.29895,0.213169 -4.8025,0.76238 -7.78568,1.220468 -2.98318,0.458088 -5.4384,0.849224 -5.45606,0.869191 -0.22348,0.252745 -6.18561,12.0610287 -6.18561,12.2508934 0,0.3095001 -0.1298,0.3247672 8.46116,-0.99519044 z m 22.80821,-3.52572866 c 1.93783,-0.3523864 5.19021,-0.8915591 7.22751,-1.1981616 2.03729,-0.3066025 3.90532,-0.6193372 4.15118,-0.6949661 0.45159,-0.1389103 2.12239,-2.9944861 5.37208,-9.1814496 l 1.77582,-3.380905 -1.01933,0.150238 c -0.56064,0.08263 -4.16782,0.621772 -8.01596,1.198093 -3.84814,0.57632 -7.08611,1.047854 -7.19549,1.047854 -0.10938,0 -0.8755,1.279922 -1.70248,2.844271 -0.82699,1.564349 -2.32175,4.3586585 -3.3217,6.2095769 -0.99994,1.8509184 -1.81808,3.4284964 -1.81808,3.505729 0,0.2556802 0.98582,0.1472031 4.54645,-0.5002796 z m 28.39417,-4.4020692 c 9.20913,-1.3771885 13.33291,-2.0521013 13.61904,-2.2289432 0.14937,-0.092316 0.26905,-0.8454309 0.26594,-1.6735869 -0.006,-1.709132 -0.85735,-7.987074 -1.14589,-8.453949 -0.36573,-0.591762 -2.09131,-0.654514 -5.81218,-0.211363 -5.58202,0.664813 -6.7743,0.926235 -7.18462,1.575317 -0.35645,0.563885 -6.22458,11.8311687 -6.22458,11.9517145 0,0.035911 0.20836,0.02174 0.46302,-0.031491 0.25466,-0.053231 2.96333,-0.470695 6.01927,-0.9276984 z M 356.73895,-21.984117 c 4.69156,-1.542941 8.62552,-2.894461 8.74213,-3.003377 0.27625,-0.258022 -0.15565,-0.533001 -7.33514,-4.670003 l -6.06477,-3.494681 -2.53418,0.875361 c -1.3938,0.481449 -5.33215,1.781626 -8.75189,2.889284 -3.41974,1.107657 -6.38963,2.07695 -6.59976,2.153983 -0.28255,0.103583 -0.21364,0.230881 0.26458,0.48877 0.35565,0.191789 1.42054,0.796971 2.36643,1.344847 0.94588,0.547877 2.73182,1.559334 3.96875,2.247683 1.23693,0.688349 3.32052,1.861816 4.63021,2.607704 1.30968,0.745889 2.47176,1.358325 2.58239,1.360969 0.11063,0.0026 4.0397,-1.257599 8.73125,-2.80054 z m 28.37386,-9.529169 c 4.65666,-1.546678 8.49847,-2.839153 8.53734,-2.872166 0.0815,-0.06917 -12.95207,-7.745985 -13.52276,-7.964981 -0.20808,-0.07984 -4.05304,1.095247 -8.54437,2.611313 -4.49132,1.516067 -8.33658,2.810763 -8.54502,2.877103 -0.21057,0.06702 1.31787,1.133665 3.43958,2.40037 2.10021,1.253864 5.06872,3.058897 6.59668,4.011185 1.52797,0.952289 2.95672,1.735458 3.175,1.740377 0.21829,0.0049 4.20688,-1.256522 8.86355,-2.803201 z m 34.26632,3.556826 c 1.50892,-0.927544 4.75626,-2.368174 4.9994,-2.217904 0.12408,0.07669 0.28752,0.376175 0.36318,0.665528 0.19498,0.745585 -2.03169,1.722649 -4.43786,1.947341 l -1.84797,0.172566 z m 7.70285,-5.774392 c -0.47191,-2.42005 -2.00497,-6.92549 -2.76759,-8.133562 -0.96288,-1.525309 -2.45278,-2.704196 -4.66813,-3.69369 -2.81584,-1.257699 -3.7095,-1.723076 -3.7095,-1.931737 0,-0.382988 1.00941,-1.047139 3.24792,-2.137005 2.953,-1.437733 4.17957,-2.496861 5.3823,-4.647552 1.15778,-2.0703 1.80683,-4.075862 2.46704,-7.623079 0.27201,-1.461532 0.50579,-2.378378 0.51949,-2.037435 0.0604,1.50235 1.18609,6.146209 1.91335,7.893176 1.41747,3.404901 3.03503,5.056371 6.22288,6.353329 1.56948,0.638533 6.40576,1.670056 7.83004,1.670056 1.48067,0 0.40255,0.435711 -1.91844,0.775317 -4.5872,0.671198 -8.51596,2.322149 -10.16946,4.273435 -1.11804,1.319388 -2.42038,4.301279 -3.06013,7.006634 -1.036,4.380983 -0.91244,4.167134 -1.28977,2.232113 z"
       id="path3" /></g></svg>
