<?xml version="1.0" encoding="UTF-8" standalone="no"?>
<!-- Created with Inkscape (http://www.inkscape.org/) -->

<svg
   width="173.74617mm"
   height="173.07179mm"
   viewBox="0 0 173.74617 173.07179"
   version="1.1"
   id="svg1"
   xml:space="preserve"
   xmlns="http://www.w3.org/2000/svg"
   xmlns:svg="http://www.w3.org/2000/svg"><defs
     id="defs1" /><path
     style="fill:#000000"
     d="m 69.259418,171.88563 c 1.593149,-2.7185 3.270412,-7.78532 3.984122,-12.03559 0.44997,-2.67964 0.50106,-9.2658 0.0771,-9.9426 -0.12095,-0.19309 -0.96629,-0.18004 -2.770791,0.0428 -13.919669,1.71879 -28.076284,0.74558 -39.7707,-2.73406 -15.023042,-4.47006 -25.8291911,-13.33665 -29.4335921,-24.15064 -1.001658,-3.00519 -1.379659,-5.61131 -1.343167,-9.26041 0.07949,-7.9484 3.222297,-15.587213 9.552179,-23.217193 1.9029671,-2.29382 2.7037481,-3.07099 2.7037481,-2.62402 0,0.0484 -0.762629,1.22858 -1.69473,2.62267 -5.9216171,8.85659 -7.9615661,18.365783 -5.7073631,26.604783 2.847507,10.40751 13.5432151,18.77023 29.1407681,22.78448 13.848383,3.56409 28.958805,3.43509 46.495758,-0.39693 l 0.63339,-0.13841 -0.15284,3.52033 c -0.31463,7.24719 -2.77986,16.10003 -6.30984,22.65911 -0.73113,1.35851 -1.26535,2.534 -1.18716,2.61218 0.22543,0.22544 4.06391,-3.08767 6.38786,-5.51353 5.88472,-6.14283 9.85695,-12.12212 14.80046,-22.27874 l 2.42535,-4.98297 4.58944,-1.82745 c 2.5242,-1.0051 6.54929,-2.78058 8.94465,-3.94551 l 4.3552,-2.11805 2.41609,0.28015 c 1.32885,0.15408 4.58912,0.24283 7.24505,0.19722 2.65593,-0.0456 4.82882,0.001 4.82864,0.10454 -3.4e-4,0.20156 -5.48033,3.84861 -8.73156,5.81104 -4.65576,2.81019 -12.82199,6.71953 -16.44934,7.87463 -0.7724,0.24597 -1.3121,0.7804 -2.63645,2.61078 -6.48408,8.96157 -13.24361,15.80943 -21.39546,21.67505 -3.89088,2.79965 -10.776129,6.9525 -11.526971,6.9525 -0.09074,0 0.147825,-0.53376 0.530139,-1.18613 z m 86.006202,-26.85126 c -0.29104,-0.12243 -1.01688,-0.73996 -1.61297,-1.37229 -1.08103,-1.14676 -1.62035,-1.79193 -9.36724,-11.20592 -2.25557,-2.74097 -4.66009,-5.64351 -5.34337,-6.4501 -1.45124,-1.71313 -1.69562,-2.43327 -1.17792,-3.47104 l 0.37756,-0.75683 -2.12082,-1.77527 -2.12082,-1.77528 -1.75262,0.93646 c -4.25329,2.2726 -8.81166,3.36203 -14.09267,3.3681 -4.1114,0.005 -6.81897,-0.4248 -10.23255,-1.62328 -8.85772,-3.10987 -15.53655,-9.5193 -18.80788,-18.04925 -1.43449,-3.740393 -1.74931,-5.658403 -1.72113,-10.485823 0.0226,-3.87283 0.10648,-4.66429 0.74308,-7.01146 1.75729,-6.47921 5.49995,-12.02619 10.81824,-16.03364 13.29695,-10.01955 32.55597,-7.08567 42.72488,6.50864 8.32754,11.13266 7.70231,26.532993 -1.50196,36.995183 -1.53948,1.74988 -1.61927,1.30202 0.72529,4.07141 1.08272,1.2789 1.19131,1.34018 1.9229,1.08514 0.42646,-0.14866 1.0519,-0.20089 1.38987,-0.11607 0.77397,0.19425 18.29138,18.38561 18.86716,19.59302 0.70865,1.48606 0.30864,2.62603 -1.58588,4.51952 -1.71667,1.71573 -4.17784,3.30983 -5.07282,3.28567 -0.29104,-0.008 -0.76729,-0.11446 -1.05833,-0.23689 z M 124.82223,116.6051 c 8.55812,-2.56897 14.49979,-8.75452 16.86055,-17.552603 0.82777,-3.08493 0.77424,-8.30286 -0.12028,-11.72421 -2.33609,-8.93503 -9.26727,-15.76537 -18.43043,-18.16229 -3.66113,-0.95768 -8.57559,-0.94632 -12.31645,0.0285 -10.2261,2.66472 -17.29381,10.76527 -18.4193,21.111 -1.24033,11.401293 6.02147,22.259753 17.37825,25.985463 3.30139,1.08306 4.18233,1.19673 8.58168,1.10737 3.53347,-0.0718 4.42834,-0.18155 6.46598,-0.79321 z m -11.59,-2.69429 c -5.74333,-1.03748 -11.63032,-5.19334 -14.71734,-10.38957 -1.88691,-3.17615 -2.7072,-5.970083 -2.84558,-9.692183 -0.13867,-3.72962 0.27713,-6.12659 1.53687,-8.85962 0.81999,-1.779 0.84811,-1.80586 2.89658,-2.76715 1.44833,-0.67966 2.96781,-1.12773 5.06779,-1.4944 7.83744,-1.36848 8.52053,-1.53084 10.44763,-2.48326 2.31764,-1.14544 3.33939,-2.31286 3.33939,-3.81547 0,-0.5605 -0.0828,-1.15305 -0.18398,-1.31678 -0.23418,-0.37891 -1.85396,-0.37691 -5.64021,0.007 -3.73013,0.37816 -4.45035,0.0256 -1.46153,-0.7155 1.56808,-0.3888 2.96205,-0.50667 5.89065,-0.4981 3.63612,0.0106 3.97107,0.0571 6.41443,0.88981 9.28024,3.16273 15.00014,11.04172 15.01334,20.68046 0.004,3.24088 -0.6624,5.93563 -2.28567,9.236603 -1.06128,2.15813 -1.59477,2.86895 -3.77293,5.02708 -1.44395,1.43066 -3.2778,2.94316 -4.25667,3.51076 -4.80105,2.78387 -9.93594,3.67512 -15.44277,2.68037 z m -6.38536,-13.05258 c 2.79883,-0.67139 4.16058,-1.137983 7.83936,-2.686073 l 3.07686,-1.2948 3.80231,0.0633 c 4.15897,0.0693 4.64785,-0.0609 6.86433,-1.82857 l 0.94536,-0.75392 -4.25265,-0.0814 c -2.33896,-0.0448 -5.08609,-0.0963 -6.10473,-0.1146 -1.42835,-0.0256 -2.30609,0.13444 -3.83646,0.69967 -5.41225,1.99899 -5.70872,2.07883 -8.48811,2.28594 -1.53976,0.11473 -3.22682,0.38712 -3.74902,0.60531 -1.61576,0.6751 -2.0083,2.13661 -0.82407,3.068133 0.87215,0.68603 1.98461,0.69472 4.72682,0.0369 z m -1.19458,-11.129463 c 3.0006,-0.56906 7.67687,-3.75855 7.67687,-5.23608 0,-0.7802 -0.2477,-0.74508 -2.32878,0.3302 -2.83614,1.46541 -3.84567,1.72957 -6.63417,1.73594 -1.88866,0.004 -2.82038,0.13026 -3.60702,0.48763 -1.02185,0.46421 -2.77586,2.16445 -2.77586,2.69076 0,0.33912 5.87034,0.33265 7.66896,-0.008 z m 12.57167,-2.1184 c 1.37293,-0.009 2.26278,-0.1858 3.43958,-0.68501 0.87312,-0.37038 2.36141,-0.94571 3.30729,-1.27851 1.96288,-0.69061 4.38415,-1.8707 4.61947,-2.25146 0.24523,-0.39679 -1.94624,-0.87915 -3.42677,-0.75425 -0.82012,0.0692 -2.36663,0.58372 -4.05869,1.35036 -1.50354,0.68123 -2.90253,1.2386 -3.10886,1.2386 -0.26823,0 -0.37515,-0.33933 -0.37515,-1.19063 0,-0.65484 -0.10994,-1.19062 -0.24432,-1.19062 -0.2423,0 -1.29433,0.76694 -4.42192,3.22363 -1.3846,1.08758 -2.47751,2.27529 -2.47751,2.6924 0,0.0626 1.10133,-0.16894 2.4474,-0.51455 1.38524,-0.35567 3.25118,-0.6334 4.29948,-0.63996 z M 28.186288,126.04208 c -1.18866,-4.03821 -3.060275,-10.37829 -4.159147,-14.08907 -1.098871,-3.71078 -2.298357,-7.9375 -2.665524,-9.3927 -0.78251,-3.101363 -1.691088,-6.055603 -2.463071,-8.008683 -0.574408,-1.45322 -7.698543,-25.19241 -7.698543,-25.65324 0,-0.14478 1.994297,-0.83132 4.431771,-1.52564 2.437474,-0.69432 4.564785,-1.31291 4.727357,-1.37464 0.391125,-0.14852 0.533816,0.458 3.278809,13.93666 2.913324,14.30522 5.427277,26.447503 7.012554,33.870333 0.668189,3.12869 1.496444,7.11729 1.840567,8.86354 0.344122,1.74625 0.934996,4.59199 1.313052,6.32387 0.378056,1.73188 0.642031,3.19422 0.586611,3.24964 -0.106628,0.10663 -3.635904,1.14211 -3.8927,1.14211 -0.0828,0 -1.123077,-3.30398 -2.311736,-7.34218 z m 10.72413,5.06037 c -0.09224,-0.14925 -0.831941,-3.47714 -1.643772,-7.3953 -2.359939,-11.38985 -3.824558,-18.37128 -4.242077,-20.2208 -0.213529,-0.94589 -1.111689,-5.291673 -1.995913,-9.657293 -3.162943,-15.61622 -6.349053,-31.0795 -7.928382,-38.47915 -0.883099,-4.1376 -1.570443,-7.75823 -1.527432,-8.04584 0.06434,-0.43025 0.711225,-0.70118 3.650077,-1.52872 1.964531,-0.55319 3.772939,-1.01045 4.018684,-1.01615 0.537484,-0.0125 0.444331,-0.67146 1.681501,11.8959 0.522882,5.31151 1.424336,13.70542 2.003233,18.65312 0.578896,4.94771 1.401404,12.09146 1.827795,15.875 0.426391,3.78354 1.315685,11.582143 1.976208,17.330213 2.30537,20.06201 2.544734,22.26957 2.446598,22.56398 -0.06534,0.19602 -0.15561,0.2045 -0.26652,0.025 z m 4.605057,-2.81142 c -0.763988,-6.36815 -3.163068,-25.75557 -5.066617,-40.944273 -2.287359,-18.25118 -6.083957,-49.04337 -6.752846,-54.76874 -0.229514,-1.96453 -0.509925,-4.3203 -0.623135,-5.23504 -0.135784,-1.09713 -0.108232,-1.78663 0.08096,-2.02596 0.157737,-0.19954 5.168356,-1.55939 11.13471,-3.0219 5.966354,-1.4625 18.64651,-4.57724 28.178124,-6.92163 30.482219,-7.4974001 34.443169,-8.4600501 34.809769,-8.4600501 0.46572,0 0.66282,0.7957 1.96623,7.9375001 1.36546,7.48182 1.28974,7.18905 1.81773,7.02826 1.27415,-0.38802 19.10306,-4.62394 19.76188,-4.69517 l 0.77817,-0.0841 0.3717,2.18282 c 0.4236,2.48758 0.16405,2.35163 3.46629,1.81555 6.76698,-1.09854 11.20396,-3.56332 13.36129,-7.42233 1.63169,-2.91874 3.5711,-9.9215601 3.5711,-12.89453015 0,-1.56041 0.43653,-0.65383 0.75501,1.56797005 0.64991,4.53404 2.25627,9.6556701 3.76665,12.0094001 2.33676,3.64152 6.75803,5.68357 15.0575,6.9546 2.25558,0.34543 3.95832,0.64004 3.78387,0.65468 -7.90079,0.66338 -14.30978,2.71573 -17.18388,5.50282 -2.25977,2.19134 -4.1483,6.74663 -5.2483,12.65933 -0.24247,1.30333 -0.5388,2.78641 -0.65851,3.29573 l -0.21765,0.92605 -0.0274,-0.83131 c -0.015,-0.45722 -0.26698,-2.02672 -0.55988,-3.48777 -1.36524,-6.81023 -3.09037,-10.72128 -5.63234,-12.76913 -2.59209,-2.08824 -7.02894,-3.87069 -10.76845,-4.32611 -0.80037,-0.0975 -1.79753,-0.24319 -2.21592,-0.32381 -0.44573,-0.0859 -0.69675,-0.0431 -0.60625,0.10332 0.0849,0.13745 0.57623,2.7398 1.09174,5.78298 1.25935,7.43427 3.02081,17.54665 4.51254,25.90599 1.54262,8.64458 2.44177,13.89063 2.3808,13.89063 -0.026,0 -1.19246,-0.76575 -2.59225,-1.70167 -5.77221,-3.85937 -11.15528,-5.62908 -17.94424,-5.89925 -11.01783,-0.43847 -21.2578,4.41784 -27.73464,13.15315 -4.08982,5.51594 -6.10428,11.80391 -6.10428,19.05401 0,7.229793 1.86399,13.073843 6.00801,18.836543 1.36674,1.90061 4.51255,5.1684 6.26936,6.51247 0.4224,0.32317 0.71357,0.642 0.64705,0.70852 -0.0665,0.0665 -4.10306,1.01086 -8.97008,2.09853 -27.36354,6.11513 -39.060969,8.7413 -41.260585,9.26336 -3.145845,0.74664 -3.064144,0.7954 -3.403276,-2.0314 z m 8.959526,-12.76594 c 1.40127,-0.25967 23.933289,-5.22949 24.022279,-5.29853 0.15264,-0.11842 -0.84158,-1.97771 -1.05754,-1.97771 -0.12133,0 -2.09357,0.4175 -4.382769,0.92778 -2.289198,0.51028 -5.769523,1.28391 -7.734054,1.71918 -6.780947,1.5024 -12.763117,2.88426 -12.826199,2.96279 -0.03481,0.0433 -0.0072,0.52902 0.06138,1.07931 0.09573,0.76829 0.22519,0.97246 0.557763,0.87965 0.238205,-0.0665 0.849819,-0.19809 1.359142,-0.29247 z M 63.073587,104.0523 c 7.194891,-1.59792 13.837103,-3.05152 14.760463,-3.23022 l 1.67884,-0.32491 -0.16245,-0.812253 c -0.24553,-1.22767 -0.49467,-1.35017 -2.06192,-1.01378 -9.501213,2.039293 -28.109144,6.174303 -28.204346,6.267513 -0.174474,0.17082 0.514727,2.26188 0.706449,2.14339 0.110738,-0.0684 6.088072,-1.43182 13.282964,-3.02974 z m -4.248586,-9.583063 c 9.941132,-2.12405 18.783249,-4.1217 18.940699,-4.27914 0.0891,-0.0891 0.0204,-0.59135 -0.15281,-1.11606 -0.22736,-0.6889 -0.43689,-0.91995 -0.75398,-0.83144 -0.24151,0.0674 -2.76084,0.6268 -5.598493,1.24306 -24.789947,5.38375 -23.843867,5.11259 -23.440818,6.71846 l 0.153958,0.61342 2.978326,-0.65123 c 1.63808,-0.35818 5.180982,-1.12186 7.873118,-1.69707 z m -9.657291,-6.16808 c 0.961102,-0.17369 26.08496,-5.60971 28.27118,-6.11701 0.85154,-0.19759 1.60927,-0.42026 1.68382,-0.49482 0.0746,-0.0746 -0.11857,-0.54676 -0.42918,-1.04934 -0.37277,-0.60316 -0.7203,-0.87715 -1.02237,-0.80602 -0.25169,0.0593 -2.95793,0.64816 -6.01387,1.30865 -3.055936,0.66048 -9.544841,2.0781 -14.419789,3.15025 -4.874948,1.07216 -9.250494,2.02876 -9.723437,2.12578 -0.472943,0.097 -0.859896,0.22244 -0.859896,0.2787 0,0.0563 0.20107,0.52394 0.446822,1.03929 0.293183,0.61481 0.588857,0.89762 0.859896,0.82248 0.22719,-0.063 0.770261,-0.17907 1.206824,-0.25796 z m 11.254644,-13.64174 c 23.672096,-5.16317 24.455136,-5.33882 24.655616,-5.5306 0.10533,-0.10077 0.11812,-0.6355 0.0284,-1.1883 -0.15053,-0.92761 -0.21629,-0.99142 -0.85297,-0.82772 -0.80757,0.20764 -9.98589,2.21272 -23.576326,5.15044 -11.938578,2.58065 -14.557963,3.15767 -15.147395,3.3368 -0.299788,0.0911 -0.463021,0.40663 -0.463021,0.895 0,0.89831 0.248818,1.63228 0.500599,1.47667 0.09931,-0.0614 6.784101,-1.55191 14.855087,-3.31229 z m -11.27815,-2.68782 c 2.691709,-0.54456 3.06691,-0.68568 3.071917,-1.15539 0.01041,-0.97674 -1.399662,-10.93754 -1.592515,-11.24958 -0.138739,-0.22448 -1.138446,-0.0979 -3.733105,0.4725 -3.058958,0.67254 -3.538451,0.84722 -3.505796,1.27722 0.07066,0.93046 1.465382,10.81488 1.577196,11.17762 0.06385,0.20713 0.325156,0.3048 0.613643,0.22936 0.276345,-0.0723 1.882242,-0.41054 3.56866,-0.75173 z m 10.418098,-2.24632 c 1.704536,-0.37849 3.193405,-0.77635 3.308598,-0.88413 0.115192,-0.10779 0.02823,-1.43523 -0.193244,-2.94987 -0.221476,-1.51464 -0.705508,-5.24711 -1.075626,-8.29438 -0.370118,-3.04727 -0.726369,-5.59392 -0.791668,-5.65922 -0.0653,-0.0653 -1.791197,0.21188 -3.835328,0.61596 l -3.716603,0.73468 0.139061,0.8235 c 0.195482,1.1576 2.252123,15.86166 2.252335,16.10317 2.79e-4,0.31832 0.626415,0.23994 3.912475,-0.48971 z m 10.579015,-2.23366 c 1.598883,-0.31856 3.064743,-0.67666 3.257473,-0.79577 0.28277,-0.17476 0.29573,-0.64131 0.0671,-2.41668 -1.86554,-14.48879 -2.58535,-19.69843 -2.747439,-19.88468 -0.106293,-0.12214 -1.821568,0.11534 -3.811723,0.52773 l -3.618463,0.7498 0.140822,0.79518 c 0.07745,0.43736 0.742956,5.26004 1.478897,10.71707 1.550667,11.49825 1.498161,11.20431 1.969143,11.02358 0.196401,-0.0754 1.665268,-0.39767 3.26415,-0.71623 z m 10.616933,-2.26675 c 1.83395,-0.37986 3.44016,-0.78917 3.56935,-0.90958 0.13583,-0.1266 -0.06,-2.3738 -0.46443,-5.32862 -0.38462,-2.81033 -0.76711,-5.62639 -0.84997,-6.2579 -0.13324,-1.01544 -0.2172,-1.13212 -0.7262,-1.00914 -0.31655,0.0765 -1.97453,0.40934 -3.6844,0.73968 -2.37376,0.4586 -3.10761,0.69721 -3.10361,1.00914 0.003,0.22469 0.12778,1.24196 0.27755,2.26061 0.32553,2.21404 1.30399,9.70619 1.30441,9.98802 4.1e-4,0.27356 -0.0568,0.28122 3.6773,-0.49221 z m 19.87092,-8.27251 c 5.02046,-1.14675 12.49164,-2.84171 16.6026,-3.76657 l 7.47448,-1.68156 -0.004,-0.798 c -0.009,-1.70458 1.5289,-1.96233 -24.99908,4.19066 -4.07458,0.94508 -7.85613,1.80032 -8.40344,1.90055 -1.20936,0.22147 -1.35498,0.42623 -1.13543,1.59656 0.14451,0.77031 0.2608,0.89019 0.75383,0.77709 0.32063,-0.0736 4.69062,-1.07198 9.71109,-2.21873 z m -6.55943,-7.6996 c 13.44416,-3.09239 26.8028,-6.10675 27.6962,-6.24961 1.41622,-0.22646 1.5516,-0.36952 1.41515,-1.49545 -0.0831,-0.68592 -0.25173,-0.99218 -0.54624,-0.99218 -0.23431,0 -2.57277,0.4899 -5.19658,1.08866 -12.54758,2.86342 -28.84622,6.62854 -28.87391,6.67012 -0.017,0.0255 0.0247,0.49291 0.0928,1.03861 0.0742,0.5951 0.26654,0.99219 0.48063,0.99219 0.19631,0 2.41571,-0.47355 4.93199,-1.05234 z m -40.62009,-8.32688 c 12.988958,-3.1619 29.9298,-7.27066 38.91129,-9.43738 6.42593,-1.55021 6.94531,-1.71829 6.94531,-2.24758 0,-0.73633 -2.05187,-11.76755 -2.22013,-11.93581 -0.0699,-0.0699 -5.22473,1.1231 -11.45508,2.65121 -6.23035,1.5281 -18.858109,4.60617 -28.06168,6.84014 -13.769282,3.3422 -16.733965,4.13949 -16.734895,4.50052 -6.21e-4,0.24132 0.47512,3.03521 1.057203,6.20866 0.582084,3.17344 1.058334,5.80373 1.058334,5.84509 0,0.13068 0.03175,0.12334 10.499648,-2.42485 z m 49.42847,-2.89945 c 8.00365,-1.81012 15.54572,-3.50863 16.76015,-3.77446 l 2.20807,-0.48333 -0.1353,-1.01404 c -0.0744,-0.55772 -0.1905,-1.06924 -0.25798,-1.13671 -0.10848,-0.10848 -6.17167,1.23531 -20.95619,4.64454 -2.47385,0.57046 -6.46244,1.48108 -8.86354,2.02361 -2.40109,0.54252 -4.39934,1.01208 -4.44054,1.04345 -0.0412,0.0314 0.004,0.55223 0.10104,1.15746 0.13617,0.85155 0.27278,1.0699 0.60409,0.96551 0.23546,-0.0742 6.97656,-1.61591 14.9802,-3.42603 z m 25.72522,-15.92701 c -0.0879,-0.0879 -0.31612,-0.0973 -0.50712,-0.0209 -0.21107,0.0845 -0.14837,0.14715 0.15985,0.15985 0.27892,0.0115 0.43519,-0.0511 0.34727,-0.13896 z m 20.17999,90.587233 c 0,-0.098 0.40875,-1.3074 0.90833,-2.68751 1.21266,-3.35005 2.40236,-8.16325 2.81965,-11.407583 0.29944,-2.32816 0.45858,-2.82056 1.32536,-4.10105 1.57657,-2.32905 3.62379,-6.52217 4.44963,-9.11375 1.12001,-3.51469 1.44476,-6.00398 1.27178,-9.74853 -0.46362,-10.03661 -6.36414,-18.25686 -17.64818,-24.58637 -2.52839,-1.41824 -2.42348,-1.59004 0.35822,-0.58662 7.0078,2.52785 13.66542,7.25837 17.65739,12.54632 1.86722,2.4734 4.08236,7.07472 4.90561,10.19 0.60758,2.29917 0.7027,3.20049 0.72603,6.87916 0.0199,3.13256 -0.0943,4.79469 -0.43918,6.39215 -1.48145,6.86274 -4.89351,13.43997 -10.43004,20.105363 -2.11519,2.54647 -5.9046,6.4731 -5.9046,6.11842 z M 111.60195,16.341557 C 111.27945,14.986587 109.625,5.7389469 109.625,5.2913169 c 0,-0.272 0.11259,-0.49455 0.25021,-0.49455 0.24605,0 2.60516,1.04905 10.99458,4.8891 2.32833,1.0657401 4.81728,2.1890501 5.53099,2.4962601 0.71371,0.30721 1.24722,0.609 1.18557,0.67065 -0.0617,0.0616 -3.65313,0.99888 -7.98106,2.08273 -7.71763,1.93274 -7.87155,1.95979 -8.00334,1.40605 z"
     id="path17" /></svg>
