<?xml version="1.0" encoding="UTF-8" standalone="no"?>
<!-- Created with Inkscape (http://www.inkscape.org/) -->

<svg
   width="190.16548mm"
   height="154.24838mm"
   viewBox="0 0 190.16548 154.24838"
   version="1.1"
   id="svg1"
   xml:space="preserve"
   xmlns="http://www.w3.org/2000/svg"
   xmlns:svg="http://www.w3.org/2000/svg"><defs
     id="defs1" /><g
     id="layer1"
     transform="translate(-12.932235,-62.086897)"><path
       style="fill:#000000"
       d="m 90.304345,216.06538 c -0.289097,-0.34834 -0.287891,-0.45796 0.007,-0.64024 0.385141,-0.23803 1.065314,-0.0745 1.065314,0.25618 0,0.11214 -0.162797,0.33899 -0.361771,0.50412 -0.275939,0.22901 -0.444529,0.20053 -0.710591,-0.12006 z m -11.727197,-1.53437 c -0.262511,-1.04593 -1.641297,-2.45889 -2.610443,-2.67515 -0.859609,-0.19181 -0.860095,-0.19285 -0.184963,-0.3939 1.317676,-0.39241 1.792406,-0.80987 2.472143,-2.17392 0.386691,-0.77599 0.687838,-1.15416 0.688395,-0.86447 0.0018,0.91135 1.035693,2.25094 2.107859,2.73096 l 1.039583,0.46544 -0.874841,0.31634 c -1.090485,0.39433 -1.698622,1.05324 -2.1299,2.30775 -0.3291,0.95728 -0.338286,0.96247 -0.507833,0.28695 z m 10.286017,-4.1848 c 0.727604,-0.13726 3.644635,-0.67302 6.482291,-1.19057 18.997554,-3.46496 40.038464,-10.69224 59.462384,-20.42454 6.60238,-3.30811 16.77599,-9.34018 20.64022,-12.23787 3.02782,-2.27049 0.65169,0.33961 -3.91095,4.29604 -4.15529,3.60322 -11.11971,8.36109 -17.94882,12.26207 -12.47524,7.12621 -26.16514,12.28563 -39.98658,15.07006 -7.00078,1.41035 -18.314045,2.5865 -24.077087,2.50309 l -1.984375,-0.0287 z M 65.908583,209.4037 c -0.382328,-0.42486 -0.379603,-0.51309 0.03145,-1.01829 l 0.450052,-0.55313 0.443726,0.58826 c 0.41695,0.55276 0.415052,0.61421 -0.03145,1.01829 -0.439435,0.39768 -0.506666,0.39504 -0.893778,-0.0351 z m 24.296027,-4.80081 c -0.07975,-0.12903 0.01838,-0.3702 0.218069,-0.53592 0.277097,-0.22997 0.397387,-0.21187 0.508024,0.0764 0.226171,0.58939 -0.400653,0.98604 -0.726093,0.45947 z m 4.876263,-0.95602 c 0,-0.24253 0.127992,-0.39831 0.284427,-0.34616 0.156435,0.0521 0.284427,0.20792 0.284427,0.34616 0,0.13825 -0.127992,0.29402 -0.284427,0.34616 -0.156435,0.0521 -0.284427,-0.10362 -0.284427,-0.34616 z m 11.230547,-1.74284 c -0.27266,-0.44118 0.34057,-0.94708 0.70557,-0.58209 0.3053,0.30531 0.11422,0.86972 -0.29445,0.86972 -0.12835,0 -0.31335,-0.12943 -0.41112,-0.28763 z m 3.18924,-0.7707 c -0.0899,-0.14552 -0.0374,-0.26458 0.11668,-0.26458 0.15411,0 0.2802,0.11906 0.2802,0.26458 0,0.14552 -0.0525,0.26458 -0.11668,0.26458 -0.0642,0 -0.19026,-0.11906 -0.2802,-0.26458 z M 63.992333,199.40927 C 49.007792,197.7903 37.865641,193.99785 28.106231,187.19472 15.652168,178.5132 10.329865,166.12363 14.14672,154.69896 c 1.645429,-4.92513 4.380051,-9.03914 9.233224,-13.89063 4.228175,-4.2267 7.922706,-7.01566 14.286349,-10.78461 4.190001,-2.48158 4.431081,-2.40612 0.599085,0.18751 -6.522786,4.41485 -12.327017,10.49132 -15.085019,15.79255 -2.86073,5.49868 -2.947673,11.5703 -0.2426,16.94186 4.951327,9.83202 17.891155,17.82872 34.969158,21.61063 6.122283,1.35578 14.249708,2.52668 17.857752,2.57274 0.801257,0.0102 1.694955,0.12858 1.985997,0.26301 0.960164,0.44348 -16.265072,0.10019 -19.843749,-0.39548 -11.841021,-1.64006 -23.432979,-5.86009 -30.290017,-11.02703 -5.411045,-4.07734 -8.497542,-8.09853 -10.233893,-13.33305 l -0.614357,-1.85209 0.155567,2.0817 c 0.670148,8.96744 8.076823,18.55874 18.286687,23.6804 10.378018,5.20602 19.976784,6.79732 35.26372,5.84608 11.463592,-0.71333 20.368488,-2.22612 32.676036,-5.5511 3.88815,-1.05041 5.44256,-1.33835 8.46667,-1.56834 11.9903,-0.9119 36.97564,-10.45204 51.85833,-19.80104 3.40495,-2.13892 5.4734,-3.61628 4.16719,-2.97635 -0.58089,0.28458 -0.7451,0.12599 -0.62203,-0.60073 0.031,-0.18297 -1.98289,0.85922 -2.75141,1.42385 -0.88098,0.64727 -6.73015,3.82447 -10.45104,5.67689 -8.44918,4.20636 -16.0686,7.22318 -26.59062,10.52825 -5.6116,1.76266 -7.14401,2.21228 -9.26042,2.71706 -1.23137,0.29369 1.08396,-0.7541 6.23063,-2.81963 33.862,-13.58998 60.13661,-33.8039 65.71993,-50.56052 2.46619,-7.40151 1.58487,-13.1605 -2.87626,-18.79507 -1.41979,-1.79326 -5.19298,-4.89334 -7.36454,-6.05077 -0.85489,-0.45565 -1.5019,-0.8809 -1.43781,-0.94499 0.14443,-0.14443 1.99862,0.58817 4.94784,1.9549 5.72209,2.65175 10.54726,7.90197 12.21756,13.29379 0.8688,2.80453 0.87255,8.87041 0.007,12.0792 -0.95946,3.55888 -3.16029,8.2308 -4.62364,9.81507 -0.30243,0.32742 -0.43982,0.58829 -0.30532,0.57971 0.13451,-0.009 0.85075,-0.75272 1.59165,-1.65365 4.43092,-5.38794 6.19786,-9.72249 6.18963,-15.18402 -0.006,-3.77355 -0.94232,-7.13817 -2.84648,-10.22537 -0.99484,-1.61293 -0.52729,-1.39924 1.19295,0.54523 4.43642,5.01469 6.47875,10.03614 6.48723,15.95008 0.0192,13.37078 -12.51951,28.25034 -35.38917,41.99603 -23.24664,13.97228 -51.31692,23.63214 -77.948645,26.82456 -6.038601,0.72386 -20.539961,0.92853 -25.768012,0.36368 z m 25.699937,-5.69189 c 2.163367,-0.29524 4.330311,-0.62349 4.81543,-0.72945 l 0.882035,-0.19267 -1.182095,-0.34903 c -1.064757,-0.31438 -1.493729,-0.28186 -4.321618,0.32769 -1.726738,0.37219 -2.603742,0.61959 -1.948899,0.54978 0.9633,-0.1027 1.095546,-0.0703 0.692642,0.16989 -0.292069,0.17409 -1.057898,0.23736 -1.852083,0.153 -0.801286,-0.0851 -1.138067,-0.0568 -0.824933,0.0695 0.444472,0.17917 0.380951,0.23253 -0.396875,0.33336 -0.509323,0.066 -0.672007,0.1391 -0.36152,0.16239 0.310487,0.0233 2.33455,-0.19921 4.497916,-0.49444 z m 3.222327,-1.23146 c 0.190996,-0.0764 0.419199,-0.067 0.507118,0.0209 0.08792,0.0879 -0.06835,0.15045 -0.347265,0.13896 -0.308225,-0.0127 -0.37092,-0.0754 -0.159853,-0.15985 z m 28.360023,6.25311 c -0.65484,-0.26804 -1.54781,-0.49858 -1.98437,-0.51232 l -0.79375,-0.025 0.79375,-0.4237 c 0.43656,-0.23304 1.26518,-0.79382 1.84138,-1.24618 0.99568,-0.7817 1.1669,-0.82277 3.45298,-0.82837 l 2.40535,-0.006 -1.46861,1.09285 c -0.80773,0.60106 -1.75725,1.40738 -2.11004,1.79182 -0.73575,0.80177 -0.58749,0.79089 -2.13669,0.15677 z m 13.36146,-5.80778 c 0.0899,-0.14552 0.33509,-0.26459 0.54478,-0.26459 0.20969,0 0.38126,0.11907 0.38126,0.26459 0,0.14552 -0.24515,0.26458 -0.54478,0.26458 -0.29963,0 -0.4712,-0.11906 -0.38126,-0.26458 z m -73.686455,-2.91042 c 0,-0.14552 0.178594,-0.26458 0.396875,-0.26458 0.218281,0 0.396875,0.11906 0.396875,0.26458 0,0.14552 -0.178594,0.26458 -0.396875,0.26458 -0.218281,0 -0.396875,-0.11906 -0.396875,-0.26458 z m -12.898437,-1.18821 c -1.149705,-0.49971 -1.088229,-0.92935 0.132292,-0.92456 1.087908,0.004 2.211587,0.47041 2.382404,0.98829 0.149972,0.45468 -1.413114,0.41506 -2.514696,-0.0637 z m -7.745598,-2.24485 c -1.751131,-0.22604 -2.306414,-0.50395 -4.267125,-2.13567 l -1.500196,-1.24848 1.630157,0.059 c 1.54343,0.0559 2.961038,0.54788 3.879117,1.34633 0.218281,0.18983 1.104245,0.77079 1.968809,1.29101 1.555349,0.93587 1.562329,0.94548 0.661459,0.91116 -0.500762,-0.0191 -1.568262,-0.1196 -2.372221,-0.22337 z m 111.59455,-0.71807 c -0.61792,-0.16148 -0.58375,-0.40571 0.15372,-1.09852 0.5988,-0.56255 0.62963,-0.56514 1.06047,-0.0891 0.41607,0.45975 0.41343,0.51776 -0.0423,0.93015 -0.26729,0.2419 -0.53615,0.42601 -0.59745,0.40913 -0.0613,-0.0169 -0.31982,-0.0851 -0.57448,-0.15169 z m -66.719194,-3.22169 c -0.113975,-0.18442 -0.135774,-0.40676 -0.04844,-0.49409 0.236792,-0.23679 0.494974,0.11147 0.36708,0.49515 -0.08962,0.26887 -0.151942,0.26866 -0.318638,-0.001 z m -7.20306,-1.76416 -0.56653,-0.61444 0.629903,-0.59177 c 0.590701,-0.55493 0.660189,-0.56435 1.11653,-0.15137 0.267645,0.24222 0.648355,0.44039 0.846024,0.44039 0.213681,0 0.05107,0.32182 -0.401064,0.79375 -0.418254,0.43657 -0.827482,0.78118 -0.909397,0.76582 -0.08192,-0.0154 -0.403875,-0.30444 -0.715466,-0.64238 z m 17.075824,0.42329 c -1.233047,-0.24083 -3.319812,-1.46681 -3.697322,-2.17219 -0.162048,-0.30279 -0.520762,-1.95969 -0.797142,-3.682 -0.727109,-4.53111 -1.71834,-6.89023 -3.236448,-7.7027 -0.315308,-0.16874 -1.109747,-0.455 -1.765419,-0.63612 -1.041062,-0.28758 -1.091546,-0.33208 -0.39838,-0.35109 0.436562,-0.012 1.586649,0.0531 2.555748,0.14465 1.712581,0.16177 1.77386,0.19326 2.184884,1.1226 0.232586,0.52589 0.542893,2.14369 0.68957,3.59511 0.282256,2.79302 0.795135,4.16218 2.067984,5.52061 1.107932,1.18243 1.956887,1.49774 4.032622,1.49774 2.803087,0 9.174503,-1.09331 11.797873,-2.02446 0.31179,-0.11067 0.16369,0.16747 -0.41652,0.78224 -1.50951,1.59945 -5.8311,3.37236 -9.445921,3.87513 -2.172786,0.30221 -2.179939,0.30227 -3.571529,0.0305 z m 64.99367,7.2e-4 c -0.19567,-0.3166 0.30205,-0.6303 0.65447,-0.41249 0.2959,0.18288 0.10165,0.65879 -0.2689,0.65879 -0.12834,0 -0.30185,-0.11083 -0.38557,-0.2463 z M 26.871293,178.85541 C 26.501875,178.486 26.447909,177.85 26.78598,177.85 c 0.127702,0 0.384594,0.18364 0.57087,0.40809 0.429617,0.51765 -0.01646,1.06642 -0.485557,0.59732 z m 55.419091,-0.12576 c -0.09575,-0.0958 -0.174094,-0.33285 -0.174094,-0.52688 0,-0.39415 0.68206,-0.48296 0.907514,-0.11817 0.180062,0.29135 -0.494149,0.88432 -0.73342,0.64505 z m 82.111316,-0.0859 c 0,-0.14552 0.11907,-0.26459 0.26459,-0.26459 0.14552,0 0.26458,0.11907 0.26458,0.26459 0,0.14552 -0.11906,0.26458 -0.26458,0.26458 -0.14552,0 -0.26459,-0.11906 -0.26459,-0.26458 z M 58.568375,178.37916 c 0,-0.14552 0.119062,-0.26458 0.264583,-0.26458 0.145521,0 0.264584,0.11906 0.264584,0.26458 0,0.14552 -0.119063,0.26459 -0.264584,0.26459 -0.145521,0 -0.264583,-0.11907 -0.264583,-0.26459 z m 58.525835,-2.69875 c -0.45975,-0.45974 -0.39022,-0.94788 0.17836,-1.25217 0.37744,-0.202 0.59911,-0.15129 0.92818,0.21233 0.40106,0.44316 0.39718,0.50951 -0.0537,0.91752 -0.57992,0.52482 -0.64305,0.53215 -1.05287,0.12232 z m -67.486679,-0.48654 c -0.51269,-0.42708 -0.567258,-0.59321 -0.300455,-0.91468 0.214706,-0.25871 0.564098,-0.33687 1.023345,-0.22893 0.992822,0.23334 1.185158,0.48958 0.844823,1.1255 -0.368315,0.6882 -0.75789,0.6927 -1.567713,0.0181 z m 17.162927,-0.92781 c -2.43932,-0.68265 -4.163664,-1.61188 -5.716685,-3.08066 -2.526523,-2.38948 -3.151757,-4.26509 -2.629301,-7.88749 0.271007,-1.879 0.356757,-2.11838 0.521267,-1.4552 0.64837,2.61371 1.857095,4.49618 4.396645,6.84736 2.847711,2.63647 6.688963,4.58864 9.645782,4.90208 1.526801,0.16185 1.562308,0.18237 0.928637,0.5366 -0.98865,0.55266 -5.361915,0.63669 -7.146345,0.13731 z m 28.632359,-0.26858 c -0.892419,-0.62508 -1.416956,-1.8603 -1.669921,-3.93246 -0.645191,-5.28509 -1.7103,-7.23341 -4.283286,-7.83508 -0.759107,-0.17751 -2.298047,-0.60878 -3.419866,-0.95839 -1.899705,-0.59202 -2.105043,-0.60832 -2.992286,-0.23761 -0.523937,0.21892 -1.868272,1.34119 -2.987411,2.49395 -1.837075,1.89227 -2.253331,2.17939 -4.283756,2.95488 -3.387593,1.29383 -4.31746,1.31404 -6.517491,0.14163 -2.501581,-1.33311 -5.533083,-3.70602 -6.92711,-5.42222 -1.711107,-2.10655 -1.565184,-2.70751 1.675449,-6.9001 1.226279,-1.5865 2.508736,-4.15062 2.508736,-5.01591 0,-0.93797 -3.781633,-6.25082 -4.838165,-6.79717 -0.898798,-0.46479 -5.373324,-0.52108 -7.200376,-0.0906 -2.243303,0.52858 -4.327245,0.11022 -4.734249,-0.95042 -0.13951,-0.36355 -0.04353,-0.41 0.563249,-0.27258 2.213214,0.50126 2.451208,0.50651 2.451208,0.0541 0,-0.51648 -3.589014,-2.35312 -4.266411,-2.18329 -0.470237,0.1179 -0.989699,-0.78722 -1.873818,-3.26495 -0.657462,-1.84253 -0.951035,-6.62544 -0.492033,-8.01622 0.489197,-1.48229 1.554284,-2.21718 3.511143,-2.42264 2.845137,-0.29872 6.115208,-0.95491 7.250859,-1.455 1.16883,-0.51469 2.335871,-1.85291 2.548951,-2.92281 0.07245,-0.3638 0.388863,-1.62667 0.703131,-2.80637 0.448972,-1.68536 0.511362,-2.30282 0.291195,-2.8819 -0.418487,-1.10071 -3.837467,-4.38402 -6.019371,-5.78052 -1.791491,-1.14662 -1.918229,-1.2899 -1.918229,-2.16865 0,-2.32168 3.846922,-7.31615 7.428803,-9.644832 1.552946,-1.009616 1.818387,-1.095299 3.081597,-0.994733 1.385859,0.11033 1.794653,0.318359 6.620019,3.368825 2.094789,1.32426 3.527307,1.37566 5.808606,0.2084 0.989733,-0.506409 2.370677,-1.134602 3.068765,-1.395984 2.030061,-0.760105 2.337605,-1.73773 1.997299,-6.34905 -0.243563,-3.300395 -0.235844,-3.39059 0.342867,-4.0066 1.244788,-1.325016 7.666208,-2.711665 10.914422,-2.356873 2.781457,0.30381 3.575233,0.60342 3.74654,1.414128 0.318786,1.508652 3.081599,7.851013 3.734062,8.571976 0.461339,0.509775 6.771081,2.597187 7.850661,2.597187 1.06365,0 1.98546,-0.453075 3.44559,-1.693536 1.87793,-1.5954 3.85805,-2.80438 4.59313,-2.80438 1.06287,0 3.49142,0.989822 5.49979,2.241582 2.09719,1.307118 4.62826,3.451559 4.62826,3.92127 0,0.20063 -0.10008,0.1929 -0.3175,-0.0245 -0.37295,-0.37295 -0.74083,-0.415032 -0.74083,-0.0847 0,0.12801 0.5254,0.90936 1.16755,1.73632 1.02664,1.32211 1.18836,1.438 1.33999,0.96024 0.0948,-0.29883 0.0824,-0.69322 -0.0277,-0.87642 -0.13868,-0.23079 -0.0627,-0.22156 0.2475,0.03 0.66003,0.53538 0.57063,0.81659 -0.76837,2.41687 -1.64003,1.96006 -2.21068,3.25625 -2.21773,5.03744 -0.005,1.37854 0.0863,1.59034 1.51554,3.49636 0.83674,1.11591 1.83893,2.49715 2.22708,3.06943 0.53807,0.79331 1.07236,1.17851 2.24896,1.62139 1.38941,0.52298 1.83721,0.56282 4.49261,0.39967 2.6064,-0.16015 3.08665,-0.1205 4.12974,0.34091 1.72386,0.76254 2.94937,2.56926 4.16688,6.14305 0.4399,1.29125 0.61916,2.57571 0.72164,5.17093 0.13447,3.40529 0.12709,3.4637 -0.53446,4.23334 l -0.67081,0.7804 -3.92889,0.1552 c -3.67674,0.14524 -4.00153,0.20105 -5.06073,0.8697 -1.23864,0.78192 -1.30861,0.91752 -2.44173,4.73175 -0.69962,2.35501 -0.74187,2.70019 -0.42309,3.45688 0.65692,1.55936 2.72611,3.74978 5.11958,5.41955 2.26019,1.57678 2.98395,2.41228 2.98395,3.44464 0,0.7285 -1.77674,4.23907 -3.04483,6.01614 -1.0595,1.48475 -3.23647,3.57835 -4.8854,4.69828 -1.4278,0.96975 -3.40537,0.30848 -6.00234,-2.00709 -0.55902,-0.49844 -1.89794,-1.5429 -2.97539,-2.32101 -2.5839,-1.86606 -3.60548,-1.91857 -6.29061,-0.32336 -1.01041,0.60027 -2.3275,1.28762 -2.92687,1.52744 -1.51533,0.60631 -1.66493,1.20046 -1.4835,5.89178 0.0992,2.56545 0.051,4.1469 -0.14146,4.63466 -0.47296,1.19898 -2.4576,1.79743 -9.42356,2.8416 -4.169118,0.62493 -5.130337,0.64223 -5.895763,0.10611 z m 8.277013,-26.43227 c 6.88198,-2.04128 11.78662,-6.61394 13.67837,-12.75251 0.76462,-2.48114 0.81206,-7.64728 0.0931,-10.14395 -1.87967,-6.52774 -7.09682,-11.97197 -14.03609,-14.64702 -3.17248,-1.22298 -5.192708,-1.57934 -8.995835,-1.58686 -10.130206,-0.02 -18.5814,6.17204 -20.602961,15.09548 -2.171187,9.58391 4.374296,19.98138 14.908473,23.68204 2.884591,1.01336 4.731392,1.25777 8.737196,1.15631 3.198137,-0.081 4.232657,-0.2147 6.217707,-0.80349 z m 8.17752,-9.79959 c 1.1244,-4.02239 0.341,-8.2654 -2.22271,-12.03854 -3.71516,-5.46779 -9.61882,-8.46666 -16.667672,-8.46666 -6.159379,0 -11.190468,2.21351 -14.071853,6.19115 -1.061708,1.46564 -0.925817,0.76732 0.343508,-1.76526 1.992636,-3.97572 6.15314,-7.34511 10.550584,-8.54438 6.968578,-1.90048 14.929363,-0.0609 19.455613,4.49587 1.95878,1.97198 3.00925,3.55067 4.12075,6.19282 0.74322,1.76674 0.86816,2.40463 0.96739,4.93917 0.10567,2.69925 0.0547,3.09279 -0.70243,5.42396 -0.449,1.38245 -1.06493,2.87073 -1.36873,3.30729 -0.36376,0.52272 -0.50186,0.61306 -0.40445,0.26458 z m -33.789102,33.93281 c 0.766174,-1.19761 2.047426,-2.81641 2.148858,-2.71498 0.130932,0.13093 -1.997054,3.04571 -2.223575,3.04571 -0.07528,0 -0.04166,-0.14882 0.07472,-0.33073 z m 48.339782,-1.74601 c -0.59637,-0.27899 -1.787,-1.04466 -2.64584,-1.70151 -0.85884,-0.65685 -2.57356,-1.71256 -3.81048,-2.34603 -1.88392,-0.96481 -2.49578,-1.15176 -3.76958,-1.15176 -0.83634,0 -1.52094,-0.0752 -1.52135,-0.16703 -0.001,-0.26296 1.60655,-1.41911 2.86398,-2.05956 l 1.14492,-0.58315 0.97174,0.72612 c 0.53446,0.39937 1.86471,1.52136 2.95612,2.49332 2.68668,2.39263 3.90005,2.9853 5.82648,2.84596 1.22527,-0.0886 1.87087,-0.33832 3.49966,-1.3535 1.97041,-1.2281 5.82569,-4.97422 6.85323,-6.65917 0.72448,-1.18801 0.61891,-0.18117 -0.16745,1.59692 -1.16938,2.64417 -3.80111,5.46551 -7.21695,7.73691 -1.74183,1.15824 -3.39727,1.36498 -4.98448,0.62248 z m -90.942192,-3.91607 c -0.09944,-0.0994 -0.180795,-0.38753 -0.180795,-0.6402 0,-0.25268 -0.436606,-0.80967 -0.970235,-1.23776 l -0.970234,-0.77835 0.815397,-0.48166 c 0.448468,-0.26492 0.952242,-0.78201 1.119497,-1.1491 l 0.3041,-0.66743 0.31878,0.63941 c 0.175329,0.35168 0.784939,0.9009 1.354689,1.22049 l 1.035909,0.58108 -1.006386,0.59378 c -0.553512,0.32658 -1.148932,0.9328 -1.323156,1.34716 -0.174225,0.41435 -0.398129,0.67201 -0.497566,0.57258 z m 9.873371,-6.96597 c 0,-0.15591 -0.297656,-0.39665 -0.661458,-0.53497 -0.705525,-0.26824 -0.784679,-0.45431 -0.430742,-1.01259 0.177026,-0.27923 0.447109,-0.29069 1.318865,-0.0559 0.602939,0.16236 1.09251,0.43943 1.087937,0.61572 -0.01034,0.39854 -1.314602,1.37857 -1.314602,0.98779 z m 103.312621,-0.28197 c -0.0939,-0.1519 -0.0256,-0.45102 0.15178,-0.66472 0.24637,-0.29686 0.40861,-0.31706 0.6875,-0.0856 0.27609,0.22914 0.29188,0.3911 0.0648,0.66472 -0.35877,0.4323 -0.6715,0.46191 -0.90407,0.0856 z m 9.06526,-4.63806 c -0.22651,-1.13255 -1.17039,-2.2128 -2.41902,-2.76853 -0.71437,-0.31795 -0.90277,-0.48864 -0.55366,-0.50162 0.95074,-0.0354 2.15035,-0.99198 2.72123,-2.17005 0.4179,-0.86235 0.56303,-1.00646 0.57288,-0.56884 0.0185,0.82185 1.41669,2.32497 2.4523,2.63631 l 0.86817,0.26101 -0.92604,0.40458 c -1.16758,0.51012 -1.75086,1.16358 -2.20216,2.46713 l -0.35603,1.02837 z m -96.238299,-3.43433 c -0.509322,-0.53706 -1.402291,-1.19744 -1.984374,-1.46752 -1.466736,-0.68054 -4.713486,-0.66849 -7.14375,0.0265 -5.426617,1.55187 -9.142336,-0.47181 -10.862092,-5.91581 -1.295082,-4.09966 -1.075644,-8.01959 0.656101,-11.72024 0.432015,-0.92319 0.821502,-1.67863 0.865528,-1.67874 0.04403,-1.1e-4 0.03867,1.13448 -0.0119,2.52133 -0.160248,4.39438 0.829701,8.23543 3.123315,12.1186 1.437061,2.43299 2.195018,3.13585 3.86725,3.58614 0.922001,0.24827 1.516464,0.17768 4.225966,-0.50181 3.37871,-0.84732 4.260583,-0.93221 5.623497,-0.54133 1.413082,0.40527 2.791428,2.35936 2.648158,3.75433 l -0.08165,0.79502 z m -28.974188,-2.91197 -0.796066,-1.63267 1.113702,-0.9688 c 1.039542,-0.90429 1.131518,-0.93551 1.381266,-0.46886 0.147161,0.27498 0.629302,0.64979 1.071426,0.83292 0.822491,0.34069 1.08214,0.79794 0.453107,0.79794 -0.454657,0 -1.310539,0.94332 -1.933825,2.13139 l -0.493545,0.94076 z m 115.356837,-4.61868 c -0.46746,-0.51653 -0.46708,-0.5448 0.0121,-0.89514 0.36364,-0.2659 0.61423,-0.28716 0.94559,-0.0802 0.40856,0.25515 0.41314,0.3391 0.0488,0.89515 -0.48447,0.73939 -0.41491,0.73385 -1.00644,0.0802 z m -13.88682,-1.42523 c 0,-0.0514 0.17788,-0.51916 0.39529,-1.0395 0.45725,-1.09436 0.76379,-1.18202 4.52867,-1.29511 2.3892,-0.0718 2.40724,-0.0676 2.04877,0.47913 -0.54564,0.83215 -1.33976,1.11709 -3.65523,1.31156 -1.15855,0.0973 -2.37894,0.28051 -2.71198,0.40713 -0.33303,0.12662 -0.60552,0.18817 -0.60552,0.13679 z M 165.32774,139.75 c -0.10561,-0.17088 -0.0729,-0.42975 0.0726,-0.57528 0.17639,-0.17638 0.32859,-0.16102 0.4566,0.0461 0.10561,0.17088 0.073,0.42976 -0.0726,0.57528 -0.17639,0.17639 -0.32859,0.16102 -0.45661,-0.0461 z m -8.64193,-1.96011 -0.70443,-0.62048 0.77754,-0.57485 0.77753,-0.57485 0.78619,0.55981 0.78619,0.55982 -0.76519,0.64387 c -0.42086,0.35413 -0.80754,0.64011 -0.8593,0.63551 -0.0517,-0.005 -0.41109,-0.28757 -0.79853,-0.62883 z m 19.09298,-2.62398 c 0,-0.19291 -0.29382,-0.62678 -0.65292,-0.96414 l -0.65292,-0.61339 0.65292,-0.77595 c 0.3591,-0.42677 0.65818,-1.0347 0.66461,-1.35096 0.01,-0.46799 0.10425,-0.39996 0.50898,0.36551 0.27351,0.51728 0.79616,1.07669 1.16144,1.24313 l 0.66416,0.30261 -1.07197,1.07197 c -1.17999,1.17999 -1.2743,1.23337 -1.2743,0.72122 z m -20.84525,-7.6992 c -1.29343,-0.61563 -1.46973,-0.81583 -2.34922,-2.66779 -0.52297,-1.10122 -0.89949,-2.05358 -0.83671,-2.11635 0.0628,-0.0628 0.7032,0.6833 1.42317,1.65794 1.17009,1.58397 1.43046,1.79263 2.45281,1.9657 2.249,0.38071 5.6881,-0.78609 8.38533,-2.84493 0.65259,-0.49814 1.18653,-0.84221 1.18653,-0.76462 0,0.0776 -0.23352,0.59884 -0.51894,1.15831 -1.19775,2.34777 -3.90473,4.02521 -6.7571,4.18718 -1.27346,0.0723 -1.86413,-0.0415 -2.98587,-0.57544 z m 0.94434,-4.31931 c -0.22207,-0.25467 -0.90546,-1.26577 -1.51864,-2.24691 -1.64011,-2.62428 -2.17066,-2.92516 -4.75983,-2.6993 -1.4773,0.12886 -2.25577,0.32672 -2.61979,0.66586 -0.49425,0.46047 -1.20577,2.27176 -1.44757,3.68503 l -0.11317,0.66146 -0.20002,-0.60788 c -0.55555,-1.68832 -2.07732,-4.40017 -3.07896,-5.48681 -1.71361,-1.85906 -2.30264,-2.08209 -5.53465,-2.09566 -2.65298,-0.0111 -2.83678,-0.0483 -3.65832,-0.73934 -1.00189,-0.84275 -1.08027,-0.85781 -1.76601,-0.33914 -0.28247,0.21365 -0.58923,0.39225 -0.68167,0.39688 -0.0924,0.005 -0.66796,-0.81891 -1.27892,-1.83008 -1.27918,-2.11713 -1.27524,-2.17469 0.33399,-4.87779 0.84767,-1.42387 1.10845,-2.15414 1.19462,-3.3454 0.16243,-2.2456 -0.25235,-3.13582 -2.54572,-5.463755 -3.37403,-3.424872 -7.52494,-6.077462 -11.14362,-7.121196 l -1.97422,-0.569424 0.89863,-0.464697 c 0.74959,-0.387626 1.22992,-0.430345 2.89618,-0.257571 3.64609,0.378064 4.40077,0.321709 5.15279,-0.384776 0.37468,-0.351986 0.68122,-0.740835 0.68122,-0.86411 0,-0.123274 0.31148,-0.694805 0.69217,-1.270068 1.03494,-1.563894 0.76297,-2.45209 -1.49725,-4.889739 -1.26053,-1.359481 -1.84075,-2.194333 -1.84075,-2.648562 0,-1.76449 4.78472,-4.89817 7.47886,-4.89817 1.30935,0 1.36432,0.03338 3.2105,1.949542 2.50844,2.603512 2.70717,2.694072 5.03297,2.293444 1.02986,-0.177397 2.03844,-0.341436 2.2413,-0.364533 0.76514,-0.08712 1.40636,-1.435618 1.71724,-3.611394 0.43882,-3.071225 0.74197,-3.291425 4.26392,-3.097169 2.93988,0.162151 4.97736,0.682866 6.08688,1.555613 l 0.7357,0.578699 -0.15855,2.958501 c -0.18078,3.373264 -0.20401,3.326004 2.3318,4.743306 2.80498,1.567734 2.65554,1.526041 4.2171,1.17658 1.17294,-0.262492 1.60251,-0.255585 2.31566,0.03723 1.71106,0.702561 4.54513,3.890956 5.09786,5.735218 0.1288,0.429728 -0.0913,1.029718 -0.79731,2.173548 l -0.97521,1.579967 0.47229,1.795201 c 0.52933,2.012017 0.96568,3.008581 1.518,3.466969 0.20564,0.17067 1.34779,0.480328 2.53809,0.688127 3.86775,0.675219 4.65087,1.506659 4.38013,4.650329 -0.33414,3.87977 -1.53798,6.35124 -3.09365,6.35124 -0.29016,0 -1.45251,-0.3132 -2.583,-0.696 -2.73337,-0.92556 -3.55563,-0.77472 -4.77277,0.87553 -0.49987,0.67775 -1.07518,1.45488 -1.27847,1.72696 -0.54103,0.7241 -0.0525,2.0781 1.5527,4.30394 0.73175,1.01465 1.33046,2.11611 1.33046,2.44769 0,0.90937 -1.8939,2.57461 -4.2949,3.77635 -2.37698,1.18971 -4.05701,1.40024 -4.75809,0.59626 z m -5.33158,-15.38963 c 4.14734,-1.94077 6.32983,-5.73838 5.66616,-9.859347 -0.34424,-2.137587 -1.18691,-3.728153 -3.01424,-5.689547 -4.71308,-5.058836 -12.93562,-5.426094 -17.31569,-0.773402 -1.81942,1.93266 -2.52462,3.948282 -2.38916,6.82878 0.12938,2.751446 1.00701,4.650746 3.15892,6.836336 3.66724,3.72461 9.30777,4.80335 13.89401,2.65718 z m 2.52156,-8.753602 c -0.1945,-0.654844 -0.65148,-1.705988 -1.01551,-2.335876 -0.83887,-1.451486 -0.6601,-1.658301 0.39484,-0.456792 0.8257,0.940412 1.22607,2.202977 1.06339,3.353322 -0.0708,0.500918 -0.16153,0.386064 -0.44272,-0.560654 z m -17.36642,-3.704167 c 0.31584,-1.221849 1.58353,-3.019145 2.6447,-3.749592 1.94927,-1.34176 5.22611,-1.539151 6.19384,-0.373106 0.40621,0.489451 0.17029,0.606361 -1.88676,0.934975 -3.07291,0.4909 -4.84852,1.333369 -6.37932,3.02678 -0.71736,0.793551 -0.73744,0.799197 -0.57246,0.160943 z m 36.47437,27.927889 c -0.22153,-0.57728 0.39858,-1.247 1.06628,-1.1516 0.39171,0.056 0.55232,0.27127 0.55232,0.74038 0,0.52524 -0.15015,0.67873 -0.72911,0.74532 -0.47759,0.0549 -0.78443,-0.0603 -0.88949,-0.3341 z m 7.5885,-2.62049 c -0.009,-0.26922 -0.42759,-0.9003 -0.9297,-1.40241 -0.68723,-0.68722 -0.81837,-0.9492 -0.53046,-1.05968 0.21035,-0.0807 0.64326,-0.61081 0.96203,-1.17799 l 0.57958,-1.03122 0.7639,0.92674 c 0.42015,0.50971 0.95799,0.92674 1.19521,0.92674 0.30369,0 0.1456,0.29357 -0.53434,0.99219 -0.53111,0.5457 -1.08351,1.28984 -1.22756,1.65365 -0.19973,0.50445 -0.26587,0.54527 -0.27866,0.17198 z M 55.971745,119.88671 c -0.572653,-0.91696 -2.036603,-1.35546 -4.220894,-1.26431 -1.846033,0.077 -2.014125,0.0369 -2.694119,-0.64307 -1.22664,-1.22664 -1.637689,-3.43083 -1.046876,-5.6137 0.247079,-0.91289 2.486635,-4.8948 2.75299,-4.8948 0.05191,0 0.028,0.64313 -0.05313,1.42918 -0.296465,2.87247 0.630352,4.59268 2.787394,5.17351 1.289105,0.34712 2.756082,1.54375 3.348603,2.73148 0.342967,0.68749 0.364266,1.0716 0.123686,2.23047 -0.318615,1.53475 -0.483135,1.67513 -0.997659,0.85124 z m 110.704435,-6.82372 c -1.61463,-0.38263 -1.7755,-0.47522 -1.38653,-0.79804 0.30882,-0.2563 0.7746,-0.31191 1.56198,-0.18651 0.61707,0.0983 1.62796,0.24835 2.24643,0.33349 1.17083,0.16119 1.4567,0.45791 0.66145,0.68657 -0.25466,0.0732 -0.64161,0.19258 -0.85989,0.26523 -0.21828,0.0727 -1.21883,-0.0627 -2.22344,-0.30074 z m 6.45677,-1.22424 c 0,-0.0715 0.41184,-0.66954 0.91519,-1.32896 0.50335,-0.65943 0.9931,-1.61428 1.08833,-2.12188 0.23653,-1.26084 0.64232,-1.42682 0.64232,-0.26273 0,1.28377 -0.57646,2.57591 -1.45883,3.26998 -0.69167,0.54406 -1.18701,0.72917 -1.18701,0.44359 z m 20.37315,-8.46868 c -0.18712,-0.22547 -0.29349,-0.44075 -0.23637,-0.47842 0.0571,-0.0377 0.29641,-0.21484 0.53176,-0.39374 0.3418,-0.2598 0.48805,-0.25282 0.72667,0.0347 0.22864,0.2755 0.18369,0.4641 -0.19154,0.80369 -0.44135,0.39942 -0.52426,0.40279 -0.83052,0.0338 z m -7.6177,-5.234734 c -0.43818,-0.985505 -0.78483,-1.358521 -1.56588,-1.684956 l -1.00311,-0.419249 0.92604,-0.299419 c 0.69317,-0.224124 1.07208,-0.58884 1.50676,-1.450339 l 0.58071,-1.150919 0.40152,0.960959 c 0.29314,0.701586 0.70197,1.095479 1.51469,1.459344 l 1.11318,0.498384 -0.94963,0.396781 c -0.95262,0.398026 -1.43584,1.017239 -1.77789,2.278211 -0.17432,0.642629 -0.21212,0.612811 -0.74639,-0.588797 z M 76.877233,95.375641 c 0.320051,-2.040943 0.476558,-2.080266 0.476558,-0.119737 0,1.192518 -0.09602,1.631597 -0.356821,1.631597 -0.285402,0 -0.309367,-0.302603 -0.119737,-1.51186 z m 94.990957,-1.656565 c -0.3752,-2.75494 -1.45996,-5.976715 -2.72428,-8.091254 -2.04599,-3.421826 -6.51448,-5.610284 -12.46936,-6.106901 -2.42419,-0.20217 -2.24137,-0.487198 0.45111,-0.703304 2.20055,-0.176622 5.74962,-1.245078 7.88528,-2.37388 1.86613,-0.986341 3.87062,-3.117094 4.8197,-5.123278 0.78613,-1.661746 1.82759,-5.518335 2.11543,-7.833607 0.10383,-0.835097 0.27864,-1.462817 0.38848,-1.394933 0.10984,0.06788 0.28382,0.977019 0.38662,2.020301 0.22566,2.290063 1.22583,5.85247 2.16158,7.699088 0.91764,1.810859 3.07541,3.916378 4.89496,4.776412 2.05524,0.971434 5.64574,1.975689 8.21584,2.297953 1.18613,0.148727 2.20132,0.315136 2.25598,0.369796 0.0547,0.05466 -0.76788,0.183736 -1.82787,0.286837 -9.4584,0.919977 -13.28861,4.033629 -15.30448,12.44129 -0.28033,1.169179 -0.51052,2.505707 -0.51154,2.970061 -0.004,1.735272 -0.43019,1.021451 -0.73745,-1.234581 z m -67.59305,0.970204 c -0.98226,-0.146552 -1.78593,-0.369696 -1.78593,-0.495875 0,-0.710735 3.83411,-1.058041 5.68854,-0.515286 l 0.79375,0.232316 -0.74483,0.297908 c -0.40966,0.16385 -0.9752,0.297908 -1.25677,0.297908 -0.28157,0 -0.51194,0.119063 -0.51194,0.264584 0,0.14552 -0.0893,0.246655 -0.19844,0.224743 -0.10914,-0.02191 -1.00211,-0.159746 -1.98438,-0.306298 z m 63.03698,-0.945549 c 0,-0.145521 0.11906,-0.338168 0.26458,-0.428105 0.14552,-0.08994 0.26459,-0.04446 0.26459,0.101062 0,0.145521 -0.11907,0.338168 -0.26459,0.428105 -0.14552,0.08994 -0.26458,0.04446 -0.26458,-0.101062 z m -56.66096,-1.328365 c 1.11495,-1.036843 2.3582,-1.511842 3.38714,-1.294102 0.30733,0.06503 -0.052,0.2849 -0.96576,0.590886 -0.80037,0.268022 -1.75287,0.689162 -2.11667,0.935866 -1.32263,0.896916 -1.43067,0.81443 -0.30471,-0.23265 z m 6.45309,-5.000373 c 0.21167,-0.247151 1.02823,-1.577024 1.81459,-2.955272 l 1.42974,-2.505906 0.14868,1.106299 c 0.0818,0.608465 0.46704,1.553741 0.85614,2.100614 0.59425,0.835193 0.64455,1.02952 0.31434,1.214316 -0.21621,0.121001 -0.39374,0.481976 -0.39449,0.802167 -0.001,0.550533 -0.12506,0.585018 -2.27761,0.634657 -2.11868,0.04886 -2.2496,0.02139 -1.89139,-0.396875 z"
       id="path1" /></g></svg>
