<?xml version="1.0" encoding="UTF-8" standalone="no"?>
<!-- Created with Inkscape (http://www.inkscape.org/) -->

<svg
   width="171.96483mm"
   height="161.40999mm"
   viewBox="0 0 171.96483 161.40999"
   version="1.1"
   id="svg1"
   xml:space="preserve"
   xmlns="http://www.w3.org/2000/svg"
   xmlns:svg="http://www.w3.org/2000/svg"><defs
     id="defs1" /><g
     id="layer1"
     transform="translate(249.04313,-88.256925)"><path
       style="fill:#000000"
       d="m -178.80483,248.29893 c 6.37924,-5.48127 10.80769,-12.37593 12.43811,-19.36491 l 0.36411,-1.5608 -1.51598,0.15845 c -21.99736,2.29918 -44.60516,-1.83149 -60.48099,-11.05046 -9.32584,-5.41546 -17.30503,-13.84024 -19.05989,-20.12429 -0.24383,-0.87313 -0.66549,-2.36141 -0.93703,-3.3073 -1.54018,-5.36506 -1.38775,-9.80079 0.50521,-14.70185 2.2412,-5.80267 6.70749,-10.91265 13.55554,-15.5092 1.47781,-0.99194 2.80571,-1.80353 2.95087,-1.80353 0.14516,0 -0.31838,0.50417 -1.03009,1.12036 -3.8955,3.37273 -7.25509,8.00763 -8.59069,11.85177 -0.72483,2.08621 -0.97384,6.08547 -0.51618,8.29003 0.53169,2.56112 2.2021,5.51938 4.33164,7.67123 2.20712,2.23024 3.37057,3.06658 6.7946,4.88424 4.11006,2.18185 10.71923,4.09142 17.184,4.96493 9.00675,1.21699 22.83322,0.94323 35.59427,-0.70475 12.33844,-1.5934 24.76205,-4.11107 34.07916,-6.90622 0.99,-0.297 1.8484,-0.4916 1.90757,-0.43243 0.25387,0.25387 -2.82904,5.92389 -4.86967,8.95616 -2.94191,4.37154 -3.61059,5.19584 -4.36942,5.38629 -1.06467,0.26722 -9.29898,1.17385 -13.51847,1.48844 -6.05721,0.4516 -6.21771,0.47903 -6.21771,1.06286 0,0.3289 -0.13177,0.45408 -0.37835,0.35946 -0.64097,-0.24596 -2.1959,0.68051 -2.63438,1.56964 l -0.4148,0.84111 -0.006,-1.54886 -0.006,-1.54886 -3.90261,0.19946 c -2.14643,0.1097 -7.26611,0.20349 -11.37708,0.20843 l -7.47448,0.009 v 5.61147 5.61147 l 4.56407,0.18612 c 9.15684,0.37341 22.96045,-0.8293 35.08575,-3.05704 1.53207,-0.28148 2.82215,-0.51178 2.86684,-0.51178 0.45498,0 -2.24375,6.66556 -4.12193,10.18068 -3.89868,7.29662 -9.6178,14.44319 -14.4527,18.05998 l -0.79099,0.59171 0.9053,-0.30269 c 1.37382,-0.45934 5.9468,-2.85899 8.6197,-4.52315 8.41592,-5.23978 16.80764,-14.51702 21.83477,-24.13882 0.7603,-1.45521 1.49246,-2.7842 1.62701,-2.95332 0.13455,-0.16911 0.86382,-0.45402 1.6206,-0.63313 0.75677,-0.17911 3.10236,-0.91707 5.21241,-1.63991 13.89474,-4.75993 26.34536,-11.16722 34.79271,-17.90486 3.147122,-2.51016 7.99483,-7.06082 9.139396,-8.57937 1.432638,-1.90075 1.471745,-1.44523 0.09315,1.08507 -3.867957,7.09935 -9.080333,13.15741 -16.263556,18.90228 -7.27572,5.81883 -17.42142,11.60846 -26.09693,14.89219 -1.86575,0.7062 -2.29079,0.98817 -3.01703,2.00152 -6.24432,8.71294 -17.96201,17.64161 -30.36831,23.1401 -4.18305,1.85394 -13.58976,4.91571 -15.02633,4.89089 -0.11915,-0.002 0.49774,-0.61756 1.37086,-1.36778 z m -4.10104,-24.16077 c 0,-0.64853 -0.0401,-0.66148 -2.05052,-0.66282 -1.12778,-7.6e-4 -3.21138,-0.0782 -4.63021,-0.1722 -1.48128,-0.0981 -2.57796,-0.0693 -2.57563,0.0675 0.0171,1.00659 1.29441,1.2518 7.20584,1.38334 2.023,0.045 2.05052,0.0368 2.05052,-0.61583 z m 7.73906,0.34141 c 0.90655,-0.0481 0.99219,-0.11898 0.99219,-0.82067 0,-0.59159 -0.0961,-0.73109 -0.41851,-0.60738 -0.23019,0.0883 -1.24222,0.1606 -2.24896,0.1606 h -1.83044 v 0.81858 0.81858 l 1.25677,-0.15851 c 0.69122,-0.0872 1.70325,-0.18222 2.24895,-0.2112 z m -21.23281,-1.10098 c 0,-0.57455 -0.13901,-0.64189 -1.65364,-0.80098 -0.90951,-0.0955 -2.15966,-0.24349 -2.77813,-0.3288 -0.90494,-0.12482 -1.12448,-0.0752 -1.12448,0.25398 0,0.225 0.25776,0.4909 0.5728,0.59089 0.44521,0.1413 3.56366,0.71811 4.78502,0.88507 0.10914,0.0149 0.19843,-0.25515 0.19843,-0.60016 z m -9.26041,-1.62168 c 0,-0.21828 -0.0508,-0.39687 -0.11285,-0.39687 -0.32102,0 -5.44032,-1.07885 -6.23541,-1.31406 -1.13823,-0.33673 -1.3065,-0.33881 -0.79549,-0.01 0.21828,0.14052 1.5875,0.62473 3.04271,1.07603 1.4552,0.45129 2.76489,0.86088 2.91041,0.91019 0.64883,0.21986 1.19063,0.0991 1.19063,-0.26545 z m 5.19533,-3.47651 c -0.0925,-0.67515 -0.16825,-3.16011 -0.16825,-5.52212 v -4.29457 l -2.4474,-0.18544 c -5.12601,-0.3884 -11.37891,-1.35644 -17.59479,-2.72395 l -0.59531,-0.13097 v 4.62182 4.62182 l 3.24115,1.08969 c 5.17153,1.73868 13.32717,3.52254 16.96929,3.71163 0.76002,0.0395 0.76279,0.0339 0.59531,-1.18791 z m -24.67951,-9.68651 -0.10911,-4.29947 -3.10179,-1.20839 c -3.40157,-1.32517 -5.79562,-2.48801 -7.93558,-3.85448 -0.76681,-0.48964 -1.45142,-0.89026 -1.52135,-0.89026 -0.0699,0 -0.12236,1.45852 -0.11649,3.24115 l 0.0107,3.24114 2.03985,1.62285 c 3.11483,2.47806 9.579,6.42835 10.54242,6.44252 0.21652,0.003 0.27,-1.19701 0.19138,-4.29506 z m 53.54928,-0.11623 c -0.25466,-0.0665 -0.67138,-0.0665 -0.92604,0 -0.25466,0.0666 -0.0463,0.121 0.46302,0.121 0.50932,0 0.71768,-0.0545 0.46302,-0.121 z m -31.68385,-4.34666 c 0.66373,-0.0385 -3.31517,-0.70527 -4.43177,-0.74268 -0.35324,-0.0118 -0.59532,0.1363 -0.59532,0.3643 0,0.28442 0.42964,0.40992 1.65365,0.48306 0.9095,0.0543 1.89177,0.0617 2.18281,0.0162 0.29104,-0.0454 0.82682,-0.0998 1.19063,-0.12092 z m 30.75781,-0.6562 c 0.718,-0.1659 1.03862,-0.89637 0.39687,-0.90423 -0.22048,-0.003 -0.19843,-0.0895 0.0661,-0.26053 0.32917,-0.21273 0.30692,-0.25717 -0.13044,-0.26053 -0.76295,-0.006 -13.18115,1.58381 -13.4956,1.7276 -0.40065,0.18319 12.32684,-0.10912 13.16302,-0.30231 z m -41.07656,-0.37101 c 0,-0.29104 -0.0893,-0.53022 -0.19844,-0.53151 -0.10914,-0.001 -1.48381,-0.22242 -3.05483,-0.49138 -2.55464,-0.43737 -2.84796,-0.44522 -2.77653,-0.0743 0.0795,0.41264 0.36888,0.50856 3.64855,1.20924 2.32269,0.49622 2.38125,0.49346 2.38125,-0.11203 z m -27.20109,-4.04916 -0.0813,-2.99187 -1.73653,-1.8373 c -0.95509,-1.01051 -2.10913,-2.49214 -2.56453,-3.2925 -0.8059,-1.41636 -0.83001,-1.43402 -0.90311,-0.66146 -0.0914,0.96622 0.93291,4.40786 2.00807,6.74687 0.63775,1.38744 3.01989,5.02549 3.292,5.02761 0.0367,2.8e-4 0.0301,-1.34582 -0.0146,-2.99135 z m 17.14692,1.69135 c 0,-0.23782 -5.56605,-2.2185 -5.74145,-2.0431 -0.10002,0.10002 2.70105,1.39818 4.15395,1.92514 1.11751,0.40532 1.5875,0.44024 1.5875,0.11796 z m -16.05,-8.59478 c -3.14339,-3.4433 -4.3484,-6.22445 -4.53161,-10.45889 -0.13408,-3.09912 0.19234,-5.02637 1.18416,-6.99139 0.35619,-0.70569 0.58105,-1.34964 0.49969,-1.431 -0.24255,-0.24255 -1.9041,3.61197 -2.53858,5.88908 -1.08708,3.9015 -0.36358,7.36579 2.25434,10.79437 0.78241,1.0247 4.14161,3.89 4.56052,3.89 0.064,0 -0.57888,-0.76148 -1.42852,-1.69217 z m 109.04584,8.94167 c 1.8052,-4.23787 3.11444,-8.675 3.6414,-12.34112 l 0.33255,-2.31349 3.57516,-1.66825 c 9.86461,-4.60303 18.09235,-9.98062 24.146584,-15.78203 6.70086,-6.42102 10.103272,-12.20364 10.439465,-17.74252 0.379948,-6.25975 -2.640626,-10.89106 -9.977089,-15.29741 -1.402702,-0.84247 -1.42413,-0.87173 -0.535165,-0.73068 1.56092,0.24766 6.224084,2.72288 8.346775,4.4305 1.105998,0.88973 2.479786,2.23872 3.052863,2.99776 3.139968,4.15885 3.589738,9.72444 1.266133,15.66746 -0.583505,1.49241 -1.171697,2.78194 -1.307095,2.86562 -0.135397,0.0837 -0.246177,0.28566 -0.246177,0.44883 0,0.56853 2.667659,-3.11943 3.586425,-4.95812 3.039019,-6.08188 1.985039,-11.0964 -3.398825,-16.17061 -2.671595,-2.51794 -8.023768,-5.54557 -10.108315,-5.71809 -0.647001,-0.0536 -0.942865,-0.79333 -0.441263,-1.10333 0.302953,-0.18724 5.713828,1.52909 7.868927,2.49601 4.123557,1.85012 7.958051,4.94159 10.170756,8.19995 2.282697,3.36141 3.161279,6.29783 3.164447,10.57628 0.0034,4.52757 -1.20169,8.48175 -4.056109,13.30955 -6.219734,10.51971 -21.088077,21.82454 -38.284737,29.109 -3.21894,1.36353 -9.54737,3.75515 -10.6797,4.03603 -0.68741,0.17052 -0.74787,0.13672 -0.55701,-0.31134 z m -82.14792,-5.04061 c -0.3638,-0.0552 -1.75121,-0.286 -3.08313,-0.51296 -2.82659,-0.48166 -2.48888,0.14246 -3.13676,-5.79697 -0.22222,-2.03729 -0.99531,-8.52619 -1.71797,-14.41979 -0.72266,-5.89359 -1.55041,-12.68015 -1.83946,-15.08125 -0.28904,-2.40109 -0.8846,-7.28265 -1.32348,-10.84791 -0.43887,-3.56526 -0.80801,-6.95854 -0.8203,-7.54063 -0.0176,-0.8352 -0.0703,-0.94677 -0.24974,-0.52916 -0.36995,0.86093 -0.29091,11.74059 0.12784,17.59479 0.42862,5.99225 1.36529,17.30661 1.62089,19.57916 0.11231,0.9986 0.0779,1.37219 -0.10965,1.19063 -0.30041,-0.29082 -1.58145,-8.11246 -3.2067,-19.57917 -3.05335,-21.54248 -3.04535,-21.43205 -1.74538,-24.08908 1.12391,-2.29719 3.7537,-4.10743 6.488,-4.46606 1.60864,-0.21098 14.06237,-1.01717 33.07292,-2.14095 18.60337,-1.09972 22.13388,-1.32149 29.50104,-1.85314 26.61664,-1.92078 37.68728,-2.60165 39.57176,-2.43376 1.86854,0.16646 3.83465,1.15838 5.12328,2.58474 1.99891,2.21256 1.96419,2.01953 3.35256,18.63992 0.69289,8.29469 1.46323,17.49569 1.71185,20.44668 0.24862,2.95099 0.40586,5.40363 0.34942,5.45031 -0.54881,0.45394 -4.59133,3.02985 -6.58491,4.19592 -2.65607,1.55358 -10.05964,5.32722 -10.16691,5.18213 -0.0348,-0.047 -0.38869,-4.25265 -0.78651,-9.34588 -0.39783,-5.09323 -1.00625,-12.41557 -1.35205,-16.27187 -0.3458,-3.8563 -0.87667,-9.80943 -1.17972,-13.22917 -0.30304,-3.41974 -0.68174,-6.54567 -0.84154,-6.94653 -0.40321,-1.01137 -1.89572,-2.25663 -2.93168,-2.44601 -0.47605,-0.087 -10.8668,0.50365 -23.09055,1.31262 -34.31507,2.27096 -49.90454,3.2912 -54.26356,3.55122 -4.15731,0.24799 -5.09742,0.50249 -6.19061,1.67589 -1.14519,1.22922 -1.13402,1.81939 0.24949,13.18475 2.87068,23.58221 5.03941,41.18146 5.19061,42.12171 0.17241,1.07219 0.11225,1.10055 -1.73905,0.81982 z m 95.38903,-36.60889 c 0.94737,-0.58551 1.71305,-1.93573 1.71305,-3.02087 0,-2.08666 -1.58919,-3.58685 -3.80144,-3.58855 -1.14388,-8.8e-4 -1.40277,0.11388 -2.31511,1.02622 -0.93936,0.93935 -1.0272,1.14928 -1.0272,2.45467 0,0.88643 0.16212,1.65892 0.42775,2.03817 1.10371,1.57576 3.40577,2.07748 5.00295,1.09036 z m -0.60715,-15.01602 c 1.09284,-1.09283 1.31329,-3.17637 0.47705,-4.50875 -1.38818,-2.21177 -4.76772,-2.0895 -6.06542,0.21945 -1.00156,1.78204 -0.54705,3.74374 1.10839,4.78384 1.30264,0.81844 3.39835,0.58709 4.47998,-0.49454 z m -59.72459,41.03794 c -2.34786,-1.24054 -2.76754,-2.28956 -3.20934,-8.02196 -0.19645,-2.54888 -0.67035,-8.3848 -1.05311,-12.9687 -0.9331,-11.17477 -0.9449,-12.51757 -0.12265,-13.95314 0.3531,-0.61646 1.11682,-1.4499 1.69717,-1.85208 0.90984,-0.63052 1.31341,-0.73124 2.92989,-0.73124 1.86159,0 1.93668,0.0287 10.73289,4.10104 4.872,2.25557 10.88466,5.11307 13.36146,6.35 3.92851,1.96192 4.60241,2.3923 5.28004,3.37207 1.15545,1.67063 1.25812,3.78259 0.27198,5.59446 -0.68656,1.26142 -1.46361,1.85203 -12.76402,9.70156 -6.61812,4.5971 -12.32305,8.46866 -12.67763,8.60347 -1.00661,0.38271 -3.56528,0.27023 -4.44668,-0.19548 z m 74.74478,-28.22059 c 0,-1.14334 -0.11916,-1.52104 -0.63189,-2.00271 -0.76128,-0.7152 -0.65459,-1.34709 0.35329,-2.09225 0.49138,-0.36329 0.84246,-0.96712 1.05781,-1.81933 0.31778,-1.25754 0.32858,-1.26753 0.76375,-0.70667 0.24278,0.3129 0.78373,1.0098 1.20211,1.54868 0.418372,0.53887 1.186107,1.15752 1.706073,1.37478 l 0.945392,0.39501 -0.579195,0.43756 c -0.640169,0.48363 -1.465881,3.16425 -1.212289,3.93562 0.08511,0.25888 -0.274331,-0.006 -0.798751,-0.58764 l -0.9535,-1.05833 -0.6605,0.79375 c -0.36327,0.43656 -0.66109,0.88304 -0.66181,0.99219 -7.3e-4,0.10914 -0.12038,0.19843 -0.2659,0.19843 -0.14552,0 -0.26459,-0.63409 -0.26459,-1.40909 z m -0.23903,-20.85882 c -0.4339,-2.83441 -0.66639,-3.39583 -1.40806,-3.40026 -0.33103,-0.002 -1.31624,-0.22924 -2.18936,-0.50504 -1.44556,-0.4566 -1.5047,-0.50303 -0.66146,-0.51926 0.50932,-0.01 1.40229,0.10501 1.98437,0.25513 0.58209,0.15012 1.59157,0.32928 2.2433,0.39813 0.65172,0.0688 1.28899,0.22921 1.41614,0.35636 0.13186,0.13186 0.049,1.03204 -0.19277,2.09519 -0.23318,1.0252 -0.42396,2.16089 -0.42396,2.52376 0,1.50918 -0.46425,0.78156 -0.7682,-1.20401 z m 0.36193,-5.44185 -1.33232,-0.0952 -0.8576,-1.84075 c -2.1602,-4.63661 -6.33197,-6.95834 -14.46943,-8.05274 -1.94772,-0.26194 -2.21266,-0.34802 -1.45521,-0.4728 0.50932,-0.0839 2.1762,-0.35414 3.70417,-0.60051 7.22758,-1.16538 10.72851,-3.67278 12.71042,-9.10335 0.75475,-2.06808 1.55887,-5.94575 1.59414,-7.68738 0.0297,-1.46522 0.3628,-0.35852 1.15458,3.83562 1.16718,6.18273 2.998203,9.04759 7.066688,11.05675 1.984947,0.98023 5.282668,1.88896 7.901249,2.17729 2.821685,0.31069 2.888807,0.45023 0.396875,0.82502 -5.619575,0.84521 -9.363566,2.28582 -11.554723,4.44603 -0.753631,0.74298 -1.640011,2.06277 -2.319599,3.4538 -0.60494,1.23822 -1.12397,2.22929 -1.15341,2.20237 -0.0294,-0.0269 -0.65306,-0.0918 -1.38583,-0.14415 z m -77.90906,-4.34343 c 0.002,-0.65785 1.98197,-2.99365 3.27156,-3.8604 0.70073,-0.47096 1.70951,-0.96727 2.24173,-1.1029 0.53222,-0.13563 3.64658,-0.37505 6.9208,-0.53204 6.25474,-0.2999 7.39921,-0.19628 9.42855,0.85366 0.81431,0.4213 3.00686,2.69494 3.00686,3.11805 0,0.11844 -0.38695,0.27775 -0.85989,0.35403 -0.75502,0.12177 -9.49906,0.66867 -17.26407,1.07979 -1.4552,0.077 -3.56856,0.20939 -4.69635,0.29408 -1.62425,0.12199 -2.05024,0.0795 -2.04919,-0.20427 z m -3.74073,-7.56816 c -1.81938,-2.43747 -5.3742,-7.19997 -7.89962,-10.58333 l -4.59166,-6.15156 h -1.1409 c -1.71634,0 -2.76093,-1.03076 -2.94071,-2.901753 -0.23908,-2.488151 1.12703,-3.977418 3.64851,-3.977418 0.94314,0 1.27442,0.158807 2.14282,1.027206 0.56908,0.569079 1.04027,1.306594 1.0565,1.653646 0.0576,1.231992 -0.0778,1.955129 -0.43536,2.324489 -0.40646,0.41994 -0.5033,0.29545 5.96229,7.66482 1.96455,2.23917 4.5244,5.17154 5.68857,6.51638 1.16417,1.34484 2.86736,3.28659 3.78487,4.31499 l 1.66819,1.86983 -0.74215,0.38862 c -0.40819,0.21374 -1.15247,0.8155 -1.65396,1.33724 -0.50149,0.52173 -0.98552,0.94861 -1.07562,0.94861 -0.0901,0 -1.6524,-1.9943 -3.47177,-4.43177 z m 28.73034,2.99402 c -0.58879,-0.6172 -1.56545,-1.34054 -2.17036,-1.60743 l -1.09984,-0.48525 8.41151,-8.61968 c 16.88131,-17.299084 17.26554,-17.712752 16.96825,-18.268253 -0.69507,-1.298748 0.0436,-3.715215 1.34079,-4.385997 1.23306,-0.637646 3.23923,-0.500676 4.17283,0.284897 0.96002,0.807802 1.47333,2.219347 1.2466,3.427958 -0.29257,1.559545 -2.65386,3.113834 -4.05497,2.669138 -0.37206,-0.118086 -1.31657,0.881519 -4.29388,4.544346 -4.28409,5.270481 -18.22836,22.170691 -19.29856,23.389511 -0.0835,0.0951 -0.63359,-0.33204 -1.22237,-0.94924 z m 55.04405,-15.23337 c -0.20681,-0.33463 0.0906,-1.32054 0.39834,-1.32054 0.30775,0 0.60515,0.98591 0.398336,1.32054 -0.09075,0.14683 -0.269996,0.26696 -0.398336,0.26696 -0.12835,0 -0.3076,-0.12013 -0.39834,-0.26696 z"
       id="path2" /></g></svg>
